<svg width="121" height="181" viewBox="0 0 121 181" fill="none" xmlns="http://www.w3.org/2000/svg">
<path d="M11.394 145.947C9.58235 145.947 8.12221 145.509 7.01358 144.633C5.90495 143.73 5.35063 142.457 5.35063 140.815C5.35063 139.228 5.86439 137.996 6.8919 137.12C7.94645 136.244 9.16324 135.642 10.5423 135.314C11.9483 134.985 13.5302 134.739 15.2877 134.575C16.6668 134.492 17.7348 134.315 18.492 134.041C19.2761 133.767 19.6682 133.247 19.6682 132.481C19.6682 131.386 19.2896 130.551 18.5325 129.976C17.8024 129.374 16.9101 129.073 15.8556 129.073C14.6117 129.073 13.5978 129.415 12.8136 130.099C12.0295 130.784 11.5698 131.742 11.4346 132.973H6.20238C6.2835 131.194 6.77022 129.675 7.66253 128.416C8.55484 127.13 9.71755 126.158 11.1507 125.501C12.6108 124.844 14.2062 124.516 15.9367 124.516C17.6672 124.516 19.2085 124.844 20.5605 125.501C21.9125 126.158 22.967 127.116 23.7241 128.375C24.4813 129.634 24.8598 131.139 24.8598 132.891V140.446H27.2123V145.454H19.7087V138.064C19.2491 140.363 18.3027 142.252 16.8696 143.73C15.4635 145.208 13.6383 145.947 11.394 145.947ZM14.1926 141.513C15.1661 141.513 16.0719 141.226 16.9101 140.651C17.7484 140.076 18.4108 139.337 18.8976 138.434C19.4113 137.503 19.6682 136.518 19.6682 135.478L19.7087 134.205C19.3843 134.506 18.9787 134.725 18.492 134.862C18.0323 134.999 17.3833 135.136 16.5451 135.272C16.491 135.272 16.4369 135.286 16.3829 135.314C16.3288 135.314 16.2882 135.314 16.2612 135.314C14.5577 135.478 13.2733 135.834 12.408 136.381C11.5427 136.901 11.1101 137.695 11.1101 138.762C11.1101 139.693 11.394 140.391 11.9619 140.856C12.5297 141.294 13.2733 141.513 14.1926 141.513Z" fill="white"/>
<path d="M31.856 145.454V124.926H37.4938V131.947C37.8453 129.867 38.616 128.115 39.8057 126.692C41.0225 125.241 42.5908 124.516 44.5106 124.516C45.8897 124.516 47.0253 124.817 47.9177 125.419C48.837 126.021 49.4995 126.897 49.9051 128.047C50.3377 129.196 50.554 130.619 50.554 132.316V134.287H44.9162V133.466C44.9162 132.316 44.6188 131.441 44.0239 130.838C43.4561 130.209 42.6719 129.894 41.6715 129.894C40.8603 129.894 40.1437 130.113 39.5218 130.551C38.8999 130.962 38.3997 131.55 38.0211 132.316C37.6696 133.083 37.4938 133.918 37.4938 134.821V145.454H31.856Z" fill="white"/>
<path d="M63.9685 145.865C61.3186 145.865 59.3582 145.29 58.0873 144.141C56.8165 142.964 56.181 141.253 56.181 139.009V130.058H51.5978V124.926H54.2747C55.113 124.926 55.7484 124.707 56.181 124.269C56.6137 123.804 56.83 123.161 56.83 122.34V120H61.8188V124.926H69.1196V130.058H61.8188V137.572C61.8188 138.639 62.0892 139.406 62.63 139.871C63.1708 140.336 64.0496 140.569 65.2664 140.569C66.348 140.569 67.6324 140.446 69.1196 140.199V145.331C68.3084 145.468 67.4296 145.591 66.4832 145.701C65.5368 145.81 64.6986 145.865 63.9685 145.865Z" fill="white"/>
<path d="M15.9773 172.716C12.8136 172.716 10.2313 171.991 8.23037 170.54C6.25646 169.089 5.17487 167.064 4.9856 164.464H10.8262C11.0155 165.641 11.5563 166.53 12.4486 167.132C13.3409 167.734 14.4495 168.035 15.7745 168.035C16.5045 168.035 17.194 167.94 17.843 167.748C18.492 167.556 19.0192 167.255 19.4248 166.845C19.8304 166.407 20.0332 165.873 20.0332 165.244C20.0332 164.614 19.8439 164.121 19.4654 163.766C19.1139 163.382 18.5731 163.081 17.843 162.862C17.14 162.643 16.1801 162.438 14.9633 162.247C14.801 162.219 14.6253 162.192 14.436 162.164C14.2738 162.137 14.098 162.11 13.9087 162.082C11.9889 161.836 10.4341 161.535 9.24436 161.179C8.08165 160.796 7.20286 160.29 6.60798 159.66C6.04015 159.003 5.75623 158.155 5.75623 157.114C5.75623 155.855 6.14831 154.774 6.93246 153.871C7.71661 152.94 8.7982 152.242 10.1772 151.777C11.5833 151.284 13.1786 151.038 14.9633 151.038C18.0728 151.038 20.547 151.763 22.3857 153.214C24.2514 154.665 25.2654 156.718 25.4277 159.373H19.8304C19.7493 158.168 19.2896 157.265 18.4514 156.663C17.6132 156.061 16.5857 155.76 15.3689 155.76C14.2873 155.76 13.3544 156.02 12.5702 156.54C11.7861 157.032 11.394 157.744 11.394 158.675C11.394 159.195 11.5563 159.646 11.8807 160.029C12.2323 160.413 12.7595 160.741 13.4626 161.015C14.1656 161.261 15.0849 161.466 16.2206 161.631C16.4099 161.658 16.5992 161.685 16.7885 161.713C17.0048 161.74 17.2211 161.768 17.4374 161.795C17.5456 161.822 17.6537 161.836 17.7619 161.836C17.87 161.836 17.9782 161.85 18.0864 161.877C19.7899 162.096 21.1824 162.411 22.264 162.821C23.3456 163.232 24.1433 163.766 24.657 164.423C25.1708 165.052 25.4277 165.859 25.4277 166.845C25.4277 168.077 25.0221 169.13 24.2109 170.006C23.3997 170.882 22.2775 171.553 20.8444 172.018C19.4113 172.483 17.7889 172.716 15.9773 172.716Z" fill="white"/>
<path d="M28.9361 180.352V151.613H34.5739V158.757C35.0606 156.485 35.9799 154.665 37.3319 153.296C38.6839 151.9 40.2928 151.202 42.1585 151.202C43.7538 151.202 45.187 151.668 46.4578 152.598C47.7557 153.529 48.7697 154.815 49.4998 156.458C50.2569 158.072 50.6355 159.879 50.6355 161.877C50.6355 163.875 50.2569 165.695 49.4998 167.338C48.7697 168.952 47.7557 170.225 46.4578 171.156C45.187 172.086 43.7538 172.552 42.1585 172.552C40.2928 172.552 38.6839 171.867 37.3319 170.499C35.9799 169.103 35.0606 167.269 34.5739 164.997V180.352H28.9361ZM39.6438 167.255C40.6172 167.255 41.496 167.023 42.2802 166.557C43.0914 166.092 43.7268 165.449 44.1865 164.628C44.6462 163.807 44.876 162.89 44.876 161.877C44.876 160.864 44.6462 159.947 44.1865 159.126C43.7268 158.305 43.0914 157.662 42.2802 157.197C41.496 156.704 40.6172 156.458 39.6438 156.458C38.6704 156.458 37.7781 156.704 36.9669 157.197C36.1827 157.662 35.5608 158.305 35.1011 159.126C34.6685 159.947 34.4522 160.864 34.4522 161.877C34.4522 162.89 34.6685 163.807 35.1011 164.628C35.5608 165.449 36.1827 166.092 36.9669 166.557C37.7781 167.023 38.6704 167.255 39.6438 167.255Z" fill="white"/>
<path d="M63.7011 172.552C61.646 172.552 59.7803 172.1 58.1038 171.197C56.4544 170.294 55.143 169.048 54.1695 167.461C53.2232 165.873 52.75 164.067 52.75 162.041C52.75 159.934 53.2367 158.059 54.2101 156.417C55.1835 154.774 56.5085 153.502 58.1849 152.598C59.8614 151.668 61.7136 151.202 63.7416 151.202C65.7696 151.202 67.5948 151.668 69.2172 152.598C70.8666 153.502 72.1645 154.774 73.1109 156.417C74.0573 158.031 74.5305 159.852 74.5305 161.877C74.5305 161.932 74.5305 162 74.5305 162.082C74.5305 162.164 74.5305 162.233 74.5305 162.288H58.3066C58.3607 163.273 58.6311 164.162 59.1178 164.956C59.6316 165.723 60.2805 166.338 61.0647 166.804C61.8759 167.242 62.7682 167.461 63.7416 167.461C64.688 167.461 65.5398 167.269 66.2969 166.886C67.054 166.503 67.5813 165.996 67.8787 165.367H73.9221C73.7869 166.516 73.2731 167.652 72.3808 168.774C71.5155 169.869 70.3258 170.773 68.8116 171.484C67.3244 172.196 65.6209 172.552 63.7011 172.552ZM69.2172 161.466C69.1631 160.481 68.8927 159.605 68.406 158.839C67.9193 158.045 67.2703 157.429 66.4591 156.991C65.675 156.526 64.7826 156.293 63.7822 156.293C62.8087 156.293 61.9164 156.526 61.1052 156.991C60.3211 157.429 59.6721 158.045 59.1584 158.839C58.6717 159.605 58.4013 160.481 58.3472 161.466H69.2172Z" fill="white"/>
<path d="M87.438 172.552C85.3559 172.552 83.4766 172.086 81.8002 171.156C80.1507 170.225 78.8528 168.952 77.9064 167.338C76.96 165.723 76.4868 163.902 76.4868 161.877C76.4868 159.852 76.96 158.031 77.9064 156.417C78.8528 154.802 80.1507 153.529 81.8002 152.598C83.4766 151.668 85.3559 151.202 87.438 151.202C89.2766 151.202 90.9396 151.586 92.4268 152.352C93.941 153.091 95.1578 154.131 96.0771 155.472C97.0235 156.786 97.5779 158.25 97.7401 159.865H92.1429C91.8454 158.825 91.2776 157.977 90.4394 157.32C89.6011 156.663 88.6007 156.334 87.438 156.334C86.4104 156.334 85.4911 156.581 84.6799 157.073C83.8957 157.539 83.2738 158.196 82.8141 159.044C82.3545 159.893 82.1246 160.837 82.1246 161.877C82.1246 162.917 82.3545 163.861 82.8141 164.71C83.2738 165.531 83.8957 166.188 84.6799 166.681C85.4911 167.146 86.4104 167.379 87.438 167.379C88.6007 167.379 89.6011 167.05 90.4394 166.393C91.2776 165.736 91.8454 164.888 92.1429 163.848H97.7401C97.5779 165.49 97.0235 166.982 96.0771 168.323C95.1578 169.637 93.941 170.677 92.4268 171.443C90.9396 172.182 89.2766 172.552 87.438 172.552Z" fill="white"/>
<path d="M110.752 172.552C108.102 172.552 106.141 171.977 104.87 170.827C103.599 169.65 102.964 167.94 102.964 165.695V156.745H98.3808V151.613H101.058C101.896 151.613 102.531 151.394 102.964 150.956C103.397 150.491 103.613 149.847 103.613 149.026V146.686H108.602V151.613H115.903V156.745H108.602V164.258C108.602 165.326 108.872 166.092 109.413 166.557C109.954 167.023 110.833 167.255 112.049 167.255C113.131 167.255 114.415 167.132 115.903 166.886V172.018C115.091 172.155 114.213 172.278 113.266 172.387C112.32 172.497 111.482 172.552 110.752 172.552Z" fill="white"/>
<path d="M67.8936 120.517C74.3831 119.343 75.3633 118.679 76.1069 108.162C76.7829 118.117 77.2223 119.598 84.1174 120.517C75.4985 120.517 77.1547 129.554 76.1069 134.506C75.6675 120.517 72.1524 122.202 67.8936 120.517Z" fill="white"/>
<path fill-rule="evenodd" clip-rule="evenodd" d="M13.0725 17.5096V34.159C18.9903 25.5974 33.7681 11.5198 50 11.5198C66.6377 13.8548 75.7681 18.8293 84.2899 37.6107C84.2899 37.6107 86.1159 50.4024 84.2899 48.7781C79.3865 43.9051 65.887 34.159 51.5217 34.159C33.5652 34.159 21.087 38.4229 8.30435 54.0572C8.13391 54.3363 7.88869 54.7229 7.58887 55.1956C5.92556 57.818 2.58157 63.0901 1 67.3565C3.43478 74.3614 11.9565 88.6556 26.5652 95.0717C34.2077 98.9295 54.3826 104.33 71.5072 95.0717C71.6783 94.9824 71.8751 94.8807 72.0949 94.7672C74.8739 93.3311 81.3216 89.9991 85.6087 85.9348V100.452C86.285 105.867 88.1449 115.071 100.725 116.391C113.304 117.711 120 109.894 120 100.452H107.623C108.293 106.438 103.604 107.05 100.725 103.599C97.9388 100.261 96.971 93.0741 96.971 85.9348V46.9507C96.971 39.6412 94.3536 26.8292 82.6667 15.3777C77.5604 9.52328 60.0435 -1.64598 42.087 1.57072C36.6087 2.55208 23.542 6.87012 13.0725 17.5096ZM12.6667 66.0367C16.7585 58.3887 29.5276 43.0929 47.8696 43.0929C55.5459 42.7206 73.658 46.7883 84.6957 66.0367C82.1933 73.38 71.8522 88.4728 50.5073 90.0972C36.9131 90.0972 20.7827 84.3917 12.6667 66.0367Z" fill="white"/>
<path d="M13.0725 34.159H12.5725V35.7617L13.4838 34.4433L13.0725 34.159ZM13.0725 17.5096L12.7161 17.1589L12.5725 17.3048V17.5096H13.0725ZM50 11.5198L50.0695 11.0247L50.0349 11.0198H50V11.5198ZM84.2899 37.6107L84.7848 37.5401L84.7747 37.4693L84.7452 37.4041L84.2899 37.6107ZM84.2899 48.7781L83.9374 49.1328L83.9472 49.1425L83.9575 49.1517L84.2899 48.7781ZM8.30435 54.0572L7.91726 53.7407L7.89552 53.7673L7.87762 53.7966L8.30435 54.0572ZM7.58887 55.1956L7.16664 54.9278H7.16664L7.58887 55.1956ZM1 67.3565L0.531177 67.1827L0.468767 67.351L0.527716 67.5206L1 67.3565ZM26.5652 95.0717L26.7905 94.6254L26.7786 94.6193L26.7663 94.6139L26.5652 95.0717ZM71.5072 95.0717L71.2758 94.6284L71.2694 94.6319L71.5072 95.0717ZM72.0949 94.7672L72.3244 95.2114H72.3244L72.0949 94.7672ZM85.6087 85.9348H86.1087V84.7718L85.2647 85.572L85.6087 85.9348ZM85.6087 100.452H85.1087V100.483L85.1125 100.514L85.6087 100.452ZM100.725 116.391L100.777 115.894L100.725 116.391ZM120 100.452H120.5V99.9524H120V100.452ZM107.623 100.452V99.9524H107.064L107.126 100.508L107.623 100.452ZM100.725 103.599L100.341 103.92L100.725 103.599ZM82.6667 15.3777L82.2899 15.7063L82.3027 15.7211L82.3167 15.7348L82.6667 15.3777ZM42.087 1.57072L42.1751 2.06289V2.06289L42.087 1.57072ZM47.8696 43.0929V43.5929H47.8817L47.8938 43.5923L47.8696 43.0929ZM12.6667 66.0367L12.2258 65.8008L12.1108 66.0158L12.2094 66.2389L12.6667 66.0367ZM84.6957 66.0367L85.169 66.1979L85.2419 65.984L85.1294 65.7879L84.6957 66.0367ZM50.5073 90.0972V90.5972H50.5263L50.5452 90.5957L50.5073 90.0972ZM13.5725 34.159V17.5096H12.5725V34.159H13.5725ZM50 11.0198C41.7422 11.0198 33.8892 14.5981 27.379 19.2211C20.8661 23.8461 15.6516 29.5484 12.6612 33.8747L13.4838 34.4433C16.4112 30.2081 21.5446 24.5908 27.958 20.0365C34.3741 15.4803 42.0259 12.0198 50 12.0198V11.0198ZM84.7452 37.4041C80.4647 27.9703 76.0052 21.9448 70.4793 17.9912C64.955 14.0388 58.4188 12.1964 50.0695 11.0247L49.9305 12.015C58.2189 13.1782 64.5667 14.9905 69.8975 18.8045C75.2267 22.6173 79.5932 28.4698 83.8345 37.8173L84.7452 37.4041ZM83.9575 49.1517C84.1097 49.2871 84.3354 49.4341 84.6164 49.4197C84.9251 49.4039 85.1245 49.2066 85.2348 49.0349C85.3426 48.867 85.4094 48.6622 85.4553 48.4627C85.5027 48.2561 85.5357 48.0186 85.5583 47.7624C85.6478 46.747 85.5874 45.2643 85.4732 43.7655C85.3583 42.2577 85.1861 40.7013 85.043 39.5237C84.9714 38.9345 84.9069 38.4392 84.8603 38.0909C84.837 37.9168 84.8182 37.7794 84.8052 37.6854C84.7987 37.6384 84.7936 37.6022 84.7902 37.5777C84.7884 37.5654 84.7871 37.5561 84.7862 37.5498C84.7858 37.5467 84.7854 37.5443 84.7852 37.5426C84.7851 37.5418 84.785 37.5412 84.7849 37.5408C84.7849 37.5406 84.7849 37.5404 84.7849 37.5403C84.7849 37.5401 84.7848 37.5401 84.2899 37.6107C83.7949 37.6814 83.7949 37.6814 83.7949 37.6815C83.7949 37.6816 83.7949 37.6817 83.7949 37.6819C83.795 37.6822 83.7951 37.6828 83.7952 37.6835C83.7954 37.685 83.7957 37.6872 83.7961 37.6902C83.797 37.6962 83.7982 37.7052 83.7999 37.7171C83.8033 37.7409 83.8082 37.7763 83.8147 37.8226C83.8275 37.9152 83.8461 38.051 83.8692 38.2235C83.9153 38.5685 83.9792 39.0598 84.0503 39.6444C84.1925 40.8145 84.3627 42.3545 84.4761 43.8415C84.5901 45.3377 84.6438 46.7484 84.5622 47.6746C84.542 47.9037 84.5143 48.0922 84.4807 48.2387C84.4454 48.3923 84.4105 48.4679 84.3935 48.4944C84.379 48.5169 84.4304 48.4279 84.5652 48.421C84.6723 48.4155 84.6982 48.4722 84.6222 48.4045L83.9575 49.1517ZM51.5217 34.659C58.5957 34.659 65.4803 37.0605 71.221 40.0836C76.9608 43.1063 81.5212 46.7315 83.9374 49.1328L84.6423 48.4235C82.1551 45.9516 77.514 42.2674 71.687 39.1988C65.8607 36.1306 58.813 33.659 51.5217 33.659V34.659ZM8.69144 54.3737C15.0448 46.6029 21.2992 41.6854 28.1718 38.704C35.048 35.7209 42.5814 34.659 51.5217 34.659V33.659C42.5055 33.659 34.8216 34.7291 27.7738 37.7866C20.7225 40.8456 14.3465 45.8772 7.91726 53.7407L8.69144 54.3737ZM8.0111 55.4634C8.30989 54.9923 8.55787 54.6014 8.73107 54.3178L7.87762 53.7966C7.70995 54.0712 7.4675 54.4535 7.16664 54.9278L8.0111 55.4634ZM1.46882 67.5303C3.02843 63.3231 6.34017 58.0978 8.0111 55.4634L7.16664 54.9278C5.51096 57.5381 2.13471 62.857 0.531177 67.1827L1.46882 67.5303ZM26.7663 94.6139C12.3244 88.2711 3.87783 74.1132 1.47228 67.1923L0.527716 67.5206C2.99173 74.6097 11.5887 89.0401 26.3642 95.5295L26.7663 94.6139ZM71.2694 94.6319C62.8162 99.2023 53.5954 100.162 45.5218 99.4921C37.4446 98.8222 30.5529 96.5245 26.7905 94.6254L26.3399 95.5181C30.2201 97.4767 37.2371 99.8084 45.4391 100.489C53.6447 101.169 63.0737 100.2 71.745 95.5116L71.2694 94.6319ZM71.8653 94.323C71.6458 94.4364 71.448 94.5386 71.2758 94.6285L71.7386 95.515C71.9085 95.4263 72.1044 95.3251 72.3244 95.2114L71.8653 94.323ZM85.2647 85.572C81.0377 89.5794 74.6552 92.8812 71.8653 94.323L72.3244 95.2114C75.0926 93.7809 81.6056 90.4189 85.9527 86.2977L85.2647 85.572ZM86.1087 100.452V85.9348H85.1087V100.452H86.1087ZM100.777 115.894C94.6226 115.248 91.1504 112.689 89.1173 109.677C87.0656 106.639 86.4415 103.086 86.1048 100.39L85.1125 100.514C85.4522 103.233 86.0963 106.99 88.2885 110.237C90.4993 113.512 94.247 116.214 100.672 116.888L100.777 115.894ZM119.5 100.452C119.5 105.056 117.869 109.228 114.742 112.088C111.62 114.944 106.952 116.542 100.777 115.894L100.672 116.888C107.077 117.56 112.047 115.909 115.417 112.826C118.783 109.747 120.5 105.29 120.5 100.452H119.5ZM107.623 100.952H120V99.9524H107.623V100.952ZM100.341 103.92C101.856 105.735 103.945 106.596 105.659 106.04C107.438 105.463 108.467 103.496 108.12 100.397L107.126 100.508C107.45 103.394 106.469 104.726 105.351 105.089C104.167 105.472 102.473 104.914 101.109 103.279L100.341 103.92ZM96.471 85.9348C96.471 89.5238 96.714 93.1387 97.3119 96.2858C97.907 99.4183 98.8652 102.152 100.341 103.92L101.109 103.279C99.7982 101.709 98.8796 99.1796 98.2943 96.0992C97.7119 93.0333 97.471 89.4851 97.471 85.9348H96.471ZM96.471 46.9507V85.9348H97.471V46.9507H96.471ZM82.3167 15.7348C93.8911 27.076 96.471 39.7504 96.471 46.9507H97.471C97.471 39.5321 94.8162 26.5825 83.0166 15.0205L82.3167 15.7348ZM42.1751 2.06289C51.028 0.476996 59.7945 2.43498 66.9982 5.53189C74.2089 8.63185 79.7971 12.8484 82.2899 15.7063L83.0435 15.049C80.43 12.0526 74.7065 7.75728 67.3931 4.61319C60.0726 1.46604 51.1024 -0.552248 41.9988 1.07856L42.1751 2.06289ZM13.4289 17.8602C23.8088 7.31185 36.772 3.03078 42.1751 2.06289L41.9988 1.07856C36.4454 2.07338 23.2752 6.42839 12.7161 17.1589L13.4289 17.8602ZM47.8696 42.5929C38.5539 42.5929 30.6694 46.4778 24.6127 51.3058C18.5591 56.1312 14.3014 61.9214 12.2258 65.8008L13.1076 66.2725C15.1238 62.504 19.2965 56.8223 25.236 52.0878C31.1722 47.3559 38.8433 43.5929 47.8696 43.5929V42.5929ZM85.1294 65.7879C73.9819 46.3479 55.6739 42.2139 47.8454 42.5935L47.8938 43.5923C55.418 43.2274 73.3342 47.2286 84.2619 66.2854L85.1294 65.7879ZM50.5452 90.5957C72.1368 88.9526 82.6187 73.6816 85.169 66.1979L84.2224 65.8754C81.7678 73.0785 71.5677 87.993 50.4693 89.5986L50.5452 90.5957ZM12.2094 66.2389C20.4276 84.8252 36.7766 90.5972 50.5073 90.5972V89.5972C37.0495 89.5972 21.1377 83.9582 13.124 65.8345L12.2094 66.2389Z" fill="#FEFFFD"/>
<mask id="path-4-inside-1_208_8" fill="white">
<path fill-rule="evenodd" clip-rule="evenodd" d="M52.388 42.3832L52.8806 51.7434H61.4878L54.2517 56.6946L57.3746 65.0735L50.1385 59.8176L42.4453 65.0735L45.416 56.6946L38.713 51.7434H47.5487L48.0148 42.3662C35.1276 43.4011 24.9993 53.9404 24.9993 66.7892C24.9993 80.3236 36.2375 91.2955 50.1005 91.2955C63.9635 91.2955 75.2017 80.3236 75.2017 66.7892C75.2017 54.0075 65.179 43.5113 52.388 42.3832Z"/>
</mask>
<path fill-rule="evenodd" clip-rule="evenodd" d="M52.388 42.3832L52.8806 51.7434H61.4878L54.2517 56.6946L57.3746 65.0735L50.1385 59.8176L42.4453 65.0735L45.416 56.6946L38.713 51.7434H47.5487L48.0148 42.3662C35.1276 43.4011 24.9993 53.9404 24.9993 66.7892C24.9993 80.3236 36.2375 91.2955 50.1005 91.2955C63.9635 91.2955 75.2017 80.3236 75.2017 66.7892C75.2017 54.0075 65.179 43.5113 52.388 42.3832Z" fill="white"/>
<path d="M52.8806 51.7434L51.882 51.7959L51.9319 52.7434H52.8806V51.7434ZM52.388 42.3832L52.4758 41.3871L51.3288 41.2859L51.3894 42.4358L52.388 42.3832ZM61.4878 51.7434L62.0525 52.5687L64.7201 50.7434H61.4878V51.7434ZM54.2517 56.6946L53.687 55.8693L53.0415 56.3109L53.3146 57.0438L54.2517 56.6946ZM57.3746 65.0735L56.7869 65.8826L59.4696 67.8311L58.3117 64.7243L57.3746 65.0735ZM50.1385 59.8176L50.7262 59.0085L50.1561 58.5945L49.5744 58.9919L50.1385 59.8176ZM42.4453 65.0735L41.5028 64.7394L40.4786 67.6283L43.0095 65.8992L42.4453 65.0735ZM45.416 56.6946L46.3585 57.0287L46.6061 56.3304L46.0101 55.8902L45.416 56.6946ZM38.713 51.7434V50.7434H35.6761L38.1189 52.5477L38.713 51.7434ZM47.5487 51.7434V52.7434H48.5003L48.5475 51.793L47.5487 51.7434ZM48.0148 42.3662L49.0136 42.4159L49.0701 41.2782L47.9348 41.3694L48.0148 42.3662ZM53.8792 51.6908L53.3866 42.3307L51.3894 42.4358L51.882 51.7959L53.8792 51.6908ZM61.4878 50.7434H52.8806V52.7434H61.4878V50.7434ZM54.8164 57.5199L62.0525 52.5687L60.9231 50.9181L53.687 55.8693L54.8164 57.5199ZM58.3117 64.7243L55.1887 56.3453L53.3146 57.0438L56.4376 65.4228L58.3117 64.7243ZM49.5508 60.6267L56.7869 65.8826L57.9623 64.2644L50.7262 59.0085L49.5508 60.6267ZM43.0095 65.8992L50.7026 60.6433L49.5744 58.9919L41.8812 64.2478L43.0095 65.8992ZM44.4734 56.3604L41.5028 64.7394L43.3879 65.4077L46.3585 57.0287L44.4734 56.3604ZM38.1189 52.5477L44.8218 57.4989L46.0101 55.8902L39.3072 50.939L38.1189 52.5477ZM47.5487 50.7434H38.713V52.7434H47.5487V50.7434ZM47.0161 42.3166L46.55 51.6937L48.5475 51.793L49.0136 42.4159L47.0161 42.3166ZM25.9993 66.7892C25.9993 54.4857 35.7029 44.3581 48.0949 43.363L47.9348 41.3694C34.5524 42.4441 23.9993 53.395 23.9993 66.7892H25.9993ZM50.1005 90.2955C36.767 90.2955 25.9993 79.7489 25.9993 66.7892H23.9993C23.9993 80.8984 35.7079 92.2955 50.1005 92.2955V90.2955ZM74.2017 66.7892C74.2017 79.7489 63.434 90.2955 50.1005 90.2955V92.2955C64.4931 92.2955 76.2017 80.8984 76.2017 66.7892H74.2017ZM52.3001 43.3793C64.5994 44.4641 74.2017 54.55 74.2017 66.7892H76.2017C76.2017 53.4651 65.7586 42.5586 52.4758 41.3871L52.3001 43.3793Z" fill="#FEFFFD" mask="url(#path-4-inside-1_208_8)"/>
</svg>
