<svg width="41" height="41" viewBox="0 0 41 41" fill="none" xmlns="http://www.w3.org/2000/svg">
<path d="M20.5046 9.98812C14.6873 9.98812 9.99504 14.6814 9.99504 20.5C9.99504 26.3186 14.6873 31.0119 20.5046 31.0119C26.3219 31.0119 31.0141 26.3186 31.0141 20.5C31.0141 14.6814 26.3219 9.98812 20.5046 9.98812ZM20.5046 27.3341C16.7453 27.3341 13.672 24.2693 13.672 20.5C13.672 16.7307 16.7361 13.6659 20.5046 13.6659C24.273 13.6659 27.3371 16.7307 27.3371 20.5C27.3371 24.2693 24.2639 27.3341 20.5046 27.3341ZM33.8953 9.55813C33.8953 10.9213 32.7977 12.01 31.444 12.01C30.0812 12.01 28.9927 10.9121 28.9927 9.55813C28.9927 8.20412 30.0903 7.10627 31.444 7.10627C32.7977 7.10627 33.8953 8.20412 33.8953 9.55813ZM40.8559 12.0466C40.7004 8.76219 39.9504 5.8529 37.5448 3.45593C35.1484 1.05896 32.2398 0.308769 28.9561 0.144092C25.5718 -0.0480308 15.4282 -0.0480308 12.0439 0.144092C8.76938 0.299621 5.86074 1.04982 3.45516 3.44678C1.04958 5.84375 0.308701 8.75304 0.14406 12.0374C-0.0480201 15.4225 -0.0480201 25.5684 0.14406 28.9534C0.299554 32.2378 1.04958 35.1471 3.45516 37.5441C5.86074 39.941 8.76023 40.6912 12.0439 40.8559C15.4282 41.048 25.5718 41.048 28.9561 40.8559C32.2398 40.7004 35.1484 39.9502 37.5448 37.5441C39.9413 35.1471 40.6913 32.2378 40.8559 28.9534C41.048 25.5684 41.048 15.4316 40.8559 12.0466ZM36.4838 32.5855C35.7704 34.3786 34.3892 35.7601 32.5873 36.4828C29.8891 37.5532 23.4864 37.3062 20.5046 37.3062C17.5228 37.3062 11.1109 37.5441 8.42181 36.4828C6.62906 35.7692 5.24791 34.3878 4.52532 32.5855C3.45516 29.8866 3.70212 23.4825 3.70212 20.5C3.70212 17.5175 3.46431 11.1043 4.52532 8.41454C5.23876 6.62139 6.61991 5.23993 8.42181 4.51718C11.1201 3.44678 17.5228 3.6938 20.5046 3.6938C23.4864 3.6938 29.8982 3.45593 32.5873 4.51718C34.3801 5.23078 35.7612 6.61224 36.4838 8.41454C37.554 11.1134 37.307 17.5175 37.307 20.5C37.307 23.4825 37.554 29.8957 36.4838 32.5855Z" fill="#F0EBE5"/>
</svg>
