<svg width="41" height="42" viewBox="0 0 41 42" fill="none" xmlns="http://www.w3.org/2000/svg">
<path d="M36.6071 0H4.39286C3.2278 0 2.11046 0.463327 1.28664 1.28806C0.462817 2.11278 0 3.23135 0 4.3977L0 36.6475C0 37.8138 0.462817 38.9324 1.28664 39.7571C2.11046 40.5818 3.2278 41.0452 4.39286 41.0452H16.9537V27.0907H11.1881V20.5226H16.9537V15.5165C16.9537 9.82244 20.3398 6.67717 25.5262 6.67717C28.01 6.67717 30.6072 7.1206 30.6072 7.1206V12.7093H27.7455C24.9258 12.7093 24.0463 14.4611 24.0463 16.2577V20.5226H30.3409L29.3342 27.0907H24.0463V41.0452H36.6071C37.7722 41.0452 38.8895 40.5818 39.7134 39.7571C40.5372 38.9324 41 37.8138 41 36.6475V4.3977C41 3.23135 40.5372 2.11278 39.7134 1.28806C38.8895 0.463327 37.7722 0 36.6071 0Z" fill="#F0EBE5"/>
</svg>
