<svg width="378" height="211" viewBox="0 0 378 211" fill="none" xmlns="http://www.w3.org/2000/svg">
<path d="M22.7241 110.393C16.5827 110.393 11.6329 109.125 7.8747 106.59C4.11653 103.975 2.23745 100.29 2.23745 95.5354C2.23745 90.9393 3.97904 87.3735 7.46222 84.8377C11.0371 82.302 15.1619 80.5587 19.8367 79.6078C24.6031 78.6569 29.9654 77.9437 35.9235 77.4682C40.5983 77.2305 44.219 76.7155 46.7855 75.923C49.4437 75.1306 50.7728 73.625 50.7728 71.4063C50.7728 68.2366 49.4896 65.8197 46.923 64.1556C44.4481 62.4123 41.4232 61.5407 37.8484 61.5407C33.6319 61.5407 30.1946 62.5312 27.5363 64.5122C24.8781 66.4933 23.3199 69.2667 22.8616 72.8326H5.12482C5.39981 67.6819 7.04974 63.284 10.0746 59.6389C13.0995 55.9145 17.041 53.1014 21.8991 51.1996C26.8489 49.2978 32.257 48.3469 38.1234 48.3469C43.9898 48.3469 49.2146 49.2978 53.7977 51.1996C58.3808 53.1014 61.9557 55.8749 64.5222 59.52C67.0888 63.1651 68.3721 67.5234 68.3721 72.5949V94.4656H76.3467V108.967H50.9103V87.5716C49.3521 94.2279 46.1439 99.6955 41.2857 103.975C36.5193 108.254 30.3321 110.393 22.7241 110.393ZM32.2111 97.556C35.511 97.556 38.5817 96.724 41.4232 95.0599C44.2648 93.3958 46.5105 91.2563 48.1605 88.6413C49.902 85.9471 50.7728 83.0944 50.7728 80.0832L50.9103 76.3985C49.8104 77.2701 48.4354 77.9041 46.7855 78.3003C45.2272 78.6965 43.0273 79.0927 40.1858 79.4889C40.0025 79.4889 39.8191 79.5285 39.6358 79.6078C39.4525 79.6078 39.315 79.6078 39.2233 79.6078C33.4486 80.0832 29.0946 81.1134 26.1614 82.6982C23.2282 84.2038 21.7616 86.5018 21.7616 89.5922C21.7616 92.2864 22.7241 94.3071 24.649 95.6542C26.5739 96.9221 29.0946 97.556 32.2111 97.556Z" stroke="#6689EB"/>
<path d="M92.0887 108.967V49.5355H111.2V69.861C112.392 63.8387 115.004 58.7672 119.038 54.6466C123.162 50.4468 128.479 48.3469 134.987 48.3469C139.662 48.3469 143.511 49.2186 146.536 50.9619C149.653 52.7052 151.899 55.2409 153.274 58.5691C154.74 61.8972 155.473 66.0178 155.473 70.9308V76.6362H136.362V74.259C136.362 70.9308 135.354 68.3951 133.337 66.6518C131.412 64.8292 128.754 63.9179 125.362 63.9179C122.612 63.9179 120.183 64.5519 118.075 65.8197C115.967 67.0083 114.271 68.712 112.988 70.9308C111.796 73.1496 111.2 75.5664 111.2 78.1814V108.967H92.0887Z" stroke="#6689EB"/>
<path d="M200.947 110.155C191.965 110.155 185.319 108.491 181.011 105.163C176.703 101.756 174.549 96.8032 174.549 90.3054V64.3934H159.012V49.5355H168.086C170.928 49.5355 173.082 48.9016 174.549 47.6337C176.015 46.2866 176.749 44.4245 176.749 42.0472V35.272H193.66V49.5355H218.409V64.3934H193.66V86.1452C193.66 89.2356 194.577 91.4544 196.41 92.8015C198.243 94.1486 201.222 94.8222 205.347 94.8222C209.014 94.8222 213.368 94.4656 218.409 93.7524V108.61C215.659 109.006 212.68 109.363 209.472 109.68C206.264 109.997 203.422 110.155 200.947 110.155Z" stroke="#6689EB"/>
<path d="M38.2609 187.892C27.5363 187.892 18.7826 185.792 11.9995 181.592C5.30815 177.392 1.64164 171.528 1 164H20.7991C21.4408 167.408 23.274 169.983 26.2989 171.726C29.3238 173.47 33.0819 174.341 37.5734 174.341C40.0483 174.341 42.3857 174.064 44.5856 173.509C46.7855 172.955 48.5729 172.083 49.9479 170.894C51.3228 169.626 52.0103 168.081 52.0103 166.259C52.0103 164.436 51.3686 163.01 50.0854 161.98C48.8938 160.87 47.0605 159.998 44.5856 159.365C42.2024 158.731 38.9484 158.136 34.8235 157.582C34.2736 157.502 33.6777 157.423 33.0361 157.344C32.4861 157.265 31.8903 157.185 31.2487 157.106C24.7406 156.393 19.47 155.521 15.4369 154.491C11.4954 153.382 8.51634 151.916 6.49976 150.093C4.57484 148.191 3.61239 145.735 3.61239 142.724C3.61239 139.079 4.9415 135.949 7.59971 133.334C10.2579 130.639 13.9244 128.619 18.5992 127.272C23.3657 125.845 28.7738 125.132 34.8235 125.132C45.3647 125.132 53.7519 127.232 59.9849 131.432C66.3097 135.632 69.747 141.575 70.297 149.261H51.3228C51.0478 145.775 49.4896 143.16 46.648 141.416C43.8065 139.673 40.3233 138.801 36.1985 138.801C32.532 138.801 29.3696 139.554 26.7114 141.06C24.0532 142.486 22.7241 144.546 22.7241 147.241C22.7241 148.746 23.274 150.054 24.374 151.163C25.5656 152.272 27.353 153.223 29.7363 154.016C32.1195 154.729 35.236 155.323 39.0858 155.799C39.7275 155.878 40.3691 155.957 41.0108 156.036C41.7441 156.116 42.4774 156.195 43.2107 156.274C43.5773 156.353 43.944 156.393 44.3106 156.393C44.6773 156.393 45.0439 156.433 45.4106 156.512C51.1853 157.146 55.906 158.057 59.5725 159.246C63.239 160.434 65.943 161.98 67.6846 163.881C69.4262 165.704 70.297 168.042 70.297 170.894C70.297 174.46 68.9221 177.511 66.1722 180.047C63.4223 182.582 59.6183 184.524 54.7602 185.871C49.902 187.218 44.4023 187.892 38.2609 187.892Z" stroke="#6689EB"/>
<path d="M82.1902 210V126.796H101.302V147.478C102.952 140.901 106.068 135.632 110.651 131.67C115.235 127.628 120.689 125.608 127.013 125.608C132.421 125.608 137.279 126.955 141.588 129.649C145.987 132.343 149.425 136.067 151.9 140.822C154.466 145.497 155.75 150.727 155.75 156.512C155.75 162.296 154.466 167.566 151.9 172.321C149.425 176.996 145.987 180.681 141.588 183.375C137.279 186.069 132.421 187.416 127.013 187.416C120.689 187.416 115.235 185.435 110.651 181.473C106.068 177.432 102.952 172.122 101.302 165.545V210H82.1902ZM118.489 172.083C121.789 172.083 124.768 171.409 127.426 170.062C130.176 168.715 132.33 166.853 133.888 164.476C135.446 162.098 136.225 159.444 136.225 156.512C136.225 153.58 135.446 150.925 133.888 148.548C132.33 146.171 130.176 144.309 127.426 142.962C124.768 141.535 121.789 140.822 118.489 140.822C115.189 140.822 112.164 141.535 109.414 142.962C106.756 144.309 104.648 146.171 103.089 148.548C101.623 150.925 100.889 153.58 100.889 156.512C100.889 159.444 101.623 162.098 103.089 164.476C104.648 166.853 106.756 168.715 109.414 170.062C112.164 171.409 115.189 172.083 118.489 172.083Z" stroke="#6689EB"/>
<path d="M200.041 187.416C193.074 187.416 186.75 186.109 181.067 183.494C175.475 180.879 171.03 177.273 167.73 172.677C164.522 168.081 162.917 162.851 162.917 156.987C162.917 150.886 164.567 145.458 167.867 140.703C171.167 135.949 175.659 132.264 181.342 129.649C187.025 126.955 193.304 125.608 200.178 125.608C207.053 125.608 213.24 126.955 218.74 129.649C224.331 132.264 228.731 135.949 231.939 140.703C235.148 145.378 236.752 150.648 236.752 156.512C236.752 156.67 236.752 156.868 236.752 157.106C236.752 157.344 236.752 157.542 236.752 157.7H181.754C181.937 160.553 182.854 163.129 184.504 165.427C186.246 167.645 188.446 169.428 191.104 170.775C193.854 172.043 196.878 172.677 200.178 172.677C203.387 172.677 206.274 172.122 208.84 171.013C211.407 169.904 213.194 168.438 214.203 166.615H234.689C234.231 169.943 232.489 173.232 229.465 176.481C226.531 179.65 222.498 182.265 217.365 184.326C212.324 186.386 206.549 187.416 200.041 187.416ZM218.74 155.323C218.557 152.471 217.64 149.935 215.99 147.716C214.34 145.418 212.14 143.635 209.39 142.367C206.732 141.02 203.707 140.347 200.316 140.347C197.016 140.347 193.991 141.02 191.241 142.367C188.583 143.635 186.383 145.418 184.642 147.716C182.992 149.935 182.075 152.471 181.892 155.323H218.74Z" stroke="#6689EB"/>
<path d="M280.507 187.416C273.449 187.416 267.079 186.069 261.395 183.375C255.804 180.681 251.404 176.996 248.196 172.321C244.988 167.645 243.384 162.376 243.384 156.512C243.384 150.648 244.988 145.378 248.196 140.703C251.404 136.028 255.804 132.343 261.395 129.649C267.079 126.955 273.449 125.608 280.507 125.608C286.74 125.608 292.377 126.717 297.419 128.936C302.552 131.075 306.677 134.086 309.793 137.969C313.002 141.773 314.881 146.012 315.431 150.688H296.456C295.448 147.676 293.523 145.22 290.682 143.318C287.84 141.416 284.449 140.465 280.507 140.465C277.024 140.465 273.907 141.179 271.157 142.605C268.499 143.952 266.391 145.854 264.833 148.31C263.275 150.767 262.495 153.501 262.495 156.512C262.495 159.523 263.275 162.257 264.833 164.713C266.391 167.091 268.499 168.992 271.157 170.419C273.907 171.766 277.024 172.439 280.507 172.439C284.449 172.439 287.84 171.489 290.682 169.587C293.523 167.685 295.448 165.228 296.456 162.217H315.431C314.881 166.972 313.002 171.29 309.793 175.173C306.677 178.977 302.552 181.988 297.419 184.207C292.377 186.346 286.74 187.416 280.507 187.416Z" stroke="#6689EB"/>
<path d="M359.538 187.416C350.555 187.416 343.91 185.752 339.602 182.424C335.293 179.016 333.139 174.064 333.139 167.566V141.654H317.603V126.796H326.677C329.519 126.796 331.673 126.162 333.139 124.894C334.606 123.547 335.339 121.685 335.339 119.308V112.533H352.251V126.796H377V141.654H352.251V163.406C352.251 166.496 353.168 168.715 355.001 170.062C356.834 171.409 359.813 172.083 363.938 172.083C367.605 172.083 371.959 171.726 377 171.013V185.871C374.25 186.267 371.271 186.624 368.063 186.941C364.855 187.258 362.013 187.416 359.538 187.416Z" stroke="#6689EB"/>
<path d="M214.253 36.7701C236.252 33.3705 239.575 31.4489 242.096 1C244.387 29.823 245.877 34.1095 269.251 36.7701C240.033 36.7701 245.648 62.9325 242.096 77.2701C240.606 36.7701 228.69 41.6478 214.253 36.7701Z" stroke="#6689EB"/>
</svg>
