<svg width="225" height="110" viewBox="0 0 225 110" fill="none" xmlns="http://www.w3.org/2000/svg">
<path fill-rule="evenodd" clip-rule="evenodd" d="M11.2082 15.7183V31.5699C16.7024 23.4186 30.4222 10.0157 45.492 10.0157C60.9386 12.2387 69.4154 16.9749 77.327 34.8562C77.327 34.8562 79.0224 47.0348 77.327 45.4883C72.7747 40.8489 60.2416 31.5699 46.9048 31.5699C30.2338 31.5699 18.6489 35.6295 6.78142 50.5145C6.62319 50.7802 6.39552 51.1483 6.11716 51.5983C4.57293 54.095 1.46834 59.1144 0 63.1764C2.26047 69.8456 10.1721 83.4547 23.735 89.5634C30.8304 93.2363 49.5609 98.3784 65.4596 89.5634C65.6183 89.4784 65.8011 89.3815 66.0051 89.2734C68.5852 87.9061 74.5713 84.7339 78.5515 80.8644V94.6861C79.1794 99.8411 80.9061 108.605 92.5853 109.861C104.264 111.118 110.481 103.675 110.481 94.6861H98.9899C99.6122 100.384 95.2582 100.967 92.5853 97.6824C89.9988 94.5041 89.1004 87.6615 89.1004 80.8644V43.7485C89.1004 36.7893 86.6703 24.5914 75.8201 13.6886C71.0794 8.11481 54.8165 -2.51917 38.1455 0.543373C33.0594 1.4777 20.9282 5.5888 11.2082 15.7183ZM10.8314 61.9198C14.6303 54.6384 26.4852 40.0756 43.5141 40.0756C50.6409 39.7212 67.4563 43.5939 77.7038 61.9198C75.3805 68.9113 65.7798 83.2808 45.963 84.8273C33.342 84.8273 18.3664 79.3952 10.8314 61.9198Z" fill="#4660BF"/>
<path d="M47.7091 39.3999L48.1664 48.3117H56.1574L49.4393 53.0256L52.3387 61.003L45.6206 55.999L38.4783 61.003L41.2362 53.0256L35.0131 48.3117H43.2163L43.649 39.3837C31.6844 40.369 22.2811 50.4032 22.2811 62.6362C22.2811 75.5221 32.7147 85.9681 45.5853 85.9681C58.4558 85.9681 68.8895 75.5221 68.8895 62.6362C68.8895 50.4672 59.5843 40.474 47.7091 39.3999Z" fill="#4660BF"/>
<path d="M111.885 57.0634C109.925 57.0634 108.344 56.5779 107.144 55.6069C105.944 54.6055 105.344 53.1945 105.344 51.3738C105.344 49.6138 105.9 48.2483 107.013 47.2772C108.154 46.3062 109.471 45.6386 110.964 45.2745C112.485 44.9103 114.198 44.6372 116.1 44.4552C117.592 44.3641 118.748 44.1669 119.568 43.8634C120.417 43.56 120.841 42.9834 120.841 42.1338C120.841 40.92 120.431 39.9945 119.612 39.3572C118.822 38.6897 117.856 38.3559 116.714 38.3559C115.368 38.3559 114.271 38.7352 113.422 39.4938C112.573 40.2524 112.076 41.3145 111.929 42.68H106.266C106.354 40.7076 106.881 39.0234 107.847 37.6276C108.812 36.2014 110.071 35.1241 111.622 34.3959C113.202 33.6676 114.929 33.3034 116.802 33.3034C118.675 33.3034 120.343 33.6676 121.807 34.3959C123.27 35.1241 124.411 36.1862 125.231 37.5821C126.05 38.9779 126.46 40.6469 126.46 42.589V50.9641H129.006V56.5172H120.885V48.3241C120.387 50.8731 119.363 52.9669 117.812 54.6055C116.29 56.2441 114.315 57.0634 111.885 57.0634ZM114.915 52.1476C115.968 52.1476 116.949 51.829 117.856 51.1917C118.763 50.5545 119.48 49.7352 120.007 48.7338C120.563 47.7021 120.841 46.6097 120.841 45.4566L120.885 44.0455C120.534 44.3793 120.095 44.6221 119.568 44.7738C119.07 44.9255 118.368 45.0772 117.461 45.229C117.402 45.229 117.344 45.2441 117.285 45.2745C117.227 45.2745 117.183 45.2745 117.153 45.2745C115.31 45.4566 113.919 45.851 112.983 46.4579C112.046 47.0345 111.578 47.9145 111.578 49.0979C111.578 50.1297 111.885 50.9035 112.5 51.4193C113.115 51.9048 113.919 52.1476 114.915 52.1476Z" fill="#4660BF"/>
<path d="M134.032 56.5172V33.7586H140.135V41.5421C140.515 39.2359 141.349 37.2938 142.637 35.7159C143.954 34.1076 145.651 33.3034 147.729 33.3034C149.222 33.3034 150.451 33.6372 151.417 34.3048C152.412 34.9724 153.129 35.9434 153.568 37.2179C154.036 38.4924 154.27 40.0703 154.27 41.9517V44.1366H148.168V43.2262C148.168 41.9517 147.846 40.9807 147.202 40.3131C146.588 39.6152 145.739 39.2662 144.656 39.2662C143.778 39.2662 143.003 39.509 142.329 39.9945C141.656 40.4497 141.115 41.1021 140.705 41.9517C140.325 42.8014 140.135 43.7269 140.135 44.7283V56.5172H134.032Z" fill="#4660BF"/>
<path d="M168.789 56.9724C165.921 56.9724 163.799 56.3352 162.424 55.0607C161.048 53.7559 160.361 51.8593 160.361 49.371V39.4483H155.4V33.7586H158.297C159.205 33.7586 159.892 33.5159 160.361 33.0303C160.829 32.5145 161.063 31.8014 161.063 30.891V28.2966H166.463V33.7586H174.365V39.4483H166.463V47.7779C166.463 48.9614 166.755 49.811 167.341 50.3269C167.926 50.8428 168.877 51.1007 170.194 51.1007C171.365 51.1007 172.755 50.9641 174.365 50.691V56.3807C173.487 56.5324 172.535 56.669 171.511 56.7903C170.487 56.9117 169.579 56.9724 168.789 56.9724Z" fill="#4660BF"/>
<path d="M116.846 86.7407C113.422 86.7407 110.627 85.9366 108.461 84.3283C106.325 82.72 105.154 80.4745 104.949 77.5917H111.271C111.476 78.8965 112.061 79.8828 113.027 80.5503C113.993 81.2179 115.193 81.5517 116.627 81.5517C117.417 81.5517 118.163 81.4455 118.866 81.2331C119.568 81.0207 120.139 80.6869 120.578 80.2317C121.017 79.7462 121.236 79.1545 121.236 78.4566C121.236 77.7586 121.031 77.2124 120.621 76.8179C120.241 76.3931 119.656 76.0593 118.866 75.8166C118.105 75.5738 117.066 75.3462 115.749 75.1338C115.573 75.1034 115.383 75.0731 115.178 75.0428C115.002 75.0124 114.812 74.9821 114.607 74.9517C112.529 74.6786 110.847 74.3448 109.559 73.9503C108.3 73.5255 107.349 72.9641 106.705 72.2662C106.091 71.5379 105.783 70.5972 105.783 69.4441C105.783 68.0483 106.208 66.8497 107.057 65.8483C107.905 64.8166 109.076 64.0428 110.568 63.5269C112.09 62.9807 113.817 62.7076 115.749 62.7076C119.114 62.7076 121.792 63.5117 123.782 65.12C125.802 66.7283 126.899 69.0041 127.075 71.9476H121.017C120.929 70.6124 120.431 69.611 119.524 68.9434C118.617 68.2759 117.505 67.9421 116.188 67.9421C115.017 67.9421 114.007 68.2303 113.159 68.8069C112.31 69.3531 111.885 70.1421 111.885 71.1738C111.885 71.7503 112.061 72.251 112.412 72.6759C112.793 73.1007 113.363 73.4648 114.124 73.7683C114.885 74.0414 115.88 74.269 117.11 74.451C117.314 74.4814 117.519 74.5117 117.724 74.5421C117.958 74.5724 118.192 74.6028 118.427 74.6331C118.544 74.6634 118.661 74.6786 118.778 74.6786C118.895 74.6786 119.012 74.6938 119.129 74.7241C120.973 74.9669 122.48 75.3159 123.651 75.771C124.821 76.2262 125.685 76.8179 126.241 77.5462C126.797 78.2441 127.075 79.1393 127.075 80.2317C127.075 81.5972 126.636 82.7655 125.758 83.7365C124.88 84.7076 123.665 85.451 122.114 85.9669C120.563 86.4828 118.807 86.7407 116.846 86.7407Z" fill="#4660BF"/>
<path d="M130.872 95.2069V63.3448H136.974V71.2648C137.501 68.7462 138.496 66.7283 139.959 65.211C141.423 63.6634 143.164 62.8897 145.183 62.8897C146.91 62.8897 148.461 63.4055 149.837 64.4372C151.241 65.469 152.339 66.8952 153.129 68.7159C153.949 70.5062 154.358 72.509 154.358 74.7241C154.358 76.9393 153.949 78.9572 153.129 80.7779C152.339 82.5683 151.241 83.9793 149.837 85.011C148.461 86.0428 146.91 86.5586 145.183 86.5586C143.164 86.5586 141.423 85.8 139.959 84.2828C138.496 82.7352 137.501 80.7021 136.974 78.1834V95.2069H130.872ZM142.462 80.6869C143.515 80.6869 144.466 80.429 145.315 79.9131C146.193 79.3972 146.881 78.6841 147.378 77.7738C147.876 76.8634 148.125 75.8469 148.125 74.7241C148.125 73.6014 147.876 72.5848 147.378 71.6745C146.881 70.7641 146.193 70.051 145.315 69.5352C144.466 68.989 143.515 68.7159 142.462 68.7159C141.408 68.7159 140.442 68.989 139.564 69.5352C138.715 70.051 138.042 70.7641 137.545 71.6745C137.077 72.5848 136.842 73.6014 136.842 74.7241C136.842 75.8469 137.077 76.8634 137.545 77.7738C138.042 78.6841 138.715 79.3972 139.564 79.9131C140.442 80.429 141.408 80.6869 142.462 80.6869Z" fill="#4660BF"/>
<path d="M168.5 86.5586C166.276 86.5586 164.256 86.0579 162.442 85.0566C160.656 84.0552 159.237 82.6745 158.183 80.9145C157.159 79.1545 156.647 77.1517 156.647 74.9062C156.647 72.5696 157.174 70.491 158.227 68.6703C159.281 66.8497 160.715 65.4386 162.529 64.4372C164.344 63.4055 166.349 62.8897 168.544 62.8897C170.739 62.8897 172.714 63.4055 174.47 64.4372C176.255 65.4386 177.66 66.8497 178.685 68.6703C179.709 70.4607 180.221 72.4786 180.221 74.7241C180.221 74.7848 180.221 74.8607 180.221 74.9517C180.221 75.0428 180.221 75.1186 180.221 75.1793H162.661C162.72 76.2717 163.012 77.2579 163.539 78.1379C164.095 78.9876 164.798 79.6703 165.646 80.1862C166.524 80.6717 167.49 80.9145 168.544 80.9145C169.568 80.9145 170.49 80.7021 171.309 80.2772C172.129 79.8524 172.7 79.291 173.021 78.5931H179.563C179.416 79.8676 178.86 81.1269 177.894 82.371C176.958 83.5848 175.67 84.5862 174.031 85.3752C172.422 86.1641 170.578 86.5586 168.5 86.5586ZM174.47 74.269C174.412 73.1766 174.119 72.2055 173.592 71.3559C173.065 70.4759 172.363 69.7931 171.485 69.3076C170.636 68.7917 169.67 68.5338 168.588 68.5338C167.534 68.5338 166.568 68.7917 165.69 69.3076C164.842 69.7931 164.139 70.4759 163.583 71.3559C163.056 72.2055 162.764 73.1766 162.705 74.269H174.47Z" fill="#4660BF"/>
<path d="M194.191 86.5586C191.938 86.5586 189.904 86.0428 188.089 85.011C186.304 83.9793 184.899 82.5683 183.875 80.7779C182.851 78.9876 182.339 76.9697 182.339 74.7241C182.339 72.4786 182.851 70.4607 183.875 68.6703C184.899 66.88 186.304 65.469 188.089 64.4372C189.904 63.4055 191.938 62.8897 194.191 62.8897C196.182 62.8897 197.981 63.3145 199.591 64.1641C201.23 64.9835 202.547 66.1366 203.542 67.6235C204.566 69.08 205.166 70.7034 205.342 72.4938H199.284C198.962 71.3407 198.347 70.4 197.44 69.6717C196.533 68.9434 195.45 68.5793 194.191 68.5793C193.079 68.5793 192.084 68.8524 191.206 69.3986C190.357 69.9145 189.684 70.6428 189.187 71.5835C188.689 72.5241 188.441 73.571 188.441 74.7241C188.441 75.8772 188.689 76.9241 189.187 77.8648C189.684 78.7752 190.357 79.5034 191.206 80.0497C192.084 80.5655 193.079 80.8234 194.191 80.8234C195.45 80.8234 196.533 80.4593 197.44 79.731C198.347 79.0028 198.962 78.0621 199.284 76.909H205.342C205.166 78.7297 204.566 80.3834 203.542 81.8703C202.547 83.3269 201.23 84.48 199.591 85.3297C197.981 86.149 196.182 86.5586 194.191 86.5586Z" fill="#4660BF"/>
<path d="M219.425 86.5586C216.557 86.5586 214.435 85.9214 213.059 84.6469C211.684 83.3421 210.996 81.4455 210.996 78.9572V69.0345H206.035V63.3448H208.933C209.84 63.3448 210.528 63.1021 210.996 62.6166C211.464 62.1007 211.698 61.3876 211.698 60.4772V57.8828H217.098V63.3448H225V69.0345H217.098V77.3641C217.098 78.5476 217.391 79.3972 217.976 79.9131C218.561 80.429 219.513 80.6869 220.83 80.6869C222 80.6869 223.39 80.5503 225 80.2772V85.9669C224.122 86.1186 223.171 86.2552 222.147 86.3765C221.122 86.4979 220.215 86.5586 219.425 86.5586Z" fill="#4660BF"/>
<path d="M173.038 28.8702C180.062 27.5684 181.122 26.8325 181.927 15.1724C182.659 26.2099 183.135 27.8514 190.597 28.8702C181.269 28.8702 183.061 38.8889 181.927 44.3793C181.452 28.8702 177.647 30.7381 173.038 28.8702Z" fill="#4660BF"/>
</svg>
