<svg width="681" height="73" viewBox="0 0 681 73" fill="none" xmlns="http://www.w3.org/2000/svg">
<g filter="url(#filter0_i_309_133)">
<rect width="681" height="73" rx="10" fill="#F5F5F5"/>
</g>
<rect x="0.5" y="0.5" width="680" height="72" rx="9.5" stroke="#E1F0D3"/>
<path d="M30.9795 44.8066C31.3538 45.0508 31.7607 45.2664 32.2002 45.4536C32.6396 45.6408 33.0954 45.7954 33.5674 45.9175C34.0475 46.0396 34.5358 46.1291 35.0322 46.186C35.5286 46.2511 36.021 46.2837 36.5093 46.2837C38.1694 46.2837 39.4471 45.9256 40.3423 45.2095C41.2456 44.5015 41.6973 43.4354 41.6973 42.0112V41.5229C41.3799 41.7427 41.0218 41.9461 40.623 42.1333C40.2324 42.3123 39.8092 42.467 39.3535 42.5972C38.9059 42.7274 38.4299 42.8291 37.9253 42.9023C37.4289 42.9674 36.9243 43 36.4116 43C35.313 43 34.3283 42.8413 33.4575 42.5239C32.5949 42.1984 31.8625 41.7264 31.2603 41.1079C30.6662 40.4813 30.2104 39.7122 29.8931 38.8008C29.5757 37.8893 29.417 36.8477 29.417 35.6758V28.5957H33.0181V34.6748C33.0181 36.4163 33.3477 37.7021 34.0068 38.5322C34.6742 39.3542 35.724 39.7651 37.1562 39.7651C38.1654 39.7651 39.0565 39.5902 39.8296 39.2402C40.6108 38.8822 41.2334 38.4264 41.6973 37.873V28.5957H45.3105V41.3521C45.3105 42.7274 45.1152 43.9196 44.7246 44.9287C44.334 45.946 43.7643 46.7882 43.0156 47.4556C42.2751 48.1229 41.3636 48.6193 40.2812 48.9448C39.1989 49.2785 37.9701 49.4453 36.5947 49.4453C35.252 49.4453 33.9987 49.3029 32.835 49.0181C31.6712 48.7332 30.6051 48.3467 29.6367 47.8584L30.9795 44.8066ZM52.1191 35.7979C52.1191 34.7643 52.3267 33.7959 52.7417 32.8926C53.1649 31.9893 53.763 31.1999 54.5361 30.5244C55.3174 29.849 56.2573 29.3159 57.356 28.9253C58.4627 28.5347 59.7038 28.3394 61.0791 28.3394C62.4544 28.3394 63.6914 28.5347 64.79 28.9253C65.8968 29.3159 66.8368 29.849 67.6099 30.5244C68.3911 31.1999 68.9893 31.9893 69.4043 32.8926C69.8275 33.7959 70.0391 34.7643 70.0391 35.7979C70.0391 36.8314 69.8275 37.7998 69.4043 38.7031C68.9893 39.6064 68.3911 40.3958 67.6099 41.0713C66.8368 41.7467 65.8968 42.2798 64.79 42.6704C63.6914 43.061 62.4544 43.2563 61.0791 43.2563C59.7038 43.2563 58.4627 43.061 57.356 42.6704C56.2573 42.2798 55.3174 41.7467 54.5361 41.0713C53.763 40.3958 53.1649 39.6064 52.7417 38.7031C52.3267 37.7998 52.1191 36.8314 52.1191 35.7979ZM55.9155 35.7979C55.9155 36.3757 56.0295 36.925 56.2573 37.4458C56.4933 37.9585 56.8311 38.4142 57.2705 38.813C57.7181 39.2036 58.2593 39.5169 58.894 39.7529C59.5369 39.9808 60.2653 40.0947 61.0791 40.0947C61.8929 40.0947 62.6172 39.9808 63.252 39.7529C63.8949 39.5169 64.436 39.2036 64.8755 38.813C65.3231 38.4142 65.6608 37.9585 65.8887 37.4458C66.1247 36.925 66.2427 36.3757 66.2427 35.7979C66.2427 35.2201 66.1247 34.6707 65.8887 34.1499C65.6608 33.6291 65.3231 33.1733 64.8755 32.7827C64.436 32.384 63.8949 32.0706 63.252 31.8428C62.6172 31.6068 61.8929 31.4888 61.0791 31.4888C60.2653 31.4888 59.5369 31.6068 58.894 31.8428C58.2593 32.0706 57.7181 32.384 57.2705 32.7827C56.8311 33.1733 56.4933 33.6291 56.2573 34.1499C56.0295 34.6707 55.9155 35.2201 55.9155 35.7979ZM76.689 28.5835H80.29V35.6147C80.29 36.2821 80.3633 36.8924 80.5098 37.4458C80.6562 37.991 80.9045 38.459 81.2544 38.8496C81.6125 39.2402 82.0845 39.5454 82.6704 39.7651C83.2645 39.9767 84.001 40.0825 84.8799 40.0825C85.2949 40.0825 85.714 40.0378 86.1372 39.9482C86.5685 39.8587 86.9795 39.7367 87.3701 39.582C87.7607 39.4193 88.1229 39.228 88.4565 39.0083C88.7983 38.7886 89.0913 38.5485 89.3354 38.2881V28.5835H92.9487V43H89.3354V41.7671C88.4484 42.2961 87.5573 42.6745 86.6621 42.9023C85.7669 43.1302 84.9165 43.2441 84.1108 43.2441C82.7925 43.2441 81.6613 43.0854 80.7173 42.7681C79.7814 42.4507 79.0124 41.9909 78.4102 41.3887C77.8161 40.7783 77.3807 40.0337 77.104 39.1548C76.8273 38.2677 76.689 37.2586 76.689 36.1274V28.5835ZM100.539 28.5957H104.152V30.6709C104.949 30.0768 105.792 29.5641 106.679 29.1328C107.566 28.7015 108.449 28.3719 109.328 28.144L110.39 31.4521C108.998 31.5905 107.773 31.9038 106.715 32.3921C105.666 32.8722 104.811 33.5518 104.152 34.4307V43H100.539V28.5957ZM126.705 35.749C126.705 34.7725 126.904 33.8407 127.303 32.9536C127.701 32.0584 128.275 31.269 129.024 30.5854C129.773 29.9019 130.688 29.3566 131.771 28.9497C132.861 28.5428 134.098 28.3394 135.481 28.3394C136.857 28.3394 138.094 28.5469 139.192 28.9619C140.299 29.3688 141.235 29.9303 142 30.6465C142.773 31.3626 143.363 32.2049 143.77 33.1733C144.185 34.1418 144.393 35.1794 144.393 36.2861C144.393 36.4245 144.389 36.575 144.38 36.7378C144.38 36.8924 144.372 37.0348 144.356 37.165H130.733C130.888 37.5964 131.136 37.991 131.478 38.3491C131.827 38.7072 132.263 39.0164 132.784 39.2769C133.305 39.5373 133.907 39.7407 134.59 39.8872C135.274 40.0256 136.031 40.0947 136.861 40.0947C137.691 40.0947 138.517 40.0093 139.339 39.8384C140.161 39.6593 140.946 39.4355 141.695 39.167L142.916 41.9258C142.444 42.1455 141.963 42.3408 141.475 42.5117C140.995 42.6745 140.49 42.8128 139.961 42.9268C139.441 43.0326 138.891 43.1139 138.313 43.1709C137.744 43.2279 137.142 43.2563 136.507 43.2563C134.887 43.2563 133.467 43.061 132.247 42.6704C131.026 42.2798 130.005 41.7467 129.183 41.0713C128.361 40.3958 127.742 39.6024 127.327 38.6909C126.912 37.7795 126.705 36.7988 126.705 35.749ZM140.56 34.3452C140.429 33.9465 140.226 33.5762 139.949 33.2344C139.681 32.8844 139.343 32.5833 138.936 32.3311C138.529 32.0706 138.057 31.8672 137.52 31.7207C136.983 31.5742 136.393 31.501 135.75 31.501C135.066 31.501 134.444 31.5783 133.882 31.7329C133.321 31.8875 132.828 32.0951 132.405 32.3555C131.982 32.6159 131.628 32.917 131.343 33.2588C131.067 33.6006 130.863 33.9627 130.733 34.3452H140.56ZM151.384 28.5957H154.998V29.8164C155.901 29.263 156.78 28.8805 157.634 28.6689C158.497 28.4492 159.339 28.3394 160.161 28.3394C161.309 28.3394 162.362 28.5225 163.323 28.8887C164.283 29.2549 165.105 29.8083 165.789 30.5488C166.318 30.1419 166.838 29.8001 167.351 29.5234C167.864 29.2386 168.376 29.0107 168.889 28.8398C169.402 28.6608 169.923 28.5347 170.452 28.4614C170.981 28.38 171.526 28.3394 172.087 28.3394C173.267 28.3394 174.338 28.5021 175.298 28.8276C176.258 29.145 177.076 29.6211 177.751 30.2559C178.435 30.8906 178.96 31.6841 179.326 32.6362C179.701 33.5802 179.888 34.6748 179.888 35.9199V43H176.287V36.5059C176.287 35.7165 176.173 35.0125 175.945 34.394C175.725 33.7674 175.412 33.2425 175.005 32.8193C174.606 32.388 174.126 32.0625 173.564 31.8428C173.011 31.6149 172.401 31.501 171.733 31.501C171.367 31.501 170.993 31.5376 170.61 31.6108C170.228 31.6759 169.854 31.7817 169.487 31.9282C169.129 32.0747 168.792 32.2619 168.474 32.4897C168.157 32.7095 167.88 32.9699 167.644 33.271V43H164.043V36.5059C164.043 35.7165 163.929 35.0125 163.701 34.394C163.481 33.7674 163.168 33.2425 162.761 32.8193C162.362 32.388 161.878 32.0625 161.309 31.8428C160.747 31.6149 160.129 31.501 159.453 31.501C159.038 31.501 158.619 31.5457 158.196 31.6353C157.781 31.7166 157.378 31.8346 156.987 31.9893C156.605 32.1439 156.243 32.3311 155.901 32.5508C155.567 32.7705 155.266 33.0187 154.998 33.2954V43H151.384V28.5957ZM186.757 38.459C186.757 37.7673 186.908 37.1366 187.209 36.5669C187.51 35.9972 187.962 35.509 188.564 35.1021C189.166 34.687 189.915 34.3696 190.81 34.1499C191.713 33.922 192.763 33.8081 193.959 33.8081C194.847 33.8081 195.778 33.8732 196.755 34.0034C197.74 34.1336 198.753 34.333 199.794 34.6016C199.754 34.1458 199.615 33.7267 199.379 33.3442C199.143 32.9536 198.814 32.62 198.391 32.3433C197.976 32.0584 197.471 31.8387 196.877 31.6841C196.291 31.5295 195.624 31.4521 194.875 31.4521C194.468 31.4521 194.021 31.4766 193.532 31.5254C193.044 31.5742 192.539 31.6475 192.019 31.7451C191.498 31.8428 190.981 31.9648 190.468 32.1113C189.964 32.2578 189.492 32.4328 189.052 32.6362L187.954 29.6699C188.499 29.4746 189.081 29.2956 189.699 29.1328C190.326 28.9701 190.965 28.8317 191.616 28.7178C192.267 28.5957 192.918 28.5021 193.569 28.437C194.22 28.3719 194.851 28.3394 195.461 28.3394C198.155 28.3394 200.157 29.027 201.467 30.4023C202.777 31.7777 203.432 33.8854 203.432 36.7256V43H199.819V41.645C199.444 41.8647 199.034 42.0723 198.586 42.2676C198.146 42.4629 197.666 42.6338 197.146 42.7803C196.625 42.9268 196.063 43.0407 195.461 43.1221C194.867 43.2116 194.236 43.2563 193.569 43.2563C192.446 43.2563 191.457 43.1343 190.603 42.8901C189.756 42.646 189.048 42.3083 188.479 41.877C187.909 41.4456 187.478 40.9411 187.185 40.3633C186.9 39.7773 186.757 39.1426 186.757 38.459ZM190.566 38.3369C190.566 38.5729 190.627 38.8008 190.749 39.0205C190.871 39.2321 191.066 39.4233 191.335 39.5942C191.604 39.757 191.945 39.8913 192.36 39.9971C192.784 40.0947 193.292 40.1436 193.886 40.1436C194.521 40.1436 195.135 40.0866 195.729 39.9727C196.324 39.8587 196.877 39.7082 197.39 39.521C197.902 39.3338 198.366 39.1182 198.781 38.874C199.196 38.6299 199.542 38.3776 199.819 38.1172V37.4824C199.265 37.3278 198.716 37.1976 198.171 37.0918C197.634 36.986 197.117 36.9046 196.621 36.8477C196.132 36.7826 195.668 36.7378 195.229 36.7134C194.798 36.689 194.419 36.6768 194.094 36.6768C193.418 36.6768 192.857 36.7215 192.409 36.811C191.962 36.9006 191.599 37.0226 191.323 37.1772C191.046 37.3237 190.851 37.4987 190.737 37.7021C190.623 37.9056 190.566 38.1172 190.566 38.3369ZM213.122 26.6304C212.764 26.6304 212.438 26.5815 212.145 26.4839C211.86 26.3781 211.616 26.2397 211.413 26.0688C211.209 25.8898 211.05 25.6864 210.937 25.4585C210.831 25.2225 210.778 24.9743 210.778 24.7139C210.778 24.4453 210.831 24.1971 210.937 23.9692C211.05 23.7332 211.209 23.5298 211.413 23.3589C211.616 23.188 211.86 23.0537 212.145 22.9561C212.438 22.8503 212.764 22.7974 213.122 22.7974C213.488 22.7974 213.813 22.8503 214.098 22.9561C214.391 23.0537 214.639 23.188 214.843 23.3589C215.046 23.5298 215.201 23.7332 215.307 23.9692C215.421 24.1971 215.478 24.4453 215.478 24.7139C215.478 24.9743 215.421 25.2225 215.307 25.4585C215.201 25.6864 215.046 25.8898 214.843 26.0688C214.639 26.2397 214.391 26.3781 214.098 26.4839C213.813 26.5815 213.488 26.6304 213.122 26.6304ZM211.315 28.5957H214.928V43H211.315V28.5957ZM222.665 22.7485H226.278V43H222.665V22.7485ZM233.99 40.8882C233.99 40.5627 234.055 40.2575 234.185 39.9727C234.323 39.6797 234.519 39.4274 234.771 39.2158C235.023 38.9961 235.328 38.8252 235.687 38.7031C236.045 38.5811 236.447 38.52 236.895 38.52C237.343 38.52 237.745 38.5811 238.104 38.7031C238.462 38.8252 238.763 38.9961 239.007 39.2158C239.259 39.4274 239.45 39.6797 239.581 39.9727C239.719 40.2575 239.788 40.5627 239.788 40.8882C239.788 41.2137 239.719 41.5229 239.581 41.8159C239.45 42.1007 239.259 42.349 239.007 42.5605C238.763 42.7721 238.462 42.939 238.104 43.061C237.745 43.1912 237.343 43.2563 236.895 43.2563C236.447 43.2563 236.045 43.1912 235.687 43.061C235.328 42.939 235.023 42.7721 234.771 42.5605C234.519 42.349 234.323 42.1007 234.185 41.8159C234.055 41.5229 233.99 41.2137 233.99 40.8882ZM247.463 40.8882C247.463 40.5627 247.528 40.2575 247.659 39.9727C247.797 39.6797 247.992 39.4274 248.245 39.2158C248.497 38.9961 248.802 38.8252 249.16 38.7031C249.518 38.5811 249.921 38.52 250.369 38.52C250.816 38.52 251.219 38.5811 251.577 38.7031C251.935 38.8252 252.236 38.9961 252.48 39.2158C252.733 39.4274 252.924 39.6797 253.054 39.9727C253.193 40.2575 253.262 40.5627 253.262 40.8882C253.262 41.2137 253.193 41.5229 253.054 41.8159C252.924 42.1007 252.733 42.349 252.48 42.5605C252.236 42.7721 251.935 42.939 251.577 43.061C251.219 43.1912 250.816 43.2563 250.369 43.2563C249.921 43.2563 249.518 43.1912 249.16 43.061C248.802 42.939 248.497 42.7721 248.245 42.5605C247.992 42.349 247.797 42.1007 247.659 41.8159C247.528 41.5229 247.463 41.2137 247.463 40.8882ZM260.937 40.8882C260.937 40.5627 261.002 40.2575 261.132 39.9727C261.271 39.6797 261.466 39.4274 261.718 39.2158C261.971 38.9961 262.276 38.8252 262.634 38.7031C262.992 38.5811 263.395 38.52 263.842 38.52C264.29 38.52 264.693 38.5811 265.051 38.7031C265.409 38.8252 265.71 38.9961 265.954 39.2158C266.206 39.4274 266.398 39.6797 266.528 39.9727C266.666 40.2575 266.735 40.5627 266.735 40.8882C266.735 41.2137 266.666 41.5229 266.528 41.8159C266.398 42.1007 266.206 42.349 265.954 42.5605C265.71 42.7721 265.409 42.939 265.051 43.061C264.693 43.1912 264.29 43.2563 263.842 43.2563C263.395 43.2563 262.992 43.1912 262.634 43.061C262.276 42.939 261.971 42.7721 261.718 42.5605C261.466 42.349 261.271 42.1007 261.132 41.8159C261.002 41.5229 260.937 41.2137 260.937 40.8882Z" fill="#C4C4C4"/>
<line x1="29" y1="50" x2="269" y2="50" stroke="#C4C4C4" stroke-width="2"/>
<defs>
<filter id="filter0_i_309_133" x="0" y="0" width="681" height="77" filterUnits="userSpaceOnUse" color-interpolation-filters="sRGB">
<feFlood flood-opacity="0" result="BackgroundImageFix"/>
<feBlend mode="normal" in="SourceGraphic" in2="BackgroundImageFix" result="shape"/>
<feColorMatrix in="SourceAlpha" type="matrix" values="0 0 0 0 0 0 0 0 0 0 0 0 0 0 0 0 0 0 127 0" result="hardAlpha"/>
<feOffset dy="4"/>
<feGaussianBlur stdDeviation="2"/>
<feComposite in2="hardAlpha" operator="arithmetic" k2="-1" k3="1"/>
<feColorMatrix type="matrix" values="0 0 0 0 0 0 0 0 0 0 0 0 0 0 0 0 0 0 0.25 0"/>
<feBlend mode="normal" in2="shape" result="effect1_innerShadow_309_133"/>
</filter>
</defs>
</svg>
