<svg width="681" height="74" viewBox="0 0 681 74" fill="none" xmlns="http://www.w3.org/2000/svg">
<g filter="url(#filter0_i_147_2146)">
<rect y="0.528809" width="681" height="73" rx="10" fill="#F5F5F5"/>
</g>
<rect x="0.5" y="1.02881" width="680" height="72" rx="9.5" stroke="#E1F0D3"/>
<path d="M30.9795 45.3354C31.3538 45.5796 31.7607 45.7952 32.2002 45.9824C32.6396 46.1696 33.0954 46.3242 33.5674 46.4463C34.0475 46.5684 34.5358 46.6579 35.0322 46.7148C35.5286 46.7799 36.021 46.8125 36.5093 46.8125C38.1694 46.8125 39.4471 46.4544 40.3423 45.7383C41.2456 45.0303 41.6973 43.9642 41.6973 42.54V42.0518C41.3799 42.2715 41.0218 42.4749 40.623 42.6621C40.2324 42.8411 39.8092 42.9958 39.3535 43.126C38.9059 43.2562 38.4299 43.3579 37.9253 43.4312C37.4289 43.4963 36.9243 43.5288 36.4116 43.5288C35.313 43.5288 34.3283 43.3701 33.4575 43.0527C32.5949 42.7272 31.8625 42.2552 31.2603 41.6367C30.6662 41.0101 30.2104 40.241 29.8931 39.3296C29.5757 38.4181 29.417 37.3765 29.417 36.2046V29.1245H33.0181V35.2036C33.0181 36.9451 33.3477 38.231 34.0068 39.061C34.6742 39.883 35.724 40.2939 37.1562 40.2939C38.1654 40.2939 39.0565 40.119 39.8296 39.769C40.6108 39.411 41.2334 38.9552 41.6973 38.4019V29.1245H45.3105V41.8809C45.3105 43.2562 45.1152 44.4484 44.7246 45.4575C44.334 46.4748 43.7643 47.3171 43.0156 47.9844C42.2751 48.6517 41.3636 49.1481 40.2812 49.4736C39.1989 49.8073 37.9701 49.9741 36.5947 49.9741C35.252 49.9741 33.9987 49.8317 32.835 49.5469C31.6712 49.262 30.6051 48.8755 29.6367 48.3872L30.9795 45.3354ZM52.1191 36.3267C52.1191 35.2931 52.3267 34.3247 52.7417 33.4214C53.1649 32.5181 53.763 31.7287 54.5361 31.0532C55.3174 30.3778 56.2573 29.8447 57.356 29.4541C58.4627 29.0635 59.7038 28.8682 61.0791 28.8682C62.4544 28.8682 63.6914 29.0635 64.79 29.4541C65.8968 29.8447 66.8368 30.3778 67.6099 31.0532C68.3911 31.7287 68.9893 32.5181 69.4043 33.4214C69.8275 34.3247 70.0391 35.2931 70.0391 36.3267C70.0391 37.3602 69.8275 38.3286 69.4043 39.2319C68.9893 40.1353 68.3911 40.9246 67.6099 41.6001C66.8368 42.2756 65.8968 42.8086 64.79 43.1992C63.6914 43.5898 62.4544 43.7852 61.0791 43.7852C59.7038 43.7852 58.4627 43.5898 57.356 43.1992C56.2573 42.8086 55.3174 42.2756 54.5361 41.6001C53.763 40.9246 53.1649 40.1353 52.7417 39.2319C52.3267 38.3286 52.1191 37.3602 52.1191 36.3267ZM55.9155 36.3267C55.9155 36.9045 56.0295 37.4538 56.2573 37.9746C56.4933 38.4873 56.8311 38.943 57.2705 39.3418C57.7181 39.7324 58.2593 40.0457 58.894 40.2817C59.5369 40.5096 60.2653 40.6235 61.0791 40.6235C61.8929 40.6235 62.6172 40.5096 63.252 40.2817C63.8949 40.0457 64.436 39.7324 64.8755 39.3418C65.3231 38.943 65.6608 38.4873 65.8887 37.9746C66.1247 37.4538 66.2427 36.9045 66.2427 36.3267C66.2427 35.7489 66.1247 35.1995 65.8887 34.6787C65.6608 34.1579 65.3231 33.7021 64.8755 33.3115C64.436 32.9128 63.8949 32.5994 63.252 32.3716C62.6172 32.1356 61.8929 32.0176 61.0791 32.0176C60.2653 32.0176 59.5369 32.1356 58.894 32.3716C58.2593 32.5994 57.7181 32.9128 57.2705 33.3115C56.8311 33.7021 56.4933 34.1579 56.2573 34.6787C56.0295 35.1995 55.9155 35.7489 55.9155 36.3267ZM76.689 29.1123H80.29V36.1436C80.29 36.8109 80.3633 37.4212 80.5098 37.9746C80.6562 38.5199 80.9045 38.9878 81.2544 39.3784C81.6125 39.769 82.0845 40.0742 82.6704 40.2939C83.2645 40.5055 84.001 40.6113 84.8799 40.6113C85.2949 40.6113 85.714 40.5666 86.1372 40.4771C86.5685 40.3875 86.9795 40.2655 87.3701 40.1108C87.7607 39.9481 88.1229 39.7568 88.4565 39.5371C88.7983 39.3174 89.0913 39.0773 89.3354 38.8169V29.1123H92.9487V43.5288H89.3354V42.2959C88.4484 42.8249 87.5573 43.2033 86.6621 43.4312C85.7669 43.659 84.9165 43.7729 84.1108 43.7729C82.7925 43.7729 81.6613 43.6143 80.7173 43.2969C79.7814 42.9795 79.0124 42.5197 78.4102 41.9175C77.8161 41.3071 77.3807 40.5625 77.104 39.6836C76.8273 38.7965 76.689 37.7874 76.689 36.6562V29.1123ZM100.539 29.1245H104.152V31.1997C104.949 30.6056 105.792 30.0929 106.679 29.6616C107.566 29.2303 108.449 28.9007 109.328 28.6729L110.39 31.981C108.998 32.1193 107.773 32.4326 106.715 32.9209C105.666 33.401 104.811 34.0806 104.152 34.9595V43.5288H100.539V29.1245ZM126.705 36.2778C126.705 35.3013 126.904 34.3695 127.303 33.4824C127.701 32.5872 128.275 31.7979 129.024 31.1143C129.773 30.4307 130.688 29.8854 131.771 29.4785C132.861 29.0716 134.098 28.8682 135.481 28.8682C136.857 28.8682 138.094 29.0757 139.192 29.4907C140.299 29.8976 141.235 30.4591 142 31.1753C142.773 31.8914 143.363 32.7337 143.77 33.7021C144.185 34.6706 144.393 35.7082 144.393 36.8149C144.393 36.9533 144.389 37.1038 144.38 37.2666C144.38 37.4212 144.372 37.5636 144.356 37.6938H130.733C130.888 38.1252 131.136 38.5199 131.478 38.8779C131.827 39.236 132.263 39.5452 132.784 39.8057C133.305 40.0661 133.907 40.2695 134.59 40.416C135.274 40.5544 136.031 40.6235 136.861 40.6235C137.691 40.6235 138.517 40.5381 139.339 40.3672C140.161 40.1882 140.946 39.9644 141.695 39.6958L142.916 42.4546C142.444 42.6743 141.963 42.8696 141.475 43.0405C140.995 43.2033 140.49 43.3416 139.961 43.4556C139.441 43.5614 138.891 43.6427 138.313 43.6997C137.744 43.7567 137.142 43.7852 136.507 43.7852C134.887 43.7852 133.467 43.5898 132.247 43.1992C131.026 42.8086 130.005 42.2756 129.183 41.6001C128.361 40.9246 127.742 40.1312 127.327 39.2197C126.912 38.3083 126.705 37.3276 126.705 36.2778ZM140.56 34.874C140.429 34.4753 140.226 34.105 139.949 33.7632C139.681 33.4132 139.343 33.1121 138.936 32.8599C138.529 32.5994 138.057 32.396 137.52 32.2495C136.983 32.103 136.393 32.0298 135.75 32.0298C135.066 32.0298 134.444 32.1071 133.882 32.2617C133.321 32.4163 132.828 32.6239 132.405 32.8843C131.982 33.1447 131.628 33.4458 131.343 33.7876C131.067 34.1294 130.863 34.4915 130.733 34.874H140.56ZM151.384 29.1245H154.998V30.3452C155.901 29.7918 156.78 29.4093 157.634 29.1978C158.497 28.978 159.339 28.8682 160.161 28.8682C161.309 28.8682 162.362 29.0513 163.323 29.4175C164.283 29.7837 165.105 30.3371 165.789 31.0776C166.318 30.6707 166.838 30.3289 167.351 30.0522C167.864 29.7674 168.376 29.5396 168.889 29.3687C169.402 29.1896 169.923 29.0635 170.452 28.9902C170.981 28.9089 171.526 28.8682 172.087 28.8682C173.267 28.8682 174.338 29.0309 175.298 29.3564C176.258 29.6738 177.076 30.1499 177.751 30.7847C178.435 31.4194 178.96 32.2129 179.326 33.165C179.701 34.109 179.888 35.2036 179.888 36.4487V43.5288H176.287V37.0347C176.287 36.2453 176.173 35.5413 175.945 34.9229C175.725 34.2962 175.412 33.7713 175.005 33.3481C174.606 32.9168 174.126 32.5913 173.564 32.3716C173.011 32.1437 172.401 32.0298 171.733 32.0298C171.367 32.0298 170.993 32.0664 170.61 32.1396C170.228 32.2048 169.854 32.3105 169.487 32.457C169.129 32.6035 168.792 32.7907 168.474 33.0186C168.157 33.2383 167.88 33.4987 167.644 33.7998V43.5288H164.043V37.0347C164.043 36.2453 163.929 35.5413 163.701 34.9229C163.481 34.2962 163.168 33.7713 162.761 33.3481C162.362 32.9168 161.878 32.5913 161.309 32.3716C160.747 32.1437 160.129 32.0298 159.453 32.0298C159.038 32.0298 158.619 32.0745 158.196 32.1641C157.781 32.2454 157.378 32.3634 156.987 32.5181C156.605 32.6727 156.243 32.8599 155.901 33.0796C155.567 33.2993 155.266 33.5475 154.998 33.8242V43.5288H151.384V29.1245ZM186.757 38.9878C186.757 38.2961 186.908 37.6654 187.209 37.0957C187.51 36.526 187.962 36.0378 188.564 35.6309C189.166 35.2158 189.915 34.8984 190.81 34.6787C191.713 34.4508 192.763 34.3369 193.959 34.3369C194.847 34.3369 195.778 34.402 196.755 34.5322C197.74 34.6624 198.753 34.8618 199.794 35.1304C199.754 34.6746 199.615 34.2555 199.379 33.873C199.143 33.4824 198.814 33.1488 198.391 32.8721C197.976 32.5872 197.471 32.3675 196.877 32.2129C196.291 32.0583 195.624 31.981 194.875 31.981C194.468 31.981 194.021 32.0054 193.532 32.0542C193.044 32.103 192.539 32.1763 192.019 32.2739C191.498 32.3716 190.981 32.4937 190.468 32.6401C189.964 32.7866 189.492 32.9616 189.052 33.165L187.954 30.1987C188.499 30.0034 189.081 29.8244 189.699 29.6616C190.326 29.4989 190.965 29.3605 191.616 29.2466C192.267 29.1245 192.918 29.0309 193.569 28.9658C194.22 28.9007 194.851 28.8682 195.461 28.8682C198.155 28.8682 200.157 29.5558 201.467 30.9312C202.777 32.3065 203.432 34.4142 203.432 37.2544V43.5288H199.819V42.1738C199.444 42.3936 199.034 42.6011 198.586 42.7964C198.146 42.9917 197.666 43.1626 197.146 43.3091C196.625 43.4556 196.063 43.5695 195.461 43.6509C194.867 43.7404 194.236 43.7852 193.569 43.7852C192.446 43.7852 191.457 43.6631 190.603 43.4189C189.756 43.1748 189.048 42.8371 188.479 42.4058C187.909 41.9744 187.478 41.4699 187.185 40.8921C186.9 40.3062 186.757 39.6714 186.757 38.9878ZM190.566 38.8657C190.566 39.1017 190.627 39.3296 190.749 39.5493C190.871 39.7609 191.066 39.9521 191.335 40.123C191.604 40.2858 191.945 40.4201 192.36 40.5259C192.784 40.6235 193.292 40.6724 193.886 40.6724C194.521 40.6724 195.135 40.6154 195.729 40.5015C196.324 40.3875 196.877 40.237 197.39 40.0498C197.902 39.8626 198.366 39.647 198.781 39.4028C199.196 39.1587 199.542 38.9064 199.819 38.646V38.0112C199.265 37.8566 198.716 37.7264 198.171 37.6206C197.634 37.5148 197.117 37.4334 196.621 37.3765C196.132 37.3114 195.668 37.2666 195.229 37.2422C194.798 37.2178 194.419 37.2056 194.094 37.2056C193.418 37.2056 192.857 37.2503 192.409 37.3398C191.962 37.4294 191.599 37.5514 191.323 37.7061C191.046 37.8525 190.851 38.0275 190.737 38.231C190.623 38.4344 190.566 38.646 190.566 38.8657ZM213.122 27.1592C212.764 27.1592 212.438 27.1104 212.145 27.0127C211.86 26.9069 211.616 26.7686 211.413 26.5977C211.209 26.4186 211.05 26.2152 210.937 25.9873C210.831 25.7513 210.778 25.5031 210.778 25.2427C210.778 24.9741 210.831 24.7259 210.937 24.498C211.05 24.262 211.209 24.0586 211.413 23.8877C211.616 23.7168 211.86 23.5825 212.145 23.4849C212.438 23.3791 212.764 23.3262 213.122 23.3262C213.488 23.3262 213.813 23.3791 214.098 23.4849C214.391 23.5825 214.639 23.7168 214.843 23.8877C215.046 24.0586 215.201 24.262 215.307 24.498C215.421 24.7259 215.478 24.9741 215.478 25.2427C215.478 25.5031 215.421 25.7513 215.307 25.9873C215.201 26.2152 215.046 26.4186 214.843 26.5977C214.639 26.7686 214.391 26.9069 214.098 27.0127C213.813 27.1104 213.488 27.1592 213.122 27.1592ZM211.315 29.1245H214.928V43.5288H211.315V29.1245ZM222.665 23.2773H226.278V43.5288H222.665V23.2773ZM233.99 41.417C233.99 41.0915 234.055 40.7863 234.185 40.5015C234.323 40.2085 234.519 39.9562 234.771 39.7446C235.023 39.5249 235.328 39.354 235.687 39.2319C236.045 39.1099 236.447 39.0488 236.895 39.0488C237.343 39.0488 237.745 39.1099 238.104 39.2319C238.462 39.354 238.763 39.5249 239.007 39.7446C239.259 39.9562 239.45 40.2085 239.581 40.5015C239.719 40.7863 239.788 41.0915 239.788 41.417C239.788 41.7425 239.719 42.0518 239.581 42.3447C239.45 42.6296 239.259 42.8778 239.007 43.0894C238.763 43.3009 238.462 43.4678 238.104 43.5898C237.745 43.7201 237.343 43.7852 236.895 43.7852C236.447 43.7852 236.045 43.7201 235.687 43.5898C235.328 43.4678 235.023 43.3009 234.771 43.0894C234.519 42.8778 234.323 42.6296 234.185 42.3447C234.055 42.0518 233.99 41.7425 233.99 41.417ZM247.463 41.417C247.463 41.0915 247.528 40.7863 247.659 40.5015C247.797 40.2085 247.992 39.9562 248.245 39.7446C248.497 39.5249 248.802 39.354 249.16 39.2319C249.518 39.1099 249.921 39.0488 250.369 39.0488C250.816 39.0488 251.219 39.1099 251.577 39.2319C251.935 39.354 252.236 39.5249 252.48 39.7446C252.733 39.9562 252.924 40.2085 253.054 40.5015C253.193 40.7863 253.262 41.0915 253.262 41.417C253.262 41.7425 253.193 42.0518 253.054 42.3447C252.924 42.6296 252.733 42.8778 252.48 43.0894C252.236 43.3009 251.935 43.4678 251.577 43.5898C251.219 43.7201 250.816 43.7852 250.369 43.7852C249.921 43.7852 249.518 43.7201 249.16 43.5898C248.802 43.4678 248.497 43.3009 248.245 43.0894C247.992 42.8778 247.797 42.6296 247.659 42.3447C247.528 42.0518 247.463 41.7425 247.463 41.417ZM260.937 41.417C260.937 41.0915 261.002 40.7863 261.132 40.5015C261.271 40.2085 261.466 39.9562 261.718 39.7446C261.971 39.5249 262.276 39.354 262.634 39.2319C262.992 39.1099 263.395 39.0488 263.842 39.0488C264.29 39.0488 264.693 39.1099 265.051 39.2319C265.409 39.354 265.71 39.5249 265.954 39.7446C266.206 39.9562 266.398 40.2085 266.528 40.5015C266.666 40.7863 266.735 41.0915 266.735 41.417C266.735 41.7425 266.666 42.0518 266.528 42.3447C266.398 42.6296 266.206 42.8778 265.954 43.0894C265.71 43.3009 265.409 43.4678 265.051 43.5898C264.693 43.7201 264.29 43.7852 263.842 43.7852C263.395 43.7852 262.992 43.7201 262.634 43.5898C262.276 43.4678 261.971 43.3009 261.718 43.0894C261.466 42.8778 261.271 42.6296 261.132 42.3447C261.002 42.0518 260.937 41.7425 260.937 41.417Z" fill="#C4C4C4"/>
<line x1="29" y1="50.5288" x2="269" y2="50.5288" stroke="#C4C4C4" stroke-width="2"/>
<path fill-rule="evenodd" clip-rule="evenodd" d="M634.51 22.547C634.502 22.6344 634.863 23.0751 635.312 23.5262C635.907 24.1246 635.968 24.2754 635.537 24.0833C633.638 23.2375 633.713 23.2462 634.256 23.9376C634.527 24.2815 634.737 24.6957 634.723 24.8575C634.71 25.0192 637.195 27.7783 640.246 30.9887C643.297 34.1988 645.734 36.892 645.662 36.9734C645.59 37.0543 642.151 36.8874 638.02 36.6017C633.888 36.3164 629.579 36.194 628.444 36.3299C614.459 38.0056 611.133 38.1789 598.333 37.901C588.115 37.6792 586.814 37.8456 586.98 39.3517C587.037 39.8758 587.286 40.1356 587.775 40.1821L588.487 40.2501L587.767 40.7138C587.106 41.1393 587.293 41.2028 590.017 41.4799C592.955 41.7789 592.965 41.7829 590.894 41.8332C588.811 41.8836 587.638 42.3161 589.138 42.4806C589.838 42.5575 589.862 42.6004 589.355 42.8669C587.794 43.6892 609.249 44.0051 616.499 43.2666C623.767 42.526 628.817 42.2717 634.95 42.3378C638.545 42.3765 641.646 42.4951 641.842 42.6014C642.038 42.7074 641.313 43.1033 640.233 43.4807C637.017 44.6045 633.466 46.828 630.888 49.332C630.147 50.0514 630.148 50.0515 631.228 49.3433C632.899 48.2475 632.492 48.7925 630.064 50.9053C628.672 52.1157 627.958 52.9383 628.142 53.1171C628.304 53.2735 628.343 53.5644 628.23 53.7636C628.117 53.9624 629.538 53.2772 631.388 52.2402C633.743 50.9202 635.837 50.0612 638.374 49.375C640.367 48.836 643.007 48.0516 644.24 47.6318C645.474 47.2116 646.98 46.8008 647.586 46.7186C650.017 46.3883 651.793 44.9041 652.672 42.4682C653.126 41.2083 653.121 41.0775 652.587 40.2461C651.784 38.9961 641.266 27.2856 640.107 26.3516C638.622 25.1539 634.525 22.369 634.51 22.547Z" fill="#4660BF"/>
<defs>
<filter id="filter0_i_147_2146" x="0" y="0.528809" width="681" height="77" filterUnits="userSpaceOnUse" color-interpolation-filters="sRGB">
<feFlood flood-opacity="0" result="BackgroundImageFix"/>
<feBlend mode="normal" in="SourceGraphic" in2="BackgroundImageFix" result="shape"/>
<feColorMatrix in="SourceAlpha" type="matrix" values="0 0 0 0 0 0 0 0 0 0 0 0 0 0 0 0 0 0 127 0" result="hardAlpha"/>
<feOffset dy="4"/>
<feGaussianBlur stdDeviation="2"/>
<feComposite in2="hardAlpha" operator="arithmetic" k2="-1" k3="1"/>
<feColorMatrix type="matrix" values="0 0 0 0 0 0 0 0 0 0 0 0 0 0 0 0 0 0 0.25 0"/>
<feBlend mode="normal" in2="shape" result="effect1_innerShadow_147_2146"/>
</filter>
</defs>
</svg>
