<svg width="67" height="32" viewBox="0 0 67 32" fill="none" xmlns="http://www.w3.org/2000/svg">
<path fill-rule="evenodd" clip-rule="evenodd" d="M48.5096 0.546996C48.5022 0.634378 48.8635 1.07511 49.3121 1.52622C49.9074 2.12457 49.9682 2.27536 49.5374 2.08331C47.6381 1.23751 47.7125 1.24616 48.2561 1.93755C48.5266 2.28152 48.7368 2.6957 48.7232 2.85746C48.7095 3.01922 51.1945 5.77825 54.2455 8.98873C57.2966 12.1988 59.7338 14.892 59.6621 14.9734C59.5902 15.0543 56.1511 14.8874 52.0197 14.6017C47.8882 14.3164 43.5793 14.194 42.4444 14.3299C28.4589 16.0056 25.1333 16.1789 12.3331 15.901C2.11526 15.6792 0.814099 15.8456 0.979808 17.3517C1.03745 17.8758 1.28624 18.1356 1.77528 18.1821L2.48665 18.2501L1.76664 18.7138C1.10624 19.1393 1.29289 19.2028 4.01699 19.4799C6.95521 19.7789 6.96468 19.7829 4.89384 19.8332C2.81073 19.8836 1.638 20.3161 3.13812 20.4806C3.83811 20.5575 3.862 20.6004 3.35527 20.8669C1.79369 21.6892 23.2493 22.0051 30.4986 21.2666C37.7672 20.526 42.8171 20.2717 48.9498 20.3378C52.5448 20.3765 55.6464 20.4951 55.842 20.6014C56.0376 20.7074 55.3135 21.1033 54.2331 21.4807C51.0166 22.6045 47.4657 24.828 44.888 27.332C44.147 28.0514 44.1475 28.0515 45.2275 27.3433C46.8988 26.2475 46.4925 26.7925 44.0641 28.9053C42.6724 30.1157 41.9578 30.9383 42.1421 31.1171C42.3037 31.2735 42.3432 31.5644 42.2302 31.7636C42.1173 31.9624 43.5382 31.2772 45.3878 30.2402C47.7428 28.9202 49.8367 28.0612 52.3741 27.375C54.3668 26.836 57.0067 26.0516 58.2405 25.6318C59.4743 25.2116 60.9796 24.8008 61.5858 24.7186C64.0171 24.3883 65.7933 22.9041 66.6718 20.4682C67.1262 19.2083 67.1211 19.0775 66.5869 18.2461C65.7836 16.9961 55.2658 5.28558 54.1073 4.35157C52.6219 3.15393 48.5246 0.368983 48.5096 0.546996Z" fill="#4660BF"/>
</svg>
