<svg width="208" height="32" viewBox="0 0 208 32" fill="none" xmlns="http://www.w3.org/2000/svg">
<path d="M0.268555 10.5836H4.45557L8.20312 19.2506L9.17969 21.6798L10.1562 19.2506L13.9038 10.5836H18.0908L11.2671 25.0001H7.09229L0.268555 10.5836ZM25.522 8.63049C25.1639 8.63049 24.8384 8.58167 24.5454 8.48401C24.2606 8.37821 24.0164 8.23987 23.813 8.06897C23.6095 7.88993 23.4508 7.68648 23.3369 7.45862C23.2311 7.22262 23.1782 6.97441 23.1782 6.71399C23.1782 6.44543 23.2311 6.19722 23.3369 5.96936C23.4508 5.73336 23.6095 5.52991 23.813 5.35901C24.0164 5.18811 24.2606 5.05383 24.5454 4.95618C24.8384 4.85038 25.1639 4.79749 25.522 4.79749C25.8882 4.79749 26.2137 4.85038 26.4985 4.95618C26.7915 5.05383 27.0397 5.18811 27.2432 5.35901C27.4466 5.52991 27.6012 5.73336 27.707 5.96936C27.821 6.19722 27.8779 6.44543 27.8779 6.71399C27.8779 6.97441 27.821 7.22262 27.707 7.45862C27.6012 7.68648 27.4466 7.88993 27.2432 8.06897C27.0397 8.23987 26.7915 8.37821 26.4985 8.48401C26.2137 8.58167 25.8882 8.63049 25.522 8.63049ZM23.7153 10.5958H27.3286V25.0001H23.7153V10.5958ZM34.2837 17.7491C34.2837 16.7726 34.4831 15.8408 34.8818 14.9537C35.2806 14.0586 35.8543 13.2692 36.603 12.5856C37.3517 11.902 38.2673 11.3567 39.3496 10.9498C40.4401 10.5429 41.6771 10.3395 43.0605 10.3395C44.4359 10.3395 45.6729 10.547 46.7715 10.962C47.8783 11.3689 48.8141 11.9305 49.5791 12.6466C50.3522 13.3628 50.9422 14.205 51.3491 15.1735C51.7642 16.1419 51.9717 17.1795 51.9717 18.2863C51.9717 18.4246 51.9676 18.5752 51.9595 18.7379C51.9595 18.8925 51.9513 19.035 51.9351 19.1652H38.312C38.4666 19.5965 38.7148 19.9912 39.0566 20.3492C39.4066 20.7073 39.842 21.0166 40.3628 21.277C40.8836 21.5374 41.4858 21.7408 42.1694 21.8873C42.853 22.0257 43.6099 22.0948 44.4399 22.0948C45.27 22.0948 46.096 22.0094 46.918 21.8385C47.7399 21.6595 48.5252 21.4357 49.2739 21.1671L50.4946 23.9259C50.0226 24.1456 49.5425 24.3409 49.0542 24.5118C48.5741 24.6746 48.0695 24.8129 47.5405 24.9269C47.0197 25.0327 46.4704 25.1141 45.8926 25.171C45.3229 25.228 44.7207 25.2565 44.0859 25.2565C42.4665 25.2565 41.0464 25.0612 39.8257 24.6705C38.605 24.2799 37.5837 23.7469 36.7617 23.0714C35.9398 22.396 35.3213 21.6025 34.9062 20.691C34.4912 19.7796 34.2837 18.799 34.2837 17.7491ZM48.1387 16.3453C48.0085 15.9466 47.805 15.5763 47.5283 15.2345C47.2598 14.8846 46.922 14.5835 46.5151 14.3312C46.1082 14.0708 45.6362 13.8673 45.0991 13.7208C44.562 13.5743 43.972 13.5011 43.3291 13.5011C42.6455 13.5011 42.0229 13.5784 41.4614 13.733C40.8999 13.8877 40.4076 14.0952 39.9844 14.3556C39.5612 14.616 39.2072 14.9171 38.9224 15.2589C38.6457 15.6007 38.4422 15.9628 38.312 16.3453H48.1387ZM56.876 10.5836H61.063L64.8105 19.2506L65.9092 21.6798L67.252 18.5304L63.6875 10.5836H67.2031L68.9487 14.8561L70.6943 10.5836H74.21L70.6333 18.5304L71.9883 21.6798L73.0869 19.2506L76.8345 10.5836H81.0215L74.1978 25.0001H70.2671L68.9487 22.2169L67.6304 25.0001H63.6997L56.876 10.5836ZM97.1655 20.4591C97.1655 19.7674 97.3161 19.1367 97.6172 18.567C97.9183 17.9974 98.37 17.5091 98.9722 17.1022C99.5744 16.6871 100.323 16.3698 101.218 16.15C102.122 15.9222 103.171 15.8082 104.368 15.8082C105.255 15.8082 106.187 15.8733 107.163 16.0035C108.148 16.1337 109.161 16.3331 110.203 16.6017C110.162 16.146 110.024 15.7268 109.788 15.3444C109.552 14.9537 109.222 14.6201 108.799 14.3434C108.384 14.0586 107.879 13.8388 107.285 13.6842C106.699 13.5296 106.032 13.4523 105.283 13.4523C104.876 13.4523 104.429 13.4767 103.94 13.5255C103.452 13.5743 102.948 13.6476 102.427 13.7452C101.906 13.8429 101.389 13.965 100.876 14.1115C100.372 14.2579 99.8999 14.4329 99.4604 14.6364L98.3618 11.67C98.9071 11.4747 99.4889 11.2957 100.107 11.1329C100.734 10.9702 101.373 10.8318 102.024 10.7179C102.675 10.5958 103.326 10.5022 103.977 10.4371C104.628 10.372 105.259 10.3395 105.869 10.3395C108.563 10.3395 110.565 11.0271 111.875 12.4025C113.185 13.7778 113.84 15.8855 113.84 18.7257V25.0001H110.227V23.6451C109.853 23.8649 109.442 24.0724 108.994 24.2677C108.555 24.463 108.075 24.6339 107.554 24.7804C107.033 24.9269 106.471 25.0408 105.869 25.1222C105.275 25.2117 104.644 25.2565 103.977 25.2565C102.854 25.2565 101.865 25.1344 101.011 24.8903C100.164 24.6461 99.4564 24.3084 98.8867 23.8771C98.3171 23.4458 97.8857 22.9412 97.5928 22.3634C97.3079 21.7775 97.1655 21.1427 97.1655 20.4591ZM100.974 20.337C100.974 20.573 101.035 20.8009 101.157 21.0206C101.279 21.2322 101.475 21.4235 101.743 21.5944C102.012 21.7571 102.354 21.8914 102.769 21.9972C103.192 22.0948 103.7 22.1437 104.294 22.1437C104.929 22.1437 105.544 22.0867 106.138 21.9728C106.732 21.8588 107.285 21.7083 107.798 21.5211C108.311 21.3339 108.774 21.1183 109.189 20.8741C109.604 20.63 109.95 20.3777 110.227 20.1173V19.4825C109.674 19.3279 109.124 19.1977 108.579 19.0919C108.042 18.9861 107.525 18.9047 107.029 18.8478C106.541 18.7827 106.077 18.7379 105.637 18.7135C105.206 18.6891 104.827 18.6769 104.502 18.6769C103.826 18.6769 103.265 18.7216 102.817 18.8112C102.37 18.9007 102.008 19.0227 101.731 19.1774C101.454 19.3239 101.259 19.4988 101.145 19.7023C101.031 19.9057 100.974 20.1173 100.974 20.337ZM121.723 4.74866H125.336V25.0001H121.723V4.74866ZM133.073 4.74866H136.686V25.0001H133.073V4.74866Z" fill="#D05836"/>
<path fill-rule="evenodd" clip-rule="evenodd" d="M191.767 3.82931C191.761 3.9015 192.048 4.26471 192.405 4.6363C192.878 5.12917 192.926 5.25358 192.583 5.0959C191.07 4.40151 191.129 4.40849 191.561 4.97832C191.776 5.26181 191.943 5.60342 191.932 5.73705C191.92 5.87068 193.896 8.14392 196.323 10.7888C198.749 13.4333 200.687 15.6523 200.629 15.7196C200.572 15.7866 197.829 15.6563 194.533 15.4294C191.238 15.2027 187.801 15.111 186.895 15.2258C175.734 16.6403 173.08 16.7907 162.869 16.5891C154.718 16.4283 153.68 16.5685 153.808 17.812C153.853 18.2448 154.051 18.4588 154.441 18.4961L155.008 18.5507L154.433 18.9353C153.905 19.2882 154.054 19.3402 156.226 19.5631C158.57 19.8036 158.577 19.8069 156.925 19.853C155.263 19.8992 154.326 20.2589 155.523 20.3914C156.081 20.4534 156.1 20.4888 155.695 20.7101C154.447 21.3926 171.563 21.6066 177.348 20.9809C183.149 20.3534 187.178 20.1323 192.071 20.1735C194.939 20.1976 197.413 20.2888 197.568 20.3762C197.724 20.4633 197.146 20.7918 196.283 21.1059C193.714 22.041 190.876 23.8852 188.814 25.9588C188.221 26.5546 188.221 26.5547 189.084 25.9674C190.42 25.0587 190.095 25.5098 188.152 27.26C187.039 28.2627 186.467 28.9436 186.614 29.0909C186.742 29.2198 186.773 29.4599 186.683 29.6246C186.592 29.7891 187.727 29.2201 189.205 28.3596C191.087 27.2643 192.76 26.5503 194.786 25.978C196.377 25.5285 198.485 24.8749 199.47 24.5255C200.455 24.1758 201.657 23.8332 202.141 23.764C204.081 23.4859 205.502 22.2562 206.208 20.2425C206.574 19.201 206.57 19.0929 206.146 18.4075C205.508 17.3768 197.145 7.72813 196.223 6.95927C195.041 5.97339 191.779 3.68226 191.767 3.82931Z" fill="#D05836"/>
</svg>
