<svg width="131" height="26" viewBox="0 0 131 26" fill="none" xmlns="http://www.w3.org/2000/svg">
<path d="M0 25L126 25" stroke="#D05836" stroke-linejoin="bevel"/>
<path d="M113.105 12.7796L125.1 24.7744" stroke="#D05836" stroke-linejoin="bevel"/>
<path d="M1.17432 5.50977H3.05322V6.58887C3.46794 6.27995 3.90592 6.01335 4.36719 5.78906C4.82845 5.56478 5.2876 5.39339 5.74463 5.2749L6.29688 6.99512C5.57324 7.06706 4.93636 7.22998 4.38623 7.48389C3.84033 7.73356 3.396 8.08691 3.05322 8.54395V13H1.17432V5.50977ZM8.90424 9.22949C8.90424 8.72168 9.00792 8.23714 9.21527 7.77588C9.42263 7.31038 9.72097 6.8999 10.1103 6.54443C10.4996 6.18896 10.9757 5.90544 11.5385 5.69385C12.1056 5.48226 12.7488 5.37646 13.4682 5.37646C14.1834 5.37646 14.8266 5.48438 15.3979 5.7002C15.9734 5.91178 16.4601 6.20378 16.8579 6.57617C17.2599 6.94857 17.5667 7.38656 17.7783 7.89014C17.9941 8.39372 18.102 8.93327 18.102 9.50879C18.102 9.58073 18.0999 9.65902 18.0956 9.74365C18.0956 9.82406 18.0914 9.89811 18.0829 9.96582H10.999C11.0794 10.1901 11.2084 10.3953 11.3862 10.5815C11.5681 10.7677 11.7945 10.9285 12.0654 11.064C12.3362 11.1994 12.6494 11.3052 13.0048 11.3813C13.3603 11.4533 13.7538 11.4893 14.1855 11.4893C14.6171 11.4893 15.0467 11.4448 15.4741 11.356C15.9015 11.2629 16.3098 11.1465 16.6992 11.0068L17.3339 12.4414C17.0885 12.5557 16.8388 12.6572 16.5849 12.7461C16.3352 12.8307 16.0729 12.9027 15.7978 12.9619C15.527 13.0169 15.2413 13.0592 14.9409 13.0889C14.6446 13.1185 14.3315 13.1333 14.0014 13.1333C13.1593 13.1333 12.4208 13.0317 11.7861 12.8286C11.1513 12.6255 10.6202 12.3483 10.1928 11.9971C9.7654 11.6458 9.44379 11.2332 9.22797 10.7593C9.01215 10.2853 8.90424 9.77539 8.90424 9.22949ZM16.1088 8.49951C16.0411 8.29215 15.9353 8.09961 15.7914 7.92188C15.6518 7.73991 15.4762 7.58333 15.2646 7.45215C15.053 7.31673 14.8076 7.21094 14.5283 7.13477C14.249 7.05859 13.9422 7.02051 13.6079 7.02051C13.2524 7.02051 12.9287 7.06071 12.6367 7.14111C12.3447 7.22152 12.0886 7.32943 11.8686 7.46484C11.6485 7.60026 11.4645 7.75684 11.3163 7.93457C11.1725 8.1123 11.0667 8.30062 10.999 8.49951H16.1088ZM21.3314 10.6387C21.3314 10.279 21.4097 9.95101 21.5663 9.65479C21.7229 9.35856 21.9577 9.10465 22.2709 8.89307C22.584 8.67725 22.9734 8.51221 23.4388 8.39795C23.9086 8.27946 24.4545 8.22021 25.0765 8.22021C25.5378 8.22021 26.0223 8.25407 26.5302 8.32178C27.0422 8.38949 27.5691 8.49316 28.1107 8.63281C28.0896 8.39583 28.0176 8.1779 27.8949 7.979C27.7722 7.77588 27.6008 7.60238 27.3807 7.4585C27.1649 7.31038 26.9026 7.19613 26.5936 7.11572C26.2889 7.03532 25.9419 6.99512 25.5526 6.99512C25.341 6.99512 25.1083 7.00781 24.8544 7.0332C24.6005 7.05859 24.3381 7.09668 24.0673 7.14746C23.7964 7.19824 23.5277 7.26172 23.2611 7.33789C22.9987 7.41406 22.7533 7.50505 22.5248 7.61084L21.9535 6.06836C22.237 5.9668 22.5396 5.8737 22.8612 5.78906C23.1871 5.70443 23.5193 5.63249 23.8578 5.57324C24.1963 5.50977 24.5349 5.4611 24.8734 5.42725C25.212 5.39339 25.5399 5.37646 25.8573 5.37646C27.258 5.37646 28.299 5.73405 28.9804 6.44922C29.6617 7.16439 30.0023 8.26042 30.0023 9.7373V13H28.1234V12.2954C27.9288 12.4097 27.7151 12.5176 27.4823 12.6191C27.2538 12.7207 27.0041 12.8096 26.7333 12.8857C26.4624 12.9619 26.1705 13.0212 25.8573 13.0635C25.5484 13.11 25.2204 13.1333 24.8734 13.1333C24.2894 13.1333 23.7753 13.0698 23.3309 12.9429C22.8908 12.8159 22.5227 12.6403 22.2264 12.416C21.9302 12.1917 21.7059 11.9294 21.5536 11.6289C21.4055 11.3242 21.3314 10.9941 21.3314 10.6387ZM23.3119 10.5752C23.3119 10.6979 23.3436 10.8164 23.4071 10.9307C23.4706 11.0407 23.5721 11.1401 23.7118 11.229C23.8514 11.3136 24.0292 11.3835 24.245 11.4385C24.4651 11.4893 24.7295 11.5146 25.0385 11.5146C25.3685 11.5146 25.688 11.485 25.997 11.4258C26.3059 11.3665 26.5936 11.2882 26.8602 11.1909C27.1268 11.0936 27.368 10.9814 27.5839 10.8545C27.7997 10.7275 27.9795 10.5964 28.1234 10.4609V10.1309C27.8357 10.0505 27.55 9.98275 27.2665 9.92773C26.9872 9.87272 26.7185 9.8304 26.4603 9.80078C26.2064 9.76693 25.9652 9.74365 25.7367 9.73096C25.5124 9.71826 25.3156 9.71191 25.1464 9.71191C24.7951 9.71191 24.5031 9.73519 24.2704 9.78174C24.0376 9.82829 23.8493 9.89176 23.7054 9.97217C23.5616 10.0483 23.46 10.1393 23.4008 10.2451C23.3415 10.3509 23.3119 10.4609 23.3119 10.5752ZM33.473 9.28662C33.473 8.68994 33.5851 8.15251 33.8094 7.67432C34.0337 7.19189 34.3426 6.78141 34.7362 6.44287C35.1339 6.1001 35.6037 5.83773 36.1453 5.65576C36.6912 5.46956 37.2816 5.37646 37.9163 5.37646C38.1872 5.37646 38.4538 5.39339 38.7161 5.42725C38.9827 5.4611 39.2366 5.50765 39.4779 5.56689C39.7233 5.62614 39.9518 5.69808 40.1634 5.78271C40.3792 5.86312 40.5696 5.95199 40.7347 6.04932V2.46924H42.6136V13H40.7347V12.2954C40.5696 12.4097 40.375 12.5176 40.1507 12.6191C39.9264 12.7207 39.6852 12.8096 39.4271 12.8857C39.1689 12.9619 38.9002 13.0212 38.6209 13.0635C38.3459 13.11 38.0729 13.1333 37.8021 13.1333C37.1673 13.1333 36.5833 13.0402 36.0501 12.854C35.5211 12.6678 35.0662 12.4054 34.6854 12.0669C34.3045 11.7284 34.0062 11.3242 33.7904 10.8545C33.5788 10.3805 33.473 9.85791 33.473 9.28662ZM35.4471 9.28662C35.4471 9.58708 35.5063 9.87061 35.6248 10.1372C35.7475 10.4038 35.921 10.6387 36.1453 10.8418C36.3738 11.0407 36.6468 11.1994 36.9642 11.3179C37.2858 11.4321 37.6455 11.4893 38.0433 11.4893C38.2972 11.4893 38.5511 11.466 38.805 11.4194C39.0589 11.3687 39.3022 11.2988 39.535 11.21C39.772 11.1211 39.992 11.0132 40.1951 10.8862C40.4025 10.7593 40.5823 10.6175 40.7347 10.4609V7.86475C40.5443 7.7124 40.3432 7.58333 40.1317 7.47754C39.9201 7.37174 39.7043 7.28499 39.4842 7.21729C39.2641 7.14958 39.042 7.10091 38.8177 7.07129C38.5934 7.03743 38.3755 7.02051 38.1639 7.02051C37.7322 7.02051 37.3472 7.07975 37.0086 7.19824C36.6743 7.3125 36.3908 7.47119 36.158 7.67432C35.9295 7.87744 35.7539 8.11654 35.6312 8.3916C35.5085 8.66667 35.4471 8.96501 35.4471 9.28662ZM52.405 5.50977H54.2839V6.14453C54.7536 5.85677 55.2106 5.65788 55.655 5.54785C56.1035 5.43359 56.5415 5.37646 56.9689 5.37646C57.5656 5.37646 58.1136 5.47168 58.613 5.66211C59.1123 5.85254 59.5397 6.1403 59.8952 6.52539C60.1703 6.3138 60.4411 6.13607 60.7077 5.99219C60.9743 5.84408 61.2409 5.72559 61.5075 5.63672C61.7741 5.54362 62.045 5.47803 62.32 5.43994C62.5951 5.39762 62.8786 5.37646 63.1706 5.37646C63.7842 5.37646 64.3407 5.4611 64.84 5.63037C65.3394 5.79541 65.7647 6.04297 66.1159 6.37305C66.4714 6.70312 66.7443 7.11572 66.9348 7.61084C67.1294 8.10173 67.2268 8.6709 67.2268 9.31836V13H65.3542V9.62305C65.3542 9.21257 65.295 8.84652 65.1765 8.5249C65.0622 8.19906 64.8993 7.92611 64.6877 7.70605C64.4803 7.48177 64.2307 7.3125 63.9387 7.19824C63.6509 7.07975 63.3335 7.02051 62.9865 7.02051C62.7961 7.02051 62.6014 7.03955 62.4025 7.07764C62.2036 7.11149 62.009 7.1665 61.8186 7.24268C61.6324 7.31885 61.4567 7.41618 61.2917 7.53467C61.1267 7.64893 60.9828 7.78434 60.8601 7.94092V13H58.9875V9.62305C58.9875 9.21257 58.9283 8.84652 58.8098 8.5249C58.6955 8.19906 58.5326 7.92611 58.321 7.70605C58.1136 7.48177 57.8618 7.3125 57.5656 7.19824C57.2736 7.07975 56.952 7.02051 56.6008 7.02051C56.385 7.02051 56.167 7.04378 55.947 7.09033C55.7312 7.13265 55.5217 7.19401 55.3186 7.27441C55.1197 7.35482 54.9313 7.45215 54.7536 7.56641C54.5801 7.68066 54.4235 7.80973 54.2839 7.95361V13H52.405V5.50977ZM70.7038 9.25488C70.7038 8.71745 70.8117 8.21387 71.0275 7.74414C71.2475 7.27441 71.5586 6.86393 71.9606 6.5127C72.3668 6.16146 72.8556 5.88428 73.4269 5.68115C74.0024 5.47803 74.6478 5.37646 75.3629 5.37646C76.0781 5.37646 76.7213 5.47803 77.2926 5.68115C77.8681 5.88428 78.3569 6.16146 78.7589 6.5127C79.1652 6.86393 79.4762 7.27441 79.692 7.74414C79.9121 8.21387 80.0221 8.71745 80.0221 9.25488C80.0221 9.79232 79.9121 10.2959 79.692 10.7656C79.4762 11.2354 79.1652 11.6458 78.7589 11.9971C78.3569 12.3483 77.8681 12.6255 77.2926 12.8286C76.7213 13.0317 76.0781 13.1333 75.3629 13.1333C74.6478 13.1333 74.0024 13.0317 73.4269 12.8286C72.8556 12.6255 72.3668 12.3483 71.9606 11.9971C71.5586 11.6458 71.2475 11.2354 71.0275 10.7656C70.8117 10.2959 70.7038 9.79232 70.7038 9.25488ZM72.6779 9.25488C72.6779 9.55534 72.7371 9.84098 72.8556 10.1118C72.9783 10.3784 73.1539 10.6154 73.3825 10.8228C73.6152 11.0259 73.8966 11.1888 74.2267 11.3115C74.561 11.43 74.9398 11.4893 75.3629 11.4893C75.7861 11.4893 76.1627 11.43 76.4928 11.3115C76.8271 11.1888 77.1085 11.0259 77.3371 10.8228C77.5698 10.6154 77.7454 10.3784 77.8639 10.1118C77.9866 9.84098 78.048 9.55534 78.048 9.25488C78.048 8.95443 77.9866 8.66878 77.8639 8.39795C77.7454 8.12712 77.5698 7.89014 77.3371 7.68701C77.1085 7.47965 76.8271 7.31673 76.4928 7.19824C76.1627 7.07552 75.7861 7.01416 75.3629 7.01416C74.9398 7.01416 74.561 7.07552 74.2267 7.19824C73.8966 7.31673 73.6152 7.47965 73.3825 7.68701C73.1539 7.89014 72.9783 8.12712 72.8556 8.39795C72.7371 8.66878 72.6779 8.95443 72.6779 9.25488ZM83.4801 5.50977H85.359V6.58887C85.7737 6.27995 86.2117 6.01335 86.6729 5.78906C87.1342 5.56478 87.5933 5.39339 88.0504 5.2749L88.6026 6.99512C87.879 7.06706 87.2421 7.22998 86.692 7.48389C86.1461 7.73356 85.7017 8.08691 85.359 8.54395V13H83.4801V5.50977ZM91.21 9.22949C91.21 8.72168 91.3137 8.23714 91.521 7.77588C91.7284 7.31038 92.0267 6.8999 92.416 6.54443C92.8054 6.18896 93.2814 5.90544 93.8443 5.69385C94.4113 5.48226 95.0545 5.37646 95.7739 5.37646C96.4891 5.37646 97.1323 5.48438 97.7036 5.7002C98.2791 5.91178 98.7658 6.20378 99.1636 6.57617C99.5656 6.94857 99.8724 7.38656 100.084 7.89014C100.3 8.39372 100.408 8.93327 100.408 9.50879C100.408 9.58073 100.406 9.65902 100.401 9.74365C100.401 9.82406 100.397 9.89811 100.389 9.96582H93.3047C93.3851 10.1901 93.5142 10.3953 93.6919 10.5815C93.8739 10.7677 94.1003 10.9285 94.3711 11.064C94.6419 11.1994 94.9551 11.3052 95.3106 11.3813C95.666 11.4533 96.0596 11.4893 96.4912 11.4893C96.9229 11.4893 97.3524 11.4448 97.7798 11.356C98.2072 11.2629 98.6156 11.1465 99.0049 11.0068L99.6397 12.4414C99.3942 12.5557 99.1445 12.6572 98.8906 12.7461C98.641 12.8307 98.3786 12.9027 98.1035 12.9619C97.8327 13.0169 97.5471 13.0592 97.2466 13.0889C96.9504 13.1185 96.6372 13.1333 96.3071 13.1333C95.465 13.1333 94.7266 13.0317 94.0918 12.8286C93.457 12.6255 92.926 12.3483 92.4986 11.9971C92.0711 11.6458 91.7495 11.2332 91.5337 10.7593C91.3179 10.2853 91.21 9.77539 91.21 9.22949ZM98.4146 8.49951C98.3469 8.29215 98.2411 8.09961 98.0972 7.92188C97.9575 7.73991 97.7819 7.58333 97.5703 7.45215C97.3587 7.31673 97.1133 7.21094 96.834 7.13477C96.5547 7.05859 96.2479 7.02051 95.9136 7.02051C95.5581 7.02051 95.2344 7.06071 94.9424 7.14111C94.6504 7.22152 94.3944 7.32943 94.1743 7.46484C93.9543 7.60026 93.7702 7.75684 93.6221 7.93457C93.4782 8.1123 93.3724 8.30062 93.3047 8.49951H98.4146Z" fill="#D05836"/>
</svg>
