<svg width="115" height="34" viewBox="0 0 115 34" fill="none" xmlns="http://www.w3.org/2000/svg">
<rect width="114.854" height="33.7102" fill="#4660BF"/>
<path d="M37.4531 16.5156H35.875V14.7812H37.4531C37.4531 14.1562 37.5417 13.6016 37.7188 13.1172C37.8958 12.6276 38.151 12.2161 38.4844 11.8828C38.8229 11.5443 39.2318 11.2865 39.7109 11.1094C40.1953 10.9323 40.7396 10.8438 41.3438 10.8438C41.7656 10.8438 42.1797 10.8854 42.5859 10.9688C42.9922 11.0469 43.3516 11.1615 43.6641 11.3125L42.8438 13.2578C42.7188 13.1849 42.5417 13.1172 42.3125 13.0547C42.0885 12.9922 41.8411 12.9609 41.5703 12.9609C41.0391 12.9609 40.6094 13.112 40.2812 13.4141C39.9583 13.7109 39.7865 14.1667 39.7656 14.7812H42.6797V16.5156H39.7656V24H37.4531V16.5156ZM45.9434 21.0938C45.9434 20.651 46.0398 20.2474 46.2325 19.8828C46.4252 19.5182 46.7143 19.2057 47.0997 18.9453C47.4851 18.6797 47.9643 18.4766 48.5372 18.3359C49.1153 18.1901 49.7872 18.1172 50.5528 18.1172C51.1205 18.1172 51.7169 18.1589 52.3419 18.2422C52.9721 18.3255 53.6205 18.4531 54.2872 18.625C54.2611 18.3333 54.1726 18.0651 54.0216 17.8203C53.8705 17.5703 53.6596 17.3568 53.3888 17.1797C53.1231 16.9974 52.8002 16.8568 52.42 16.7578C52.045 16.6589 51.6179 16.6094 51.1388 16.6094C50.8783 16.6094 50.5919 16.625 50.2794 16.6562C49.9669 16.6875 49.644 16.7344 49.3106 16.7969C48.9773 16.8594 48.6466 16.9375 48.3184 17.0312C47.9955 17.125 47.6934 17.237 47.4122 17.3672L46.7091 15.4688C47.058 15.3438 47.4304 15.2292 47.8263 15.125C48.2273 15.0208 48.6361 14.9323 49.0528 14.8594C49.4695 14.7812 49.8861 14.7214 50.3028 14.6797C50.7195 14.638 51.1231 14.6172 51.5138 14.6172C53.2377 14.6172 54.519 15.0573 55.3575 15.9375C56.196 16.8177 56.6153 18.1667 56.6153 19.9844V24H54.3028V23.1328C54.0632 23.2734 53.8002 23.4062 53.5138 23.5312C53.2325 23.6562 52.9252 23.7656 52.5919 23.8594C52.2585 23.9531 51.8992 24.026 51.5138 24.0781C51.1335 24.1354 50.7299 24.1641 50.3028 24.1641C49.5841 24.1641 48.9513 24.0859 48.4044 23.9297C47.8627 23.7734 47.4096 23.5573 47.045 23.2812C46.6804 23.0052 46.4044 22.6823 46.2169 22.3125C46.0346 21.9375 45.9434 21.5312 45.9434 21.0938ZM48.3809 21.0156C48.3809 21.1667 48.42 21.3125 48.4981 21.4531C48.5763 21.5885 48.7013 21.7109 48.8731 21.8203C49.045 21.9245 49.2638 22.0104 49.5294 22.0781C49.8002 22.1406 50.1257 22.1719 50.5059 22.1719C50.9122 22.1719 51.3054 22.1354 51.6856 22.0625C52.0658 21.9896 52.42 21.8932 52.7481 21.7734C53.0763 21.6536 53.3731 21.5156 53.6388 21.3594C53.9044 21.2031 54.1257 21.0417 54.3028 20.875V20.4688C53.9486 20.3698 53.5971 20.2865 53.2481 20.2188C52.9044 20.151 52.5736 20.099 52.2559 20.0625C51.9434 20.0208 51.6466 19.9922 51.3653 19.9766C51.0893 19.9609 50.8471 19.9531 50.6388 19.9531C50.2065 19.9531 49.8471 19.9818 49.5606 20.0391C49.2742 20.0964 49.0424 20.1745 48.8653 20.2734C48.6882 20.3672 48.5632 20.4792 48.4903 20.6094C48.4174 20.7396 48.3809 20.875 48.3809 21.0156ZM62.8166 13.5234C62.5874 13.5234 62.3791 13.4922 62.1916 13.4297C62.0093 13.362 61.853 13.2734 61.7228 13.1641C61.5926 13.0495 61.491 12.9193 61.4181 12.7734C61.3504 12.6224 61.3166 12.4635 61.3166 12.2969C61.3166 12.125 61.3504 11.9661 61.4181 11.8203C61.491 11.6693 61.5926 11.5391 61.7228 11.4297C61.853 11.3203 62.0093 11.2344 62.1916 11.1719C62.3791 11.1042 62.5874 11.0703 62.8166 11.0703C63.0509 11.0703 63.2593 11.1042 63.4416 11.1719C63.6291 11.2344 63.7879 11.3203 63.9181 11.4297C64.0483 11.5391 64.1473 11.6693 64.215 11.8203C64.2879 11.9661 64.3244 12.125 64.3244 12.2969C64.3244 12.4635 64.2879 12.6224 64.215 12.7734C64.1473 12.9193 64.0483 13.0495 63.9181 13.1641C63.7879 13.2734 63.6291 13.362 63.4416 13.4297C63.2593 13.4922 63.0509 13.5234 62.8166 13.5234ZM61.6603 14.7812H63.9728V24H61.6603V14.7812ZM68.8616 14.7812H71.1741V16.1094C71.6845 15.7292 72.2235 15.401 72.7912 15.125C73.359 14.849 73.9241 14.638 74.4866 14.4922L75.1662 16.6094C74.2756 16.6979 73.4918 16.8984 72.8147 17.2109C72.1428 17.5182 71.5959 17.9531 71.1741 18.5156V24H68.8616V14.7812Z" fill="white"/>
</svg>
