<svg width="116" height="34" viewBox="0 0 116 34" fill="none" xmlns="http://www.w3.org/2000/svg">
<rect x="0.470947" width="114.854" height="33.7102" fill="#4660BF"/>
<path d="M7.85034 18.0845C7.85034 17.5571 7.95801 17.054 8.17334 16.575C8.38867 16.0916 8.69849 15.6653 9.10278 15.2961C9.50708 14.927 10.0015 14.6326 10.5859 14.4128C11.1748 14.1931 11.8428 14.0833 12.5898 14.0833C13.3325 14.0833 14.0005 14.1953 14.5938 14.4194C15.1914 14.6392 15.6968 14.9424 16.1099 15.3291C16.5273 15.7158 16.8459 16.1707 17.0657 16.6936C17.2898 17.2166 17.4019 17.7769 17.4019 18.3745C17.4019 18.4492 17.3997 18.5305 17.3953 18.6184C17.3953 18.7019 17.3909 18.7788 17.3821 18.8491H10.0256C10.1091 19.082 10.2432 19.2952 10.4277 19.4885C10.6167 19.6819 10.8518 19.8489 11.1331 19.9895C11.4143 20.1301 11.7395 20.24 12.1086 20.3191C12.4778 20.3938 12.8865 20.4312 13.3347 20.4312C13.783 20.4312 14.229 20.385 14.6729 20.2927C15.1167 20.196 15.5408 20.0752 15.9451 19.9302L16.6042 21.4199C16.3494 21.5386 16.0901 21.644 15.8264 21.7363C15.5671 21.8242 15.2947 21.8989 15.009 21.9604C14.7278 22.0176 14.4312 22.0615 14.1191 22.0923C13.8115 22.123 13.4863 22.1384 13.1436 22.1384C12.269 22.1384 11.5022 22.033 10.843 21.822C10.1838 21.6111 9.63232 21.3232 9.18848 20.9585C8.74463 20.5938 8.41064 20.1653 8.18652 19.6731C7.9624 19.1809 7.85034 18.6514 7.85034 18.0845ZM15.332 17.3264C15.2617 17.1111 15.1519 16.9111 15.0024 16.7266C14.8574 16.5376 14.675 16.375 14.4553 16.2388C14.2356 16.0981 13.9807 15.9883 13.6907 15.9092C13.4006 15.8301 13.082 15.7905 12.7349 15.7905C12.3657 15.7905 12.0295 15.8323 11.7263 15.9158C11.4231 15.9993 11.1572 16.1113 10.9287 16.252C10.7002 16.3926 10.509 16.5552 10.3552 16.7397C10.2058 16.9243 10.0959 17.1199 10.0256 17.3264H15.332ZM23.1417 18.1108L19.9249 14.2151H22.4166L24.3678 16.5881L26.2201 14.2151H28.6525L25.6268 18.1042L28.8436 22H26.3519L24.3414 19.5676L22.476 22H20.0436L23.1417 18.1108ZM31.7095 11.0708H33.6607V14.8149C34.0693 14.5908 34.5242 14.4128 35.0252 14.281C35.5305 14.1492 36.0601 14.0833 36.6138 14.0833C37.2554 14.0833 37.8311 14.1777 38.3408 14.3667C38.855 14.5557 39.29 14.8281 39.646 15.1841C40.002 15.5356 40.2744 15.9641 40.4634 16.4695C40.6567 16.9749 40.7534 17.5439 40.7534 18.1768V22H38.8088V18.2559C38.8088 17.8867 38.7495 17.5505 38.6309 17.2473C38.5122 16.9397 38.3386 16.676 38.1101 16.4563C37.8816 16.2366 37.6025 16.0674 37.273 15.9487C36.9478 15.8257 36.5786 15.7642 36.1655 15.7642C35.669 15.7642 35.2075 15.8433 34.7813 16.0015C34.355 16.1597 33.9815 16.3596 33.6607 16.6013V22H31.7095V11.0708ZM45.5902 13.1604C45.3969 13.1604 45.2211 13.134 45.0629 13.0813C44.9091 13.0242 44.7772 12.9495 44.6674 12.8572C44.5575 12.7605 44.4718 12.6506 44.4103 12.5276C44.3532 12.4001 44.3246 12.2661 44.3246 12.1255C44.3246 11.9805 44.3532 11.8464 44.4103 11.7234C44.4718 11.5959 44.5575 11.4861 44.6674 11.3938C44.7772 11.3015 44.9091 11.229 45.0629 11.1763C45.2211 11.1191 45.3969 11.0906 45.5902 11.0906C45.788 11.0906 45.9638 11.1191 46.1176 11.1763C46.2758 11.229 46.4098 11.3015 46.5197 11.3938C46.6295 11.4861 46.713 11.5959 46.7702 11.7234C46.8317 11.8464 46.8624 11.9805 46.8624 12.1255C46.8624 12.2661 46.8317 12.4001 46.7702 12.5276C46.713 12.6506 46.6295 12.7605 46.5197 12.8572C46.4098 12.9495 46.2758 13.0242 46.1176 13.0813C45.9638 13.134 45.788 13.1604 45.5902 13.1604ZM44.6146 14.2217H46.5658V22H44.6146V14.2217ZM50.638 11.0642H52.5891V14.9534C52.7605 14.8347 52.9627 14.7227 53.1956 14.6172C53.4285 14.5117 53.679 14.4194 53.947 14.3403C54.2151 14.2612 54.492 14.1997 54.7776 14.1558C55.0633 14.1074 55.3489 14.0833 55.6345 14.0833C56.2937 14.0833 56.898 14.1799 57.4473 14.3733C58.001 14.5667 58.4756 14.8391 58.8711 15.1907C59.2666 15.5422 59.5742 15.9641 59.794 16.4563C60.0181 16.9441 60.1301 17.4846 60.1301 18.0779C60.1301 18.6975 60.0137 19.2578 59.7808 19.7588C59.5479 20.2554 59.2249 20.6816 58.8118 21.0376C58.4031 21.3892 57.9153 21.6616 57.3484 21.855C56.7859 22.0439 56.1751 22.1384 55.5159 22.1384C55.2346 22.1384 54.9556 22.1208 54.6787 22.0857C54.4063 22.0505 54.1426 22.0022 53.8877 21.9407C53.6372 21.8792 53.3999 21.8066 53.1758 21.7231C52.9561 21.6353 52.7605 21.5408 52.5891 21.4397V22H50.638V11.0642ZM52.5891 19.5544C52.7869 19.7126 52.9956 19.8467 53.2154 19.9565C53.4351 20.0664 53.6592 20.1565 53.8877 20.2268C54.1162 20.2971 54.3469 20.3499 54.5799 20.385C54.8128 20.4158 55.0391 20.4312 55.2588 20.4312C55.7071 20.4312 56.1048 20.3718 56.4519 20.2532C56.8035 20.1301 57.0979 19.9631 57.3352 19.7522C57.5769 19.5413 57.7615 19.293 57.8889 19.0073C58.0164 18.7217 58.0801 18.4119 58.0801 18.0779C58.0801 17.7659 58.0164 17.4714 57.8889 17.1946C57.7659 16.9177 57.5857 16.676 57.3484 16.4695C57.1155 16.2585 56.8321 16.0938 56.4981 15.9751C56.1685 15.8521 55.7971 15.7905 55.3841 15.7905C55.1204 15.7905 54.8567 15.8169 54.593 15.8696C54.3294 15.918 54.0745 15.9883 53.8284 16.0806C53.5867 16.1729 53.3582 16.2849 53.1428 16.4167C52.9319 16.5486 52.7473 16.6958 52.5891 16.8584V19.5544ZM64.5846 13.1604C64.3913 13.1604 64.2155 13.134 64.0573 13.0813C63.9035 13.0242 63.7716 12.9495 63.6618 12.8572C63.5519 12.7605 63.4662 12.6506 63.4047 12.5276C63.3476 12.4001 63.319 12.2661 63.319 12.1255C63.319 11.9805 63.3476 11.8464 63.4047 11.7234C63.4662 11.5959 63.5519 11.4861 63.6618 11.3938C63.7716 11.3015 63.9035 11.229 64.0573 11.1763C64.2155 11.1191 64.3913 11.0906 64.5846 11.0906C64.7824 11.0906 64.9582 11.1191 65.112 11.1763C65.2702 11.229 65.4042 11.3015 65.5141 11.3938C65.6239 11.4861 65.7074 11.5959 65.7645 11.7234C65.8261 11.8464 65.8568 11.9805 65.8568 12.1255C65.8568 12.2661 65.8261 12.4001 65.7645 12.5276C65.7074 12.6506 65.6239 12.7605 65.5141 12.8572C65.4042 12.9495 65.2702 13.0242 65.112 13.0813C64.9582 13.134 64.7824 13.1604 64.5846 13.1604ZM63.609 14.2217H65.5602V22H63.609V14.2217ZM70.8584 15.6851H68.9798V14.2217H70.8584V11.8025H72.8096V14.2217H74.6883V15.6851H72.8096V22H70.8584V15.6851ZM79.0702 13.1604C78.8769 13.1604 78.7011 13.134 78.5429 13.0813C78.3891 13.0242 78.2572 12.9495 78.1474 12.8572C78.0375 12.7605 77.9518 12.6506 77.8903 12.5276C77.8332 12.4001 77.8046 12.2661 77.8046 12.1255C77.8046 11.9805 77.8332 11.8464 77.8903 11.7234C77.9518 11.5959 78.0375 11.4861 78.1474 11.3938C78.2572 11.3015 78.3891 11.229 78.5429 11.1763C78.7011 11.1191 78.8769 11.0906 79.0702 11.0906C79.268 11.0906 79.4438 11.1191 79.5976 11.1763C79.7558 11.229 79.8898 11.3015 79.9997 11.3938C80.1095 11.4861 80.193 11.5959 80.2502 11.7234C80.3117 11.8464 80.3424 11.9805 80.3424 12.1255C80.3424 12.2661 80.3117 12.4001 80.2502 12.5276C80.193 12.6506 80.1095 12.7605 79.9997 12.8572C79.8898 12.9495 79.7558 13.0242 79.5976 13.0813C79.4438 13.134 79.268 13.1604 79.0702 13.1604ZM78.0946 14.2217H80.0458V22H78.0946V14.2217ZM83.7027 18.1108C83.7027 17.5527 83.8147 17.0298 84.0389 16.542C84.2674 16.0542 84.5904 15.6279 85.0079 15.2632C85.4297 14.8984 85.9373 14.6106 86.5306 14.3997C87.1282 14.1887 87.7984 14.0833 88.5411 14.0833C89.2837 14.0833 89.9517 14.1887 90.545 14.3997C91.1426 14.6106 91.6502 14.8984 92.0677 15.2632C92.4895 15.6279 92.8125 16.0542 93.0367 16.542C93.2652 17.0298 93.3794 17.5527 93.3794 18.1108C93.3794 18.6689 93.2652 19.1919 93.0367 19.6797C92.8125 20.1675 92.4895 20.5938 92.0677 20.9585C91.6502 21.3232 91.1426 21.6111 90.545 21.822C89.9517 22.033 89.2837 22.1384 88.5411 22.1384C87.7984 22.1384 87.1282 22.033 86.5306 21.822C85.9373 21.6111 85.4297 21.3232 85.0079 20.9585C84.5904 20.5938 84.2674 20.1675 84.0389 19.6797C83.8147 19.1919 83.7027 18.6689 83.7027 18.1108ZM85.7527 18.1108C85.7527 18.4229 85.8142 18.7195 85.9373 19.0007C86.0647 19.2776 86.2471 19.5237 86.4844 19.739C86.7261 19.95 87.0183 20.1191 87.3611 20.2466C87.7083 20.3696 88.1016 20.4312 88.5411 20.4312C88.9805 20.4312 89.3716 20.3696 89.7144 20.2466C90.0616 20.1191 90.3538 19.95 90.5911 19.739C90.8328 19.5237 91.0152 19.2776 91.1382 19.0007C91.2657 18.7195 91.3294 18.4229 91.3294 18.1108C91.3294 17.7988 91.2657 17.5022 91.1382 17.2209C91.0152 16.9397 90.8328 16.6936 90.5911 16.4827C90.3538 16.2673 90.0616 16.0981 89.7144 15.9751C89.3716 15.8477 88.9805 15.7839 88.5411 15.7839C88.1016 15.7839 87.7083 15.8477 87.3611 15.9751C87.0183 16.0981 86.7261 16.2673 86.4844 16.4827C86.2471 16.6936 86.0647 16.9397 85.9373 17.2209C85.8142 17.5022 85.7527 17.7988 85.7527 18.1108ZM96.9704 14.2217H98.9216V14.8809C99.4401 14.5864 99.9345 14.3799 100.405 14.2612C100.879 14.1426 101.343 14.0833 101.796 14.0833C102.389 14.0833 102.938 14.1711 103.444 14.3469C103.949 14.5183 104.386 14.7754 104.755 15.1182C105.124 15.4609 105.412 15.8894 105.619 16.4036C105.83 16.9133 105.935 17.5044 105.935 18.1768V22H103.991V18.4932C103.991 18.0669 103.929 17.6868 103.806 17.3528C103.687 17.0144 103.514 16.731 103.285 16.5024C103.061 16.2695 102.787 16.0938 102.461 15.9751C102.141 15.8521 101.78 15.7905 101.38 15.7905C101.169 15.7905 100.952 15.8125 100.728 15.8564C100.508 15.9004 100.29 15.9641 100.075 16.0476C99.8642 16.1267 99.6598 16.2278 99.4621 16.3508C99.2643 16.4695 99.0842 16.6057 98.9216 16.7595V22H96.9704V14.2217Z" fill="white"/>
</svg>
