<svg width="279" height="32" viewBox="0 0 279 32" fill="none" xmlns="http://www.w3.org/2000/svg">
<mask id="path-1-outside-1_136_1578" maskUnits="userSpaceOnUse" x="-1" y="-1" width="281" height="34" fill="black">
<rect fill="white" x="-1" y="-1" width="281" height="34"/>
<path d="M0.335938 0.472656H26.332V5.90234H6.52734V11.9961H24.0664V17.0938H6.52734V25.5898H26.7422V31H0.335938V0.472656ZM37.2648 0.472656H43.4562V17.2891C43.4562 18.6693 43.6451 19.8997 44.0227 20.9805C44.4003 22.0482 44.9602 22.9531 45.7023 23.6953C46.4576 24.4375 47.3885 25.0039 48.4953 25.3945C49.6021 25.7721 50.8911 25.9609 52.3625 25.9609C53.8208 25.9609 55.1034 25.7721 56.2102 25.3945C57.3299 25.0039 58.2609 24.4375 59.0031 23.6953C59.7583 22.9531 60.3247 22.0482 60.7023 20.9805C61.0799 19.8997 61.2687 18.6693 61.2687 17.2891V0.472656H67.4602V18.0312C67.4602 20.0365 67.1216 21.8594 66.4445 23.5C65.7674 25.1406 64.7844 26.5469 63.4953 27.7188C62.2062 28.8906 60.6242 29.7956 58.7492 30.4336C56.8872 31.0716 54.7583 31.3906 52.3625 31.3906C49.9667 31.3906 47.8312 31.0716 45.9562 30.4336C44.0943 29.7956 42.5187 28.8906 41.2297 27.7188C39.9406 26.5469 38.9576 25.1406 38.2805 23.5C37.6034 21.8594 37.2648 20.0365 37.2648 18.0312V0.472656ZM78.0219 15.6484C78.0219 13.3438 78.4451 11.2344 79.2914 9.32031C80.1378 7.40625 81.3227 5.76562 82.8461 4.39844C84.3826 3.01823 86.2185 1.95052 88.3539 1.19531C90.5023 0.440104 92.8786 0.0625 95.4828 0.0625C98.074 0.0625 100.444 0.440104 102.592 1.19531C104.741 1.95052 106.577 3.01823 108.1 4.39844C109.636 5.76562 110.828 7.40625 111.674 9.32031C112.521 11.2344 112.944 13.3438 112.944 15.6484C112.944 17.9661 112.521 20.0951 111.674 22.0352C110.828 23.9622 109.636 25.6224 108.1 27.0156C106.577 28.4089 104.741 29.4961 102.592 30.2773C100.444 31.0456 98.074 31.4297 95.4828 31.4297C92.8786 31.4297 90.5023 31.0456 88.3539 30.2773C86.2185 29.4961 84.3826 28.4089 82.8461 27.0156C81.3227 25.6224 80.1378 23.9622 79.2914 22.0352C78.4451 20.0951 78.0219 17.9661 78.0219 15.6484ZM84.2133 15.6484C84.2133 17.224 84.4932 18.6432 85.0531 19.9062C85.626 21.1693 86.4138 22.25 87.4164 23.1484C88.432 24.0339 89.6234 24.7174 90.9906 25.1992C92.3708 25.681 93.8682 25.9219 95.4828 25.9219C97.0974 25.9219 98.5883 25.681 99.9555 25.1992C101.336 24.7174 102.527 24.0339 103.53 23.1484C104.532 22.25 105.32 21.1693 105.893 19.9062C106.466 18.6432 106.752 17.224 106.752 15.6484C106.752 14.0729 106.466 12.6602 105.893 11.4102C105.32 10.1602 104.532 9.10547 103.53 8.24609C102.527 7.3737 101.336 6.70964 99.9555 6.25391C98.5883 5.79818 97.0974 5.57031 95.4828 5.57031C93.8682 5.57031 92.3708 5.79818 90.9906 6.25391C89.6234 6.70964 88.432 7.3737 87.4164 8.24609C86.4138 9.10547 85.626 10.1602 85.0531 11.4102C84.4932 12.6602 84.2133 14.0729 84.2133 15.6484ZM124.619 0.472656H140.146C142.49 0.472656 144.521 0.720052 146.24 1.21484C147.959 1.69661 149.384 2.39974 150.517 3.32422C151.65 4.2487 152.49 5.375 153.037 6.70312C153.597 8.03125 153.877 9.53516 153.877 11.2148C153.877 12.3477 153.74 13.4284 153.466 14.457C153.193 15.4727 152.77 16.4102 152.197 17.2695C151.637 18.1289 150.927 18.8971 150.068 19.5742C149.209 20.2383 148.199 20.7917 147.041 21.2344L153.681 31H146.103L140.361 22.3281H140.185L130.81 22.3086V31H124.619V0.472656ZM140.302 16.957C141.474 16.957 142.496 16.8203 143.369 16.5469C144.254 16.2734 144.99 15.8893 145.576 15.3945C146.175 14.8997 146.617 14.3008 146.904 13.5977C147.203 12.8815 147.353 12.0872 147.353 11.2148C147.353 9.50911 146.767 8.19401 145.595 7.26953C144.423 6.33203 142.659 5.86328 140.302 5.86328H130.81V16.957H140.302ZM164.223 15.6484C164.223 13.3438 164.647 11.2344 165.493 9.32031C166.339 7.40625 167.524 5.76562 169.048 4.39844C170.584 3.01823 172.42 1.95052 174.555 1.19531C176.704 0.440104 179.08 0.0625 181.684 0.0625C184.276 0.0625 186.645 0.440104 188.794 1.19531C190.942 1.95052 192.778 3.01823 194.302 4.39844C195.838 5.76562 197.029 7.40625 197.876 9.32031C198.722 11.2344 199.145 13.3438 199.145 15.6484C199.145 17.9661 198.722 20.0951 197.876 22.0352C197.029 23.9622 195.838 25.6224 194.302 27.0156C192.778 28.4089 190.942 29.4961 188.794 30.2773C186.645 31.0456 184.276 31.4297 181.684 31.4297C179.08 31.4297 176.704 31.0456 174.555 30.2773C172.42 29.4961 170.584 28.4089 169.048 27.0156C167.524 25.6224 166.339 23.9622 165.493 22.0352C164.647 20.0951 164.223 17.9661 164.223 15.6484ZM170.415 15.6484C170.415 17.224 170.695 18.6432 171.255 19.9062C171.828 21.1693 172.615 22.25 173.618 23.1484C174.634 24.0339 175.825 24.7174 177.192 25.1992C178.572 25.681 180.07 25.9219 181.684 25.9219C183.299 25.9219 184.79 25.681 186.157 25.1992C187.537 24.7174 188.729 24.0339 189.731 23.1484C190.734 22.25 191.522 21.1693 192.095 19.9062C192.667 18.6432 192.954 17.224 192.954 15.6484C192.954 14.0729 192.667 12.6602 192.095 11.4102C191.522 10.1602 190.734 9.10547 189.731 8.24609C188.729 7.3737 187.537 6.70964 186.157 6.25391C184.79 5.79818 183.299 5.57031 181.684 5.57031C180.07 5.57031 178.572 5.79818 177.192 6.25391C175.825 6.70964 174.634 7.3737 173.618 8.24609C172.615 9.10547 171.828 10.1602 171.255 11.4102C170.695 12.6602 170.415 14.0729 170.415 15.6484ZM210.82 0.472656H226.914C229.258 0.472656 231.289 0.726562 233.008 1.23438C234.727 1.74219 236.152 2.47786 237.285 3.44141C238.418 4.39193 239.258 5.55729 239.805 6.9375C240.365 8.31771 240.645 9.8737 240.645 11.6055C240.645 13.2331 240.371 14.737 239.824 16.1172C239.277 17.4974 238.438 18.6953 237.305 19.7109C236.185 20.7135 234.766 21.5013 233.047 22.0742C231.328 22.6341 229.297 22.9141 226.953 22.9141L217.012 22.8945V31H210.82V0.472656ZM227.07 17.543C228.242 17.543 229.264 17.4062 230.137 17.1328C231.022 16.8464 231.758 16.4492 232.344 15.9414C232.943 15.4206 233.385 14.7956 233.672 14.0664C233.971 13.3242 234.121 12.5039 234.121 11.6055C234.121 9.79557 233.529 8.38932 232.344 7.38672C231.172 6.37109 229.414 5.86328 227.07 5.86328H217.012V17.543H227.07ZM252.222 0.472656H278.218V5.90234H258.413V11.9961H275.952V17.0938H258.413V25.5898H278.628V31H252.222V0.472656Z"/>
</mask>
<path d="M0.335938 0.472656V-0.527344H-0.664062V0.472656H0.335938ZM26.332 0.472656H27.332V-0.527344H26.332V0.472656ZM26.332 5.90234V6.90234H27.332V5.90234H26.332ZM6.52734 5.90234V4.90234H5.52734V5.90234H6.52734ZM6.52734 11.9961H5.52734V12.9961H6.52734V11.9961ZM24.0664 11.9961H25.0664V10.9961H24.0664V11.9961ZM24.0664 17.0938V18.0938H25.0664V17.0938H24.0664ZM6.52734 17.0938V16.0938H5.52734V17.0938H6.52734ZM6.52734 25.5898H5.52734V26.5898H6.52734V25.5898ZM26.7422 25.5898H27.7422V24.5898H26.7422V25.5898ZM26.7422 31V32H27.7422V31H26.7422ZM0.335938 31H-0.664062V32H0.335938V31ZM0.335938 1.47266H26.332V-0.527344H0.335938V1.47266ZM25.332 0.472656V5.90234H27.332V0.472656H25.332ZM26.332 4.90234H6.52734V6.90234H26.332V4.90234ZM5.52734 5.90234V11.9961H7.52734V5.90234H5.52734ZM6.52734 12.9961H24.0664V10.9961H6.52734V12.9961ZM23.0664 11.9961V17.0938H25.0664V11.9961H23.0664ZM24.0664 16.0938H6.52734V18.0938H24.0664V16.0938ZM5.52734 17.0938V25.5898H7.52734V17.0938H5.52734ZM6.52734 26.5898H26.7422V24.5898H6.52734V26.5898ZM25.7422 25.5898V31H27.7422V25.5898H25.7422ZM26.7422 30H0.335938V32H26.7422V30ZM1.33594 31V0.472656H-0.664062V31H1.33594ZM37.2648 0.472656V-0.527344H36.2648V0.472656H37.2648ZM43.4562 0.472656H44.4562V-0.527344H43.4562V0.472656ZM44.0227 20.9805L43.0786 21.3103L43.0799 21.3139L44.0227 20.9805ZM45.7023 23.6953L44.9952 24.4024L45.0014 24.4085L45.7023 23.6953ZM48.4953 25.3945L48.1625 26.3376L48.1724 26.341L48.4953 25.3945ZM56.2102 25.3945L56.5331 26.341L56.5395 26.3387L56.2102 25.3945ZM59.0031 23.6953L58.3022 22.9821L58.296 22.9882L59.0031 23.6953ZM60.7023 20.9805L61.6451 21.3139L61.6464 21.3103L60.7023 20.9805ZM61.2688 0.472656V-0.527344H60.2688V0.472656H61.2688ZM67.4602 0.472656H68.4602V-0.527344H67.4602V0.472656ZM58.7492 30.4336L58.4271 29.4869L58.4251 29.4876L58.7492 30.4336ZM45.9562 30.4336L45.6321 31.3796L45.6341 31.3803L45.9562 30.4336ZM37.2648 1.47266H43.4562V-0.527344H37.2648V1.47266ZM42.4562 0.472656V17.2891H44.4562V0.472656H42.4562ZM42.4562 17.2891C42.4562 18.7592 42.6572 20.1043 43.0786 21.3103L44.9667 20.6506C44.6329 19.6952 44.4562 18.5793 44.4562 17.2891H42.4562ZM43.0799 21.3139C43.5032 22.5109 44.1395 23.5466 44.9952 24.4024L46.4095 22.9882C45.7809 22.3596 45.2973 21.5855 44.9654 20.647L43.0799 21.3139ZM45.0014 24.4085C45.8719 25.264 46.9328 25.9035 48.1625 26.3375L48.8281 24.4515C47.8443 24.1043 47.0432 23.611 46.4033 22.9821L45.0014 24.4085ZM48.1724 26.341C49.406 26.7618 50.8084 26.9609 52.3625 26.9609V24.9609C50.9739 24.9609 49.7981 24.7824 48.8182 24.4481L48.1724 26.341ZM52.3625 26.9609C53.9047 26.9609 55.3003 26.7616 56.5331 26.341L55.8873 24.4481C54.9065 24.7827 53.737 24.9609 52.3625 24.9609V26.9609ZM56.5395 26.3387C57.7829 25.905 58.8485 25.2641 59.7102 24.4024L58.296 22.9882C57.6734 23.6109 56.877 24.1028 55.8808 24.4503L56.5395 26.3387ZM59.7041 24.4085C60.5752 23.5525 61.2204 22.5148 61.6451 21.3139L59.7596 20.647C59.4291 21.5816 58.9415 22.3538 58.3022 22.9821L59.7041 24.4085ZM61.6464 21.3103C62.0678 20.1043 62.2688 18.7592 62.2688 17.2891H60.2688C60.2688 18.5793 60.0921 19.6952 59.7583 20.6506L61.6464 21.3103ZM62.2688 17.2891V0.472656H60.2688V17.2891H62.2688ZM61.2688 1.47266H67.4602V-0.527344H61.2688V1.47266ZM66.4602 0.472656V18.0312H68.4602V0.472656H66.4602ZM66.4602 18.0312C66.4602 19.9225 66.1412 21.6136 65.5202 23.1185L67.3689 23.8815C68.102 22.1052 68.4602 20.1504 68.4602 18.0312H66.4602ZM65.5202 23.1185C64.8984 24.6252 64.0002 25.9083 62.8226 26.9788L64.168 28.4587C65.5685 27.1855 66.6365 25.6561 67.3689 23.8815L65.5202 23.1185ZM62.8226 26.9788C61.648 28.0467 60.19 28.887 58.4271 29.4869L59.0714 31.3803C61.0584 30.7041 62.7645 29.7346 64.168 28.4587L62.8226 26.9788ZM58.4251 29.4876C56.6873 30.0831 54.6712 30.3906 52.3625 30.3906V32.3906C54.8455 32.3906 57.0872 32.0602 59.0734 31.3796L58.4251 29.4876ZM52.3625 30.3906C50.054 30.3906 48.0305 30.0831 46.2784 29.4869L45.6341 31.3803C47.632 32.0601 49.8793 32.3906 52.3625 32.3906V30.3906ZM46.2804 29.4876C44.5307 28.888 43.0782 28.0478 41.9024 26.9788L40.557 28.4587C41.9593 29.7335 43.6578 30.7031 45.6321 31.3796L46.2804 29.4876ZM41.9024 26.9788C40.7248 25.9083 39.8266 24.6252 39.2048 23.1185L37.3561 23.8815C38.0885 25.6561 39.1565 27.1855 40.557 28.4587L41.9024 26.9788ZM39.2048 23.1185C38.5838 21.6136 38.2648 19.9225 38.2648 18.0312H36.2648C36.2648 20.1504 36.623 22.1052 37.3561 23.8815L39.2048 23.1185ZM38.2648 18.0312V0.472656H36.2648V18.0312H38.2648ZM82.8461 4.39844L83.514 5.14268L83.5144 5.14236L82.8461 4.39844ZM88.3539 1.19531L88.0223 0.251899L88.0205 0.252535L88.3539 1.19531ZM108.1 4.39844L107.429 5.13955L107.435 5.1455L108.1 4.39844ZM111.674 22.0352L112.59 22.4373L112.591 22.435L111.674 22.0352ZM108.1 27.0156L107.428 26.2748L107.425 26.2777L108.1 27.0156ZM102.592 30.2773L102.929 31.219L102.934 31.2171L102.592 30.2773ZM88.3539 30.2773L88.0103 31.2165L88.0172 31.219L88.3539 30.2773ZM82.8461 27.0156L82.1712 27.7536L82.1744 27.7564L82.8461 27.0156ZM79.2914 22.0352L78.3748 22.435L78.3758 22.4373L79.2914 22.0352ZM85.0531 19.9062L84.1389 20.3115L84.1424 20.3193L85.0531 19.9062ZM87.4164 23.1484L86.749 23.8932L86.7593 23.9022L87.4164 23.1484ZM90.9906 25.1992L90.6583 26.1424L90.6611 26.1434L90.9906 25.1992ZM99.9555 25.1992L99.6259 24.2551L99.6231 24.2561L99.9555 25.1992ZM103.53 23.1484L104.192 23.898L104.197 23.8932L103.53 23.1484ZM105.893 19.9062L104.982 19.4932L105.893 19.9062ZM103.53 8.24609L102.873 9.00051L102.879 9.00535L103.53 8.24609ZM99.9555 6.25391L99.6392 7.20259L99.6419 7.20348L99.9555 6.25391ZM90.9906 6.25391L90.6771 5.30433L90.6744 5.30522L90.9906 6.25391ZM87.4164 8.24609L88.0672 9.00535L88.068 9.00466L87.4164 8.24609ZM85.0531 11.4102L84.144 10.9935L84.1405 11.0014L85.0531 11.4102ZM79.0219 15.6484C79.0219 13.4688 79.4214 11.499 80.206 9.72472L78.3768 8.91591C77.4687 10.9697 77.0219 13.2187 77.0219 15.6484H79.0219ZM80.206 9.72472C80.9964 7.93713 82.0983 6.41317 83.514 5.14268L82.1782 3.65419C80.547 5.11808 79.2791 6.87537 78.3768 8.91591L80.206 9.72472ZM83.5144 5.14236C84.9443 3.85786 86.6635 2.85384 88.6873 2.13809L88.0205 0.252535C85.7735 1.0472 83.8208 2.1786 82.1778 3.65452L83.5144 5.14236ZM88.6855 2.13872C90.7133 1.42592 92.9756 1.0625 95.4828 1.0625V-0.9375C92.7817 -0.9375 90.2914 -0.545715 88.0223 0.251901L88.6855 2.13872ZM95.4828 1.0625C97.9764 1.0625 100.232 1.42575 102.261 2.13872L102.924 0.251901C100.655 -0.545537 98.1715 -0.9375 95.4828 -0.9375V1.0625ZM102.261 2.13872C104.297 2.85455 106.014 3.85788 107.429 5.13952L108.771 3.65735C107.139 2.17857 105.184 1.04649 102.924 0.251901L102.261 2.13872ZM107.435 5.1455C108.863 6.41593 109.97 7.93905 110.76 9.72472L112.589 8.91591C111.686 6.87345 110.41 5.11532 108.765 3.65138L107.435 5.1455ZM110.76 9.72472C111.544 11.499 111.944 13.4688 111.944 15.6484H113.944C113.944 13.2187 113.497 10.9697 112.589 8.91591L110.76 9.72472ZM111.944 15.6484C111.944 17.8417 111.544 19.8329 110.758 21.6353L112.591 22.435C113.497 20.3572 113.944 18.0906 113.944 15.6484H111.944ZM110.759 21.633C109.968 23.4333 108.859 24.9775 107.428 26.2748L108.772 27.7564C110.414 26.2673 111.688 24.4912 112.59 22.4373L110.759 21.633ZM107.425 26.2777C106.008 27.5734 104.289 28.5963 102.25 29.3376L102.934 31.2171C105.192 30.3959 107.145 29.2443 108.775 27.7536L107.425 26.2777ZM102.255 29.3357C100.229 30.0605 97.9746 30.4297 95.4828 30.4297V32.4297C98.1733 32.4297 100.659 32.0307 102.929 31.219L102.255 29.3357ZM95.4828 30.4297C92.9774 30.4297 90.7169 30.0603 88.6906 29.3357L88.0172 31.219C90.2878 32.0309 92.7799 32.4297 95.4828 32.4297V30.4297ZM88.6975 29.3382C86.6715 28.597 84.9499 27.5734 83.5178 26.2748L82.1744 27.7564C83.8152 29.2443 85.7655 30.3952 88.0103 31.2165L88.6975 29.3382ZM83.521 26.2777C82.1023 24.9803 80.9985 23.4352 80.207 21.633L78.3758 22.4373C79.277 24.4893 80.543 26.2645 82.1712 27.7536L83.521 26.2777ZM80.208 21.6353C79.4217 19.8329 79.0219 17.8417 79.0219 15.6484H77.0219C77.0219 18.0906 77.4684 20.3572 78.3748 22.435L80.208 21.6353ZM83.2133 15.6484C83.2133 17.344 83.515 18.9041 84.1389 20.3115L85.9673 19.501C85.4714 18.3823 85.2133 17.1039 85.2133 15.6484H83.2133ZM84.1424 20.3193C84.7708 21.7047 85.6401 22.8994 86.749 23.8932L88.0838 22.4037C87.1875 21.6006 86.4812 20.6339 85.9638 19.4932L84.1424 20.3193ZM86.7593 23.9022C87.8772 24.8768 89.1809 25.6218 90.6583 26.1424L91.323 24.2561C90.0659 23.8131 88.9868 23.1909 88.0735 22.3947L86.7593 23.9022ZM90.6611 26.1434C92.1577 26.6658 93.7677 26.9219 95.4828 26.9219V24.9219C93.9688 24.9219 92.584 24.6962 91.3202 24.2551L90.6611 26.1434ZM95.4828 26.9219C97.1978 26.9219 98.8024 26.6658 100.288 26.1424L99.6231 24.2561C98.3741 24.6962 96.997 24.9219 95.4828 24.9219V26.9219ZM100.285 26.1434C101.776 25.6229 103.083 24.8769 104.192 23.898L102.868 22.3989C101.971 23.1909 100.895 23.812 99.6259 24.2551L100.285 26.1434ZM104.197 23.8932C105.306 22.8994 106.175 21.7047 106.804 20.3193L104.982 19.4932C104.465 20.6339 103.759 21.6006 102.862 22.4037L104.197 23.8932ZM106.804 20.3193C107.443 18.91 107.752 17.3471 107.752 15.6484H105.752C105.752 17.1008 105.489 18.3765 104.982 19.4932L106.804 20.3193ZM107.752 15.6484C107.752 13.95 107.443 12.392 106.802 10.9935L104.984 11.8268C105.489 12.9283 105.752 14.1958 105.752 15.6484H107.752ZM106.802 10.9935C106.171 9.61753 105.298 8.44429 104.18 7.48684L102.879 9.00535C103.767 9.76665 104.469 10.7028 104.984 11.8268L106.802 10.9935ZM104.186 7.4917C103.074 6.52426 101.763 5.79778 100.269 5.30433L99.6419 7.20348C100.908 7.62149 101.98 8.22313 102.873 9.00049L104.186 7.4917ZM100.272 5.30522C98.7911 4.81168 97.1921 4.57031 95.4828 4.57031V6.57031C97.0027 6.57031 98.3855 6.78467 99.6392 7.20259L100.272 5.30522ZM95.4828 4.57031C93.7734 4.57031 92.169 4.81172 90.6771 5.30433L91.3042 7.20348C92.5727 6.78464 93.9631 6.57031 95.4828 6.57031V4.57031ZM90.6744 5.30522C89.1936 5.79881 87.8861 6.52433 86.7648 7.48752L88.068 9.00466C88.9779 8.22307 90.0532 7.62046 91.3069 7.20259L90.6744 5.30522ZM86.7656 7.48684C85.6486 8.44429 84.7747 9.61753 84.1441 10.9935L85.9622 11.8268C86.4774 10.7028 87.179 9.76665 88.0672 9.00535L86.7656 7.48684ZM84.1405 11.0014C83.515 12.3979 83.2133 13.9531 83.2133 15.6484H85.2133C85.2133 14.1927 85.4715 12.9224 85.9658 11.8189L84.1405 11.0014ZM124.619 0.472656V-0.527344H123.619V0.472656H124.619ZM146.24 1.21484L145.963 2.17584L145.97 2.17773L146.24 1.21484ZM153.037 6.70312L152.112 7.08389L152.115 7.09159L153.037 6.70312ZM153.466 14.457L154.432 14.717L154.433 14.7139L153.466 14.457ZM152.197 17.2695L151.365 16.7148L151.359 16.7236L152.197 17.2695ZM150.068 19.5742L150.679 20.3655L150.687 20.3597L150.068 19.5742ZM147.041 21.2344L146.684 20.3002L145.503 20.7513L146.214 21.7967L147.041 21.2344ZM153.681 31V32H155.571L154.508 30.4377L153.681 31ZM146.103 31L145.269 31.5521L145.566 32H146.103V31ZM140.361 22.3281L141.195 21.776L140.898 21.3281H140.361V22.3281ZM140.185 22.3281L140.183 23.3281H140.185V22.3281ZM130.81 22.3086L130.812 21.3086L129.81 21.3065V22.3086H130.81ZM130.81 31V32H131.81V31H130.81ZM124.619 31H123.619V32H124.619V31ZM143.369 16.5469L143.074 15.5914L143.07 15.5926L143.369 16.5469ZM145.576 15.3945L144.939 14.6235L144.931 14.6305L145.576 15.3945ZM146.904 13.5977L145.981 13.2118L145.978 13.2204L146.904 13.5977ZM145.595 7.26953L144.971 8.05042L144.976 8.05464L145.595 7.26953ZM130.81 5.86328V4.86328H129.81V5.86328H130.81ZM130.81 16.957H129.81V17.957H130.81V16.957ZM124.619 1.47266H140.146V-0.527344H124.619V1.47266ZM140.146 1.47266C142.423 1.47266 144.357 1.7135 145.963 2.17582L146.516 0.253871C144.685 -0.273396 142.556 -0.527344 140.146 -0.527344V1.47266ZM145.97 2.17773C147.585 2.63038 148.879 3.27842 149.885 4.09897L151.149 2.54947C149.889 1.52106 148.332 0.762852 146.51 0.251956L145.97 2.17773ZM149.885 4.09897C150.891 4.92041 151.63 5.91219 152.112 7.08388L153.961 6.32238C153.35 4.83781 152.409 3.57699 151.149 2.54947L149.885 4.09897ZM152.115 7.09159C152.615 8.27815 152.877 9.64678 152.877 11.2148H154.877C154.877 9.42353 154.578 7.78435 153.958 6.31466L152.115 7.09159ZM152.877 11.2148C152.877 12.2665 152.75 13.2605 152.5 14.2001L154.433 14.7139C154.73 13.5963 154.877 12.4288 154.877 11.2148H152.877ZM152.501 14.1971C152.255 15.1098 151.876 15.9475 151.365 16.7148L153.029 17.8242C153.663 16.8728 154.131 15.8355 154.432 14.717L152.501 14.1971ZM151.359 16.7236C150.862 17.4859 150.229 18.1745 149.449 18.7887L150.687 20.3597C151.626 19.6197 152.412 18.772 153.035 17.8154L151.359 16.7236ZM149.457 18.7829C148.685 19.3794 147.764 19.8876 146.684 20.3002L147.397 22.1685C148.635 21.6958 149.733 21.0972 150.679 20.3655L149.457 18.7829ZM146.214 21.7967L152.854 31.5623L154.508 30.4377L147.868 20.6721L146.214 21.7967ZM153.681 30H146.103V32H153.681V30ZM146.937 30.4479L141.195 21.776L139.527 22.8802L145.269 31.5521L146.937 30.4479ZM140.361 21.3281H140.185V23.3281H140.361V21.3281ZM140.187 21.3281L130.812 21.3086L130.808 23.3086L140.183 23.3281L140.187 21.3281ZM129.81 22.3086V31H131.81V22.3086H129.81ZM130.81 30H124.619V32H130.81V30ZM125.619 31V0.472656H123.619V31H125.619ZM140.302 17.957C141.549 17.957 142.676 17.812 143.668 17.5011L143.07 15.5926C142.317 15.8286 141.4 15.957 140.302 15.957V17.957ZM143.664 17.5023C144.651 17.1973 145.513 16.7561 146.221 16.1586L144.931 14.6305C144.466 15.0225 143.857 15.3495 143.074 15.5914L143.664 17.5023ZM146.213 16.1655C146.936 15.568 147.48 14.8349 147.83 13.975L145.978 13.2204C145.755 13.7667 145.413 14.2315 144.939 14.6236L146.213 16.1655ZM147.826 13.9835C148.183 13.1309 148.353 12.2033 148.353 11.2148H146.353C146.353 11.9712 146.224 12.6322 145.981 13.2118L147.826 13.9835ZM148.353 11.2148C148.353 9.25237 147.663 7.62718 146.215 6.48443L144.976 8.05464C145.871 8.76084 146.353 9.76585 146.353 11.2148H148.353ZM146.22 6.48866C144.795 5.3484 142.764 4.86328 140.302 4.86328V6.86328C142.554 6.86328 144.052 7.31566 144.971 8.0504L146.22 6.48866ZM140.302 4.86328H130.81V6.86328H140.302V4.86328ZM129.81 5.86328V16.957H131.81V5.86328H129.81ZM130.81 17.957H140.302V15.957H130.81V17.957ZM169.048 4.39844L169.716 5.14268L169.716 5.14236L169.048 4.39844ZM174.555 1.19531L174.224 0.251899L174.222 0.252535L174.555 1.19531ZM194.302 4.39844L193.63 5.13955L193.637 5.1455L194.302 4.39844ZM197.876 22.0352L198.791 22.4373L198.792 22.435L197.876 22.0352ZM194.302 27.0156L193.63 26.2748L193.627 26.2777L194.302 27.0156ZM188.794 30.2773L189.13 31.219L189.135 31.2171L188.794 30.2773ZM174.555 30.2773L174.212 31.2165L174.219 31.219L174.555 30.2773ZM169.048 27.0156L168.373 27.7536L168.376 27.7564L169.048 27.0156ZM165.493 22.0352L164.576 22.435L164.577 22.4373L165.493 22.0352ZM171.255 19.9062L170.34 20.3115L170.344 20.3193L171.255 19.9062ZM173.618 23.1484L172.951 23.8932L172.961 23.9022L173.618 23.1484ZM177.192 25.1992L176.86 26.1424L176.863 26.1434L177.192 25.1992ZM186.157 25.1992L185.827 24.2551L185.825 24.2561L186.157 25.1992ZM189.731 23.1484L190.393 23.898L190.399 23.8932L189.731 23.1484ZM192.095 19.9062L191.184 19.4932L192.095 19.9062ZM189.731 8.24609L189.075 9.00051L189.08 9.00535L189.731 8.24609ZM186.157 6.25391L185.841 7.20259L185.843 7.20348L186.157 6.25391ZM177.192 6.25391L176.879 5.30433L176.876 5.30522L177.192 6.25391ZM173.618 8.24609L174.269 9.00535L174.27 9.00466L173.618 8.24609ZM171.255 11.4102L170.346 10.9935L170.342 11.0014L171.255 11.4102ZM165.223 15.6484C165.223 13.4688 165.623 11.499 166.408 9.72472L164.578 8.91591C163.67 10.9697 163.223 13.2187 163.223 15.6484H165.223ZM166.408 9.72472C167.198 7.93713 168.3 6.41317 169.716 5.14268L168.38 3.65419C166.749 5.11808 165.481 6.87537 164.578 8.91591L166.408 9.72472ZM169.716 5.14236C171.146 3.85786 172.865 2.85384 174.889 2.13809L174.222 0.252535C171.975 1.0472 170.022 2.1786 168.379 3.65452L169.716 5.14236ZM174.887 2.13872C176.915 1.42592 179.177 1.0625 181.684 1.0625V-0.9375C178.983 -0.9375 176.493 -0.545715 174.224 0.251901L174.887 2.13872ZM181.684 1.0625C184.178 1.0625 186.434 1.42575 188.462 2.13872L189.125 0.251901C186.857 -0.545537 184.373 -0.9375 181.684 -0.9375V1.0625ZM188.462 2.13872C190.499 2.85455 192.216 3.85788 193.63 5.13952L194.973 3.65735C193.341 2.17857 191.386 1.04649 189.125 0.251901L188.462 2.13872ZM193.637 5.1455C195.065 6.41593 196.172 7.93905 196.961 9.72472L198.79 8.91591C197.887 6.87345 196.612 5.11532 194.966 3.65138L193.637 5.1455ZM196.961 9.72472C197.746 11.499 198.145 13.4688 198.145 15.6484H200.145C200.145 13.2187 199.699 10.9697 198.79 8.91591L196.961 9.72472ZM198.145 15.6484C198.145 17.8417 197.745 19.8329 196.959 21.6353L198.792 22.435C199.699 20.3572 200.145 18.0906 200.145 15.6484H198.145ZM196.96 21.633C196.17 23.4333 195.061 24.9775 193.63 26.2748L194.973 27.7564C196.616 26.2673 197.889 24.4912 198.791 22.4373L196.96 21.633ZM193.627 26.2777C192.21 27.5734 190.49 28.5963 188.452 29.3376L189.135 31.2171C191.394 30.3959 193.346 29.2443 194.976 27.7536L193.627 26.2777ZM188.457 29.3357C186.43 30.0605 184.176 30.4297 181.684 30.4297V32.4297C184.375 32.4297 186.86 32.0307 189.13 31.219L188.457 29.3357ZM181.684 30.4297C179.179 30.4297 176.918 30.0603 174.892 29.3357L174.219 31.219C176.489 32.0309 178.981 32.4297 181.684 32.4297V30.4297ZM174.899 29.3382C172.873 28.597 171.151 27.5734 169.719 26.2748L168.376 27.7564C170.017 29.2443 171.967 30.3952 174.212 31.2165L174.899 29.3382ZM169.723 26.2777C168.304 24.9803 167.2 23.4352 166.409 21.633L164.577 22.4373C165.479 24.4893 166.745 26.2645 168.373 27.7536L169.723 26.2777ZM166.41 21.6353C165.623 19.8329 165.223 17.8417 165.223 15.6484H163.223C163.223 18.0906 163.67 20.3572 164.576 22.435L166.41 21.6353ZM169.415 15.6484C169.415 17.344 169.717 18.9041 170.34 20.3115L172.169 19.501C171.673 18.3823 171.415 17.1039 171.415 15.6484H169.415ZM170.344 20.3193C170.972 21.7047 171.842 22.8994 172.951 23.8932L174.285 22.4037C173.389 21.6006 172.683 20.6339 172.165 19.4932L170.344 20.3193ZM172.961 23.9022C174.079 24.8768 175.383 25.6218 176.86 26.1424L177.525 24.2561C176.267 23.8131 175.188 23.1909 174.275 22.3947L172.961 23.9022ZM176.863 26.1434C178.359 26.6658 179.969 26.9219 181.684 26.9219V24.9219C180.17 24.9219 178.786 24.6962 177.522 24.2551L176.863 26.1434ZM181.684 26.9219C183.399 26.9219 185.004 26.6658 186.489 26.1424L185.825 24.2561C184.576 24.6962 183.199 24.9219 181.684 24.9219V26.9219ZM186.487 26.1434C187.978 25.6229 189.285 24.8769 190.393 23.898L189.069 22.3989C188.173 23.1909 187.097 23.812 185.827 24.2551L186.487 26.1434ZM190.399 23.8932C191.508 22.8994 192.377 21.7047 193.005 20.3193L191.184 19.4932C190.666 20.6339 189.96 21.6006 189.064 22.4037L190.399 23.8932ZM193.005 20.3193C193.645 18.91 193.954 17.3471 193.954 15.6484H191.954C191.954 17.1008 191.69 18.3765 191.184 19.4932L193.005 20.3193ZM193.954 15.6484C193.954 13.95 193.645 12.392 193.004 10.9935L191.185 11.8268C191.69 12.9283 191.954 14.1958 191.954 15.6484H193.954ZM193.004 10.9935C192.373 9.61753 191.499 8.44429 190.382 7.48684L189.08 9.00535C189.969 9.76665 190.67 10.7028 191.185 11.8268L193.004 10.9935ZM190.388 7.4917C189.276 6.52426 187.965 5.79778 186.471 5.30433L185.843 7.20348C187.109 7.62149 188.181 8.22313 189.075 9.00049L190.388 7.4917ZM186.473 5.30522C184.993 4.81168 183.394 4.57031 181.684 4.57031V6.57031C183.204 6.57031 184.587 6.78467 185.841 7.20259L186.473 5.30522ZM181.684 4.57031C179.975 4.57031 178.371 4.81172 176.879 5.30433L177.506 7.20348C178.774 6.78464 180.165 6.57031 181.684 6.57031V4.57031ZM176.876 5.30522C175.395 5.79881 174.088 6.52433 172.966 7.48752L174.27 9.00466C175.179 8.22307 176.255 7.62046 177.508 7.20259L176.876 5.30522ZM172.967 7.48684C171.85 8.44429 170.976 9.61753 170.346 10.9935L172.164 11.8268C172.679 10.7028 173.381 9.76665 174.269 9.00535L172.967 7.48684ZM170.342 11.0014C169.717 12.3979 169.415 13.9531 169.415 15.6484H171.415C171.415 14.1927 171.673 12.9224 172.167 11.8189L170.342 11.0014ZM210.82 0.472656V-0.527344H209.82V0.472656H210.82ZM237.285 3.44141L236.637 4.20315L236.642 4.20746L237.285 3.44141ZM239.805 6.9375L238.875 7.30588L238.878 7.31341L239.805 6.9375ZM237.305 19.7109L237.972 20.456L237.972 20.4555L237.305 19.7109ZM233.047 22.0742L233.357 23.0251L233.363 23.0229L233.047 22.0742ZM226.953 22.9141L226.951 23.9141H226.953V22.9141ZM217.012 22.8945L217.014 21.8945L216.012 21.8926V22.8945H217.012ZM217.012 31V32H218.012V31H217.012ZM210.82 31H209.82V32H210.82V31ZM230.137 17.1328L230.436 18.0871L230.445 18.0843L230.137 17.1328ZM232.344 15.9414L232.999 16.6971L233 16.696L232.344 15.9414ZM233.672 14.0664L232.744 13.6922L232.741 13.7008L233.672 14.0664ZM232.344 7.38672L231.689 8.14246L231.698 8.1501L232.344 7.38672ZM217.012 5.86328V4.86328H216.012V5.86328H217.012ZM217.012 17.543H216.012V18.543H217.012V17.543ZM210.82 1.47266H226.914V-0.527344H210.82V1.47266ZM226.914 1.47266C229.19 1.47266 231.121 1.71963 232.724 2.19339L233.291 0.275357C231.457 -0.266506 229.326 -0.527344 226.914 -0.527344V1.47266ZM232.724 2.19339C234.336 2.66959 235.63 3.34668 236.637 4.20313L237.933 2.67968C236.674 1.60905 235.117 0.814788 233.291 0.275357L232.724 2.19339ZM236.642 4.20746C237.648 5.05084 238.389 6.07934 238.875 7.30586L240.734 6.56914C240.127 5.03524 239.188 3.73301 237.928 2.67535L236.642 4.20746ZM238.878 7.31341C239.382 8.55643 239.645 9.98187 239.645 11.6055H241.645C241.645 9.76553 241.347 8.07899 240.731 6.56159L238.878 7.31341ZM239.645 11.6055C239.645 13.1191 239.391 14.4967 238.895 15.7488L240.754 16.4856C241.352 14.9773 241.645 13.347 241.645 11.6055H239.645ZM238.895 15.7488C238.406 16.9814 237.658 18.0515 236.637 18.9664L237.972 20.4555C239.217 19.3391 240.149 18.0134 240.754 16.4856L238.895 15.7488ZM236.638 18.9659C235.638 19.8607 234.346 20.5871 232.731 21.1255L233.363 23.0229C235.185 22.4155 236.731 21.5664 237.972 20.456L236.638 18.9659ZM232.737 21.1234C231.143 21.6427 229.221 21.9141 226.953 21.9141V23.9141C229.373 23.9141 231.513 23.6255 233.357 23.025L232.737 21.1234ZM226.955 21.9141L217.014 21.8945L217.01 23.8945L226.951 23.9141L226.955 21.9141ZM216.012 22.8945V31H218.012V22.8945H216.012ZM217.012 30H210.82V32H217.012V30ZM211.82 31V0.472656H209.82V31H211.82ZM227.07 18.543C228.317 18.543 229.444 18.398 230.436 18.087L229.838 16.1786C229.085 16.4145 228.168 16.543 227.07 16.543V18.543ZM230.445 18.0843C231.433 17.7646 232.293 17.3085 232.999 16.6971L231.689 15.1857C231.222 15.5899 230.612 15.9281 229.829 16.1814L230.445 18.0843ZM233 16.696C233.719 16.071 234.256 15.3131 234.603 14.4321L232.741 13.7008C232.514 14.278 232.167 14.7702 231.688 15.1868L233 16.696ZM234.599 14.4406C234.952 13.5658 235.121 12.6165 235.121 11.6055H233.121C233.121 12.3913 232.99 13.0827 232.745 13.6922L234.599 14.4406ZM235.121 11.6055C235.121 9.55565 234.437 7.84838 232.99 6.62333L231.698 8.1501C232.62 8.93026 233.121 10.0355 233.121 11.6055H235.121ZM232.999 6.63103C231.572 5.39442 229.536 4.86328 227.07 4.86328V6.86328C229.292 6.86328 230.772 7.34777 231.689 8.14241L232.999 6.63103ZM227.07 4.86328H217.012V6.86328H227.07V4.86328ZM216.012 5.86328V17.543H218.012V5.86328H216.012ZM217.012 18.543H227.07V16.543H217.012V18.543ZM252.222 0.472656V-0.527344H251.222V0.472656H252.222ZM278.218 0.472656H279.218V-0.527344H278.218V0.472656ZM278.218 5.90234V6.90234H279.218V5.90234H278.218ZM258.413 5.90234V4.90234H257.413V5.90234H258.413ZM258.413 11.9961H257.413V12.9961H258.413V11.9961ZM275.952 11.9961H276.952V10.9961H275.952V11.9961ZM275.952 17.0938V18.0938H276.952V17.0938H275.952ZM258.413 17.0938V16.0938H257.413V17.0938H258.413ZM258.413 25.5898H257.413V26.5898H258.413V25.5898ZM278.628 25.5898H279.628V24.5898H278.628V25.5898ZM278.628 31V32H279.628V31H278.628ZM252.222 31H251.222V32H252.222V31ZM252.222 1.47266H278.218V-0.527344H252.222V1.47266ZM277.218 0.472656V5.90234H279.218V0.472656H277.218ZM278.218 4.90234H258.413V6.90234H278.218V4.90234ZM257.413 5.90234V11.9961H259.413V5.90234H257.413ZM258.413 12.9961H275.952V10.9961H258.413V12.9961ZM274.952 11.9961V17.0938H276.952V11.9961H274.952ZM275.952 16.0938H258.413V18.0938H275.952V16.0938ZM257.413 17.0938V25.5898H259.413V17.0938H257.413ZM258.413 26.5898H278.628V24.5898H258.413V26.5898ZM277.628 25.5898V31H279.628V25.5898H277.628ZM278.628 30H252.222V32H278.628V30ZM253.222 31V0.472656H251.222V31H253.222Z" fill="#2978B3" mask="url(#path-1-outside-1_136_1578)"/>
</svg>
