<svg width="141" height="32" viewBox="0 0 141 32" fill="none" xmlns="http://www.w3.org/2000/svg">
<mask id="path-1-outside-1_136_1478" maskUnits="userSpaceOnUse" x="-2" y="-1" width="144" height="34" fill="black">
<rect fill="white" x="-2" y="-1" width="144" height="34"/>
<path d="M14.7461 0.472656H21.3086L36.0742 31H29.5703L27.1289 25.8633H9.29688L6.93359 31H0.410156L14.7461 0.472656ZM24.6875 20.7656L18.0859 6.89844L11.6602 20.7656H24.6875ZM47.0461 21.918C48.1529 22.543 49.2727 23.1094 50.4055 23.6172C51.5513 24.112 52.7362 24.5352 53.9602 24.8867C55.1841 25.2253 56.4667 25.4857 57.8078 25.668C59.162 25.8503 60.6008 25.9414 62.1242 25.9414C63.9602 25.9414 65.5227 25.8242 66.8117 25.5898C68.1008 25.3424 69.149 25.0104 69.9562 24.5938C70.7766 24.1641 71.369 23.6562 71.7336 23.0703C72.1112 22.4844 72.3 21.8464 72.3 21.1562C72.3 20.0495 71.8378 19.1771 70.9133 18.5391C69.9888 17.888 68.563 17.5625 66.6359 17.5625C65.7896 17.5625 64.8977 17.6211 63.9602 17.7383C63.0227 17.8424 62.0721 17.9596 61.1086 18.0898C60.1581 18.2201 59.2141 18.3438 58.2766 18.4609C57.3521 18.5651 56.4797 18.6172 55.6594 18.6172C54.2922 18.6172 52.9771 18.4414 51.7141 18.0898C50.4641 17.7383 49.3508 17.2109 48.3742 16.5078C47.4107 15.8047 46.6424 14.9258 46.0695 13.8711C45.4966 12.8164 45.2102 11.5859 45.2102 10.1797C45.2102 9.34635 45.3208 8.51953 45.5422 7.69922C45.7766 6.87891 46.1411 6.09766 46.6359 5.35547C47.1437 4.60026 47.7948 3.90365 48.5891 3.26562C49.3833 2.61458 50.3404 2.05469 51.4602 1.58594C52.593 1.11719 53.8951 0.752604 55.3664 0.492188C56.8508 0.21875 58.537 0.0820312 60.425 0.0820312C61.7922 0.0820312 63.1659 0.160156 64.5461 0.316406C65.9263 0.459635 67.2674 0.667969 68.5695 0.941406C69.8846 1.21484 71.1477 1.54688 72.3586 1.9375C73.5695 2.3151 74.6958 2.73828 75.7375 3.20703L73.0227 8.20703C72.1633 7.82943 71.2388 7.48438 70.2492 7.17188C69.2596 6.84635 68.2245 6.56641 67.1437 6.33203C66.063 6.09766 64.9432 5.91536 63.7844 5.78516C62.6385 5.64193 61.4667 5.57031 60.2687 5.57031C58.563 5.57031 57.1568 5.69401 56.05 5.94141C54.9562 6.1888 54.0839 6.50781 53.4328 6.89844C52.7818 7.27604 52.326 7.70573 52.0656 8.1875C51.8182 8.65625 51.6945 9.125 51.6945 9.59375C51.6945 10.5052 52.1047 11.2539 52.925 11.8398C53.7453 12.4128 54.9953 12.6992 56.675 12.6992C57.3521 12.6992 58.1268 12.6536 58.9992 12.5625C59.8846 12.4583 60.8091 12.3477 61.7727 12.2305C62.7492 12.1133 63.7388 12.0091 64.7414 11.918C65.757 11.8138 66.7401 11.7617 67.6906 11.7617C69.4875 11.7617 71.076 11.9635 72.4562 12.3672C73.8495 12.7708 75.0148 13.3503 75.9523 14.1055C76.8898 14.8477 77.5995 15.7526 78.0812 16.8203C78.563 17.875 78.8039 19.0599 78.8039 20.375C78.8039 22.1328 78.3937 23.7018 77.5734 25.082C76.7661 26.4492 75.6073 27.6081 74.0969 28.5586C72.5995 29.4961 70.7896 30.2122 68.6672 30.707C66.5448 31.1888 64.1815 31.4297 61.5773 31.4297C59.8586 31.4297 58.1789 31.319 56.5383 31.0977C54.8977 30.8893 53.3221 30.5898 51.8117 30.1992C50.3143 29.7956 48.882 29.3203 47.5148 28.7734C46.1607 28.2135 44.9042 27.6016 43.7453 26.9375L47.0461 21.918ZM89.6391 0.472656H95.8695V31H89.6391V0.472656ZM118.99 0.472656H125.552L140.318 31H133.814L131.373 25.8633H113.541L111.177 31H104.654L118.99 0.472656ZM128.931 20.7656L122.33 6.89844L115.904 20.7656H128.931Z"/>
</mask>
<path d="M14.7461 0.472656V-0.527344H14.1109L13.8409 0.0475845L14.7461 0.472656ZM21.3086 0.472656L22.2088 0.0372305L21.9357 -0.527344H21.3086V0.472656ZM36.0742 31V32H37.6687L36.9744 30.5646L36.0742 31ZM29.5703 31L28.6671 31.4293L28.9384 32H29.5703V31ZM27.1289 25.8633L28.0321 25.434L27.7608 24.8633H27.1289V25.8633ZM9.29688 25.8633V24.8633H8.65619L8.38841 25.4453L9.29688 25.8633ZM6.93359 31V32H7.57428L7.84206 31.418L6.93359 31ZM0.410156 31L-0.495003 30.5749L-1.16423 32H0.410156V31ZM24.6875 20.7656V21.7656H26.2711L25.5904 20.3358L24.6875 20.7656ZM18.0859 6.89844L18.9888 6.4686L18.0737 4.54631L17.1786 6.478L18.0859 6.89844ZM11.6602 20.7656L10.7528 20.3452L10.0946 21.7656H11.6602V20.7656ZM14.7461 1.47266H21.3086V-0.527344H14.7461V1.47266ZM20.4084 0.908082L35.174 31.4354L36.9744 30.5646L22.2088 0.0372305L20.4084 0.908082ZM36.0742 30H29.5703V32H36.0742V30ZM30.4735 30.5707L28.0321 25.434L26.2257 26.2925L28.6671 31.4293L30.4735 30.5707ZM27.1289 24.8633H9.29688V26.8633H27.1289V24.8633ZM8.38841 25.4453L6.02513 30.582L7.84206 31.418L10.2053 26.2812L8.38841 25.4453ZM6.93359 30H0.410156V32H6.93359V30ZM1.31532 31.4251L15.6513 0.897728L13.8409 0.0475845L-0.495003 30.5749L1.31532 31.4251ZM25.5904 20.3358L18.9888 6.4686L17.183 7.32827L23.7846 21.1955L25.5904 20.3358ZM17.1786 6.478L10.7528 20.3452L12.5675 21.1861L18.9933 7.31887L17.1786 6.478ZM11.6602 21.7656H24.6875V19.7656H11.6602V21.7656ZM47.0461 21.918L47.5378 21.0472L46.724 20.5877L46.2106 21.3685L47.0461 21.918ZM50.4055 23.6172L49.9964 24.5298L50.009 24.5353L50.4055 23.6172ZM53.9602 24.8867L53.6841 25.8479L53.6936 25.8505L53.9602 24.8867ZM57.8078 25.668L57.6731 26.6589L57.6744 26.659L57.8078 25.668ZM66.8117 25.5898L66.9906 26.5738L67.0002 26.5719L66.8117 25.5898ZM69.9563 24.5938L70.4149 25.4824L70.4203 25.4796L69.9563 24.5938ZM71.7336 23.0703L70.893 22.5286L70.8887 22.5353L70.8845 22.542L71.7336 23.0703ZM70.9133 18.5391L70.3375 19.3567L70.3453 19.3621L70.9133 18.5391ZM63.9602 17.7383L64.0706 18.7323L64.0842 18.7306L63.9602 17.7383ZM61.1086 18.0898L60.9747 17.0989L60.9729 17.0991L61.1086 18.0898ZM58.2766 18.4609L58.3885 19.4547L58.4006 19.4532L58.2766 18.4609ZM51.7141 18.0898L51.4433 19.0525L51.4459 19.0532L51.7141 18.0898ZM48.3742 16.5078L47.7847 17.3156L47.7899 17.3193L48.3742 16.5078ZM45.5422 7.69922L44.5807 7.4245L44.5786 7.43158L44.5767 7.4387L45.5422 7.69922ZM46.6359 5.35547L45.8061 4.79747L45.8039 4.80077L46.6359 5.35547ZM48.5891 3.26562L49.2153 4.04528L49.223 4.03902L48.5891 3.26562ZM51.4602 1.58594L51.0778 0.661913L51.074 0.663497L51.4602 1.58594ZM55.3664 0.492188L55.5407 1.47691L55.5476 1.47564L55.3664 0.492188ZM64.5461 0.316406L64.4336 1.3101L64.4429 1.31106L64.5461 0.316406ZM68.5695 0.941406L68.364 1.92006L68.366 1.92047L68.5695 0.941406ZM72.3586 1.9375L72.0516 2.88925L72.0609 2.89216L72.3586 1.9375ZM75.7375 3.20703L76.6163 3.6842L77.1305 2.73728L76.1479 2.29511L75.7375 3.20703ZM73.0227 8.20703L72.6204 9.12255L73.4625 9.49259L73.9015 8.6842L73.0227 8.20703ZM70.2492 7.17188L69.9367 8.12187L69.9481 8.12546L70.2492 7.17188ZM63.7844 5.78516L63.6603 6.77751L63.6727 6.7789L63.7844 5.78516ZM56.05 5.94141L55.8319 4.96549L55.8294 4.96605L56.05 5.94141ZM53.4328 6.89844L53.9345 7.76347L53.9409 7.75975L53.9473 7.75593L53.4328 6.89844ZM52.0656 8.1875L51.1859 7.71196L51.1812 7.72074L52.0656 8.1875ZM52.925 11.8398L52.3437 12.6536L52.3524 12.6597L52.925 11.8398ZM58.9992 12.5625L59.1031 13.5572L59.1161 13.5557L58.9992 12.5625ZM61.7727 12.2305L61.6535 11.2376L61.6519 11.2378L61.7727 12.2305ZM64.7414 11.918L64.8319 12.9139L64.8434 12.9128L64.7414 11.918ZM72.4563 12.3672L72.1756 13.327L72.178 13.3277L72.4563 12.3672ZM75.9523 14.1055L75.325 14.8843L75.3316 14.8895L75.9523 14.1055ZM78.0813 16.8203L77.1697 17.2316L77.1717 17.2358L78.0813 16.8203ZM77.5734 25.082L76.7138 24.5711L76.7123 24.5736L77.5734 25.082ZM74.0969 28.5586L74.6275 29.4062L74.6295 29.4049L74.0969 28.5586ZM68.6672 30.707L68.8885 31.6822L68.8942 31.6809L68.6672 30.707ZM56.5383 31.0977L56.672 30.1066L56.6643 30.1056L56.5383 31.0977ZM51.8117 30.1992L51.5514 31.1648L51.5613 31.1674L51.8117 30.1992ZM47.5148 28.7734L47.1327 29.6976L47.1435 29.7019L47.5148 28.7734ZM43.7453 26.9375L42.9098 26.3881L42.3256 27.2765L43.2481 27.8051L43.7453 26.9375ZM46.5544 22.7887C47.6874 23.4286 48.8348 24.009 49.9964 24.5297L50.8145 22.7047C49.7106 22.2098 48.6183 21.6574 47.5378 21.0472L46.5544 22.7887ZM50.009 24.5353C51.1948 25.0473 52.42 25.4848 53.6841 25.8479L54.2362 23.9256C53.0524 23.5856 51.9078 23.1767 50.8019 22.6991L50.009 24.5353ZM53.6936 25.8505C54.9636 26.2018 56.2903 26.4709 57.6731 26.6589L57.9425 24.6771C56.643 24.5004 55.4047 24.2487 54.2267 23.9229L53.6936 25.8505ZM57.6744 26.659C59.0775 26.8479 60.5612 26.9414 62.1242 26.9414V24.9414C60.6404 24.9414 59.2465 24.8526 57.9412 24.6769L57.6744 26.659ZM62.1242 26.9414C63.9983 26.9414 65.6243 26.8221 66.9906 26.5737L66.6328 24.606C65.421 24.8263 63.922 24.9414 62.1242 24.9414V26.9414ZM67.0002 26.5719C68.3454 26.3137 69.4939 25.9577 70.4149 25.4824L69.4976 23.7051C68.804 24.0631 67.8561 24.3711 66.6232 24.6078L67.0002 26.5719ZM70.4203 25.4796C71.3463 24.9945 72.097 24.3791 72.5826 23.5986L70.8845 22.542C70.641 22.9334 70.2068 23.3336 69.4922 23.7079L70.4203 25.4796ZM72.5742 23.612C73.0547 22.8663 73.3 22.0405 73.3 21.1562H71.3C71.3 21.6522 71.1677 22.1024 70.893 22.5286L72.5742 23.612ZM73.3 21.1562C73.3 19.715 72.6714 18.5374 71.4813 17.716L70.3453 19.3621C71.0041 19.8168 71.3 20.384 71.3 21.1562H73.3ZM71.4891 17.7215C70.3142 16.8941 68.6392 16.5625 66.6359 16.5625V18.5625C68.4868 18.5625 69.6634 18.8819 70.3375 19.3567L71.4891 17.7215ZM66.6359 16.5625C65.7437 16.5625 64.8101 16.6243 63.8361 16.746L64.0842 18.7306C64.9852 18.6179 65.8355 18.5625 66.6359 18.5625V16.5625ZM63.8497 16.7444C62.9041 16.8495 61.9458 16.9676 60.9747 17.0989L61.2425 19.0808C62.1985 18.9517 63.1412 18.8354 64.0706 18.7322L63.8497 16.7444ZM60.9729 17.0991C60.0262 17.2288 59.0861 17.352 58.1525 17.4687L58.4006 19.4532C59.3421 19.3355 60.29 19.2113 61.2443 19.0806L60.9729 17.0991ZM58.1646 17.4672C57.2725 17.5677 56.4377 17.6172 55.6594 17.6172V19.6172C56.5217 19.6172 57.4317 19.5625 58.3885 19.4546L58.1646 17.4672ZM55.6594 17.6172C54.3789 17.6172 53.1543 17.4527 51.9822 17.1265L51.4459 19.0532C52.7999 19.4301 54.2054 19.6172 55.6594 19.6172V17.6172ZM51.9848 17.1272C50.8384 16.8048 49.833 16.3259 48.9585 15.6963L47.7899 17.3193C48.8686 18.096 50.0897 18.6718 51.4433 19.0525L51.9848 17.1272ZM48.9637 15.7C48.1206 15.0848 47.4509 14.3191 46.9483 13.3938L45.1908 14.3484C45.834 15.5325 46.7007 16.5246 47.7847 17.3156L48.9637 15.7ZM46.9483 13.3938C46.4676 12.5089 46.2102 11.4479 46.2102 10.1797H44.2102C44.2102 11.724 44.5256 13.1239 45.1908 14.3484L46.9483 13.3938ZM46.2102 10.1797C46.2102 9.43606 46.3088 8.69679 46.5077 7.95974L44.5767 7.4387C44.3329 8.34228 44.2102 9.25665 44.2102 10.1797H46.2102ZM46.5037 7.97394C46.7084 7.25755 47.0279 6.57023 47.468 5.91017L45.8039 4.80077C45.2543 5.62508 44.8447 6.50026 44.5807 7.4245L46.5037 7.97394ZM47.4658 5.91347C47.911 5.25131 48.4904 4.62754 49.2153 4.04525L47.9628 2.486C47.0992 3.17976 46.3765 3.94921 45.8061 4.79747L47.4658 5.91347ZM49.223 4.03902C49.9301 3.45938 50.8001 2.94632 51.8463 2.50838L51.074 0.663497C49.8806 1.16306 48.8365 1.76979 47.9551 2.49223L49.223 4.03902ZM51.8425 2.50995C52.8957 2.07415 54.1258 1.72731 55.5407 1.47688L55.1921 -0.492508C53.6643 -0.2221 52.2902 0.160225 51.0778 0.661921L51.8425 2.50995ZM55.5476 1.47564C56.9595 1.21554 58.5834 1.08203 60.425 1.08203V-0.917969C58.4906 -0.917969 56.742 -0.778043 55.1852 -0.491265L55.5476 1.47564ZM60.425 1.08203C61.754 1.08203 63.0901 1.15797 64.4336 1.31006L64.6586 -0.677247C63.2416 -0.837657 61.8304 -0.917969 60.425 -0.917969V1.08203ZM64.4429 1.31106C65.7902 1.45088 67.0971 1.65402 68.364 1.92006L68.775 -0.0372477C67.4378 -0.318079 66.0624 -0.53161 64.6493 -0.678252L64.4429 1.31106ZM68.366 1.92047C69.648 2.18704 70.8764 2.51013 72.0516 2.88921L72.6656 0.985791C71.4189 0.583623 70.1212 0.242648 68.7731 -0.0376549L68.366 1.92047ZM72.0609 2.89216C73.2376 3.25909 74.3259 3.66839 75.3271 4.11895L76.1479 2.29511C75.0658 1.80817 73.9015 1.37112 72.6563 0.982838L72.0609 2.89216ZM74.8587 2.72986L72.1438 7.72986L73.9015 8.6842L76.6163 3.6842L74.8587 2.72986ZM73.4249 7.29151C72.5293 6.89799 71.5708 6.54053 70.5503 6.21829L69.9481 8.12546C70.9068 8.42822 71.7972 8.76087 72.6204 9.12255L73.4249 7.29151ZM70.5617 6.22195C69.5372 5.88493 68.4683 5.59604 67.3557 5.35475L66.9318 7.30931C67.9806 7.53677 68.9821 7.80778 69.9367 8.1218L70.5617 6.22195ZM67.3557 5.35475C66.2401 5.11281 65.0868 4.9252 63.896 4.79141L63.6727 6.7789C64.7997 6.90553 65.8859 7.0825 66.9318 7.30931L67.3557 5.35475ZM63.9084 4.79288C62.7199 4.64432 61.5066 4.57031 60.2687 4.57031V6.57031C61.4267 6.57031 62.5572 6.63954 63.6603 6.77743L63.9084 4.79288ZM60.2687 4.57031C58.5224 4.57031 57.0364 4.69624 55.8319 4.96549L56.2681 6.91732C57.2771 6.69178 58.6036 6.57031 60.2687 6.57031V4.57031ZM55.8294 4.96605C54.6766 5.2268 53.6927 5.5763 52.9183 6.04094L53.9473 7.75593C54.475 7.43933 55.2359 7.15081 56.2706 6.91677L55.8294 4.96605ZM52.9311 6.03341C52.178 6.47022 51.561 7.01816 51.1859 7.71198L52.9453 8.66302C53.0911 8.3933 53.3856 8.08186 53.9345 7.76347L52.9311 6.03341ZM51.1812 7.72074C50.868 8.31433 50.6945 8.94209 50.6945 9.59375H52.6945C52.6945 9.30791 52.7685 8.99817 52.95 8.65426L51.1812 7.72074ZM50.6945 9.59375C50.6945 10.866 51.293 11.9031 52.3438 12.6536L53.5062 11.0261C52.9163 10.6047 52.6945 10.1444 52.6945 9.59375H50.6945ZM52.3524 12.6597C53.4202 13.4054 54.9156 13.6992 56.675 13.6992V11.6992C55.075 11.6992 54.0704 11.4201 53.4976 11.02L52.3524 12.6597ZM56.675 13.6992C57.3952 13.6992 58.2057 13.6508 59.1031 13.5571L58.8953 11.5679C58.048 11.6564 57.309 11.6992 56.675 11.6992V13.6992ZM59.1161 13.5557C60.0029 13.4513 60.9287 13.3405 61.8934 13.2232L61.6519 11.2378C60.6896 11.3548 59.7664 11.4653 58.8824 11.5693L59.1161 13.5557ZM61.8918 13.2233C62.8586 13.1073 63.8387 13.0042 64.8319 12.9139L64.6509 10.9221C63.6389 11.0141 62.6398 11.1192 61.6535 11.2376L61.8918 13.2233ZM64.8434 12.9128C65.8276 12.8118 66.7766 12.7617 67.6906 12.7617V10.7617C66.7036 10.7617 65.6864 10.8158 64.6394 10.9232L64.8434 12.9128ZM67.6906 12.7617C69.4151 12.7617 70.9059 12.9557 72.1756 13.327L72.7369 11.4074C71.2462 10.9714 69.5599 10.7617 67.6906 10.7617V12.7617ZM72.178 13.3277C73.4695 13.7019 74.5095 14.2273 75.325 14.8842L76.5797 13.3267C75.5202 12.4732 74.2295 11.8398 72.7345 11.4067L72.178 13.3277ZM75.3316 14.8895C76.1465 15.5346 76.7551 16.3127 77.1697 17.2316L78.9928 16.409C78.4438 15.1925 77.6332 14.1607 76.573 13.3214L75.3316 14.8895ZM77.1717 17.2358C77.5863 18.1436 77.8039 19.184 77.8039 20.375H79.8039C79.8039 18.9358 79.5397 17.6064 78.9908 16.4048L77.1717 17.2358ZM77.8039 20.375C77.8039 21.9706 77.4337 23.3599 76.7138 24.5711L78.4331 25.5929C79.3538 24.0437 79.8039 22.2951 79.8039 20.375H77.8039ZM76.7123 24.5736C75.9957 25.7873 74.9567 26.8359 73.5643 27.7122L74.6295 29.4049C76.2578 28.3802 77.5366 27.1111 78.4345 25.5905L76.7123 24.5736ZM73.5662 27.711C72.1813 28.5781 70.4792 29.2578 68.4401 29.7331L68.8942 31.6809C71.1 31.1667 73.0177 30.4141 74.6275 29.4062L73.5662 27.711ZM68.4458 29.7318C66.4086 30.1943 64.1211 30.4297 61.5773 30.4297V32.4297C64.2419 32.4297 66.681 32.1833 68.8885 31.6822L68.4458 29.7318ZM61.5773 30.4297C59.9016 30.4297 58.2666 30.3218 56.672 30.1066L56.4046 32.0887C58.0912 32.3162 59.8156 32.4297 61.5773 32.4297V30.4297ZM56.6643 30.1056C55.0631 29.9023 53.5292 29.6105 52.0621 29.2311L51.5613 31.1674C53.115 31.5692 54.7322 31.8763 56.4123 32.0897L56.6643 30.1056ZM52.072 29.2337C50.6103 28.8397 49.2153 28.3766 47.8862 27.845L47.1435 29.7019C48.5488 30.264 50.0183 30.7515 51.5514 31.1648L52.072 29.2337ZM47.8969 27.8493C46.5785 27.3042 45.3609 26.7107 44.2425 26.0699L43.2481 27.8051C44.4475 28.4924 45.7428 29.1229 47.1328 29.6976L47.8969 27.8493ZM44.5808 27.4869L47.8816 22.4674L46.2106 21.3685L42.9098 26.3881L44.5808 27.4869ZM89.6391 0.472656V-0.527344H88.6391V0.472656H89.6391ZM95.8695 0.472656H96.8695V-0.527344H95.8695V0.472656ZM95.8695 31V32H96.8695V31H95.8695ZM89.6391 31H88.6391V32H89.6391V31ZM89.6391 1.47266H95.8695V-0.527344H89.6391V1.47266ZM94.8695 0.472656V31H96.8695V0.472656H94.8695ZM95.8695 30H89.6391V32H95.8695V30ZM90.6391 31V0.472656H88.6391V31H90.6391ZM118.99 0.472656V-0.527344H118.355L118.085 0.0475845L118.99 0.472656ZM125.552 0.472656L126.453 0.0372305L126.179 -0.527344H125.552V0.472656ZM140.318 31V32H141.912L141.218 30.5646L140.318 31ZM133.814 31L132.911 31.4293L133.182 32H133.814V31ZM131.373 25.8633L132.276 25.434L132.005 24.8633H131.373V25.8633ZM113.541 25.8633V24.8633H112.9L112.632 25.4453L113.541 25.8633ZM111.177 31V32H111.818L112.086 31.418L111.177 31ZM104.654 31L103.749 30.5749L103.08 32H104.654V31ZM128.931 20.7656V21.7656H130.515L129.834 20.3358L128.931 20.7656ZM122.33 6.89844L123.233 6.4686L122.317 4.54631L121.422 6.478L122.33 6.89844ZM115.904 20.7656L114.997 20.3452L114.338 21.7656H115.904V20.7656ZM118.99 1.47266H125.552V-0.527344H118.99V1.47266ZM124.652 0.908082L139.418 31.4354L141.218 30.5646L126.453 0.0372305L124.652 0.908082ZM140.318 30H133.814V32H140.318V30ZM134.717 30.5707L132.276 25.434L130.469 26.2925L132.911 31.4293L134.717 30.5707ZM131.373 24.8633H113.541V26.8633H131.373V24.8633ZM112.632 25.4453L110.269 30.582L112.086 31.418L114.449 26.2812L112.632 25.4453ZM111.177 30H104.654V32H111.177V30ZM105.559 31.4251L119.895 0.897728L118.085 0.0475845L103.749 30.5749L105.559 31.4251ZM129.834 20.3358L123.233 6.4686L121.427 7.32827L128.028 21.1955L129.834 20.3358ZM121.422 6.478L114.997 20.3452L116.811 21.1861L123.237 7.31887L121.422 6.478ZM115.904 21.7656H128.931V19.7656H115.904V21.7656Z" fill="#2978B3" mask="url(#path-1-outside-1_136_1478)"/>
</svg>
